<?xml version="1.0" encoding="UTF-8" standalone="no"?>
<svg
   xmlns:dc="http://purl.org/dc/elements/1.1/"
   xmlns:cc="http://creativecommons.org/ns#"
   xmlns:rdf="http://www.w3.org/1999/02/22-rdf-syntax-ns#"
   xmlns:svg="http://www.w3.org/2000/svg"
   xmlns="http://www.w3.org/2000/svg"
   id="svg8"
   version="1.1"
   viewBox="0 0 26.458334 26.458332"
   height="100"
   width="100">
  <defs
     id="defs2" />
  <metadata
     id="metadata5">
    <rdf:RDF>
      <cc:Work
         rdf:about="">
        <dc:format>image/svg+xml</dc:format>
        <dc:type
           rdf:resource="http://purl.org/dc/dcmitype/StillImage" />
        <dc:title />
        <cc:license
           rdf:resource="" />
      </cc:Work>
    </rdf:RDF>
  </metadata>
  <g
     transform="translate(-179.27135,-141.84345)"
     id="layer1">
    <g
       transform="matrix(0.93878631,0,0,0.93878631,13.549948,10.22929)"
       id="g817">
      <path
         d="m 198.19488,149.24807 v -1.36551 c 0,-4.22699 -3.44647,-7.60863 -7.60836,-7.60863 -4.22698,0 -7.60836,3.44673 -7.60836,7.60863 v 1.36551 h -3.70681 v 19.05371 h 6.05499 16.64044 v -19.05371 z m -11.25009,-1.36551 c 0,-2.01613 1.62587,-3.57664 3.57664,-3.57664 2.01586,0 3.57664,1.6256 3.57664,3.57664 v 1.36551 h -7.21836 v -1.36551 z"
         id="path79"
         style="isolation:isolate;fill:#000000;stroke-width:0.26458332" />
      <path
         d="m 191.49748,160.50133 0.99192,0.99192 0.99166,0.99166 c 0.44397,0.44424 0.44397,1.16496 0,1.6092 l -0.99166,0.99165 -0.99192,0.99193 c -0.44397,0.44397 -1.16496,0.44397 -1.60893,0 l -0.99193,-0.99193 -0.99192,-0.99165 c -0.44397,-0.44424 -0.44397,-1.16496 0,-1.6092 l 0.99192,-0.99166 0.99193,-0.99192 c 0.44397,-0.44397 1.16496,-0.44397 1.60893,0 z m 4.91754,-4.44156 0.99193,0.99192 0.99166,0.99166 c 0.44423,0.44424 0.44423,1.16496 0,1.6092 l -0.99166,0.99165 -0.99193,0.99193 c -0.44397,0.44397 -1.16496,0.44397 -1.60893,0 l -0.99192,-0.99193 -0.99192,-0.99165 c -0.44397,-0.44424 -0.44397,-1.16496 0,-1.6092 l 0.99192,-0.99166 0.99192,-0.99192 c 0.44397,-0.44397 1.16496,-0.44397 1.60893,0 z m -4.98766,-4.34763 0.98796,0.98795 0.98795,0.98795 c 0.44635,0.44609 0.44635,1.17052 0,1.61661 l -0.98795,0.98822 -0.98796,0.98795 c -0.44608,0.44609 -1.17051,0.44609 -1.6166,0 l -0.98822,-0.98795 -0.98795,-0.98822 c -0.44609,-0.44609 -0.44609,-1.17052 0,-1.61661 l 0.98795,-0.98795 0.98822,-0.98795 c 0.44609,-0.44636 1.17052,-0.44636 1.6166,0 z m -4.91913,4.34763 0.99192,0.99192 0.99166,0.99166 c 0.44424,0.44424 0.44424,1.16496 0,1.6092 l -0.99166,0.99165 -0.99192,0.99193 c -0.44397,0.44397 -1.16496,0.44397 -1.60893,0 l -0.99192,-0.99193 -0.99193,-0.99165 c -0.44397,-0.44424 -0.44397,-1.16496 0,-1.6092 l 0.99193,-0.99166 0.99192,-0.99192 c 0.44397,-0.44397 1.16496,-0.44397 1.60893,0 z"
         id="path81"
         style="isolation:isolate;fill:#ffffff;stroke-width:0.26458332" />
    </g>
  </g>
</svg>
