<?xml version="1.0" encoding="UTF-8" standalone="no"?>
<svg
   xmlns:dc="http://purl.org/dc/elements/1.1/"
   xmlns:cc="http://creativecommons.org/ns#"
   xmlns:rdf="http://www.w3.org/1999/02/22-rdf-syntax-ns#"
   xmlns:svg="http://www.w3.org/2000/svg"
   xmlns="http://www.w3.org/2000/svg"
   id="svg8"
   version="1.1"
   viewBox="0 0 26.39801 26.649359"
   height="100.72199"
   width="99.772003">
  <defs
     id="defs2" />
  <metadata
     id="metadata5">
    <rdf:RDF>
      <cc:Work
         rdf:about="">
        <dc:format>image/svg+xml</dc:format>
        <dc:type
           rdf:resource="http://purl.org/dc/dcmitype/StillImage" />
        <dc:title />
        <cc:license
           rdf:resource="" />
      </cc:Work>
    </rdf:RDF>
  </metadata>
  <g
     transform="translate(-171.36866,-165.16877)"
     id="layer1">
    <path
       style="isolation:isolate;fill:#171717;stroke-width:0.26458332"
       id="path32"
       d="m 189.51722,165.16877 v 0.22886 l -8.68441,11.84222 c 0.25135,0.073 0.49873,0.15902 0.74109,0.25797 -0.86016,-0.34845 -1.79599,-0.55112 -2.78077,-0.55112 -1.9685,0 -3.85524,0.78554 -5.24616,2.17831 -0.39237,0.39291 -0.73924,0.82841 -1.03452,1.29858 l 3.4544,3.4544 -2.30399,3.14192 c 0.55113,1.06389 1.41949,1.92987 2.48444,2.47809 l 3.13875,-2.30082 3.45758,3.45758 c 0.46937,-0.29634 0.90381,-0.64426 1.2954,-1.03743 1.39276,-1.39092 2.17646,-3.27793 2.17831,-5.24616 0,-0.95885 -0.19738,-1.86875 -0.52837,-2.71013 0.09,0.21855 0.1696,0.44106 0.23839,0.66702 l 11.83931,-8.90985 z m -13.34082,0.37068 -4.66592,4.6691 6.0579,6.05499 4.66619,-4.66593 z m 15.39029,15.39028 -4.6662,4.66911 6.05817,6.05816 4.66619,-4.66937 z m -18.96401,7.42421 -1.23402,1.81425 1.64968,1.64994 1.68222,-1.23428 c -0.83318,-0.55086 -1.54676,-1.26444 -2.09788,-2.09762 z" />
  </g>
</svg>
