<?xml version="1.0" encoding="UTF-8" standalone="no"?>
<svg
   xmlns:dc="http://purl.org/dc/elements/1.1/"
   xmlns:cc="http://creativecommons.org/ns#"
   xmlns:rdf="http://www.w3.org/1999/02/22-rdf-syntax-ns#"
   xmlns:svg="http://www.w3.org/2000/svg"
   xmlns="http://www.w3.org/2000/svg"
   id="svg8"
   version="1.1"
   viewBox="0 0 26.458334 26.458333"
   height="100"
   width="100">
  <defs
     id="defs2" />
  <metadata
     id="metadata5">
    <rdf:RDF>
      <cc:Work
         rdf:about="">
        <dc:format>image/svg+xml</dc:format>
        <dc:type
           rdf:resource="http://purl.org/dc/dcmitype/StillImage" />
        <dc:title />
        <cc:license
           rdf:resource="" />
      </cc:Work>
    </rdf:RDF>
  </metadata>
  <g
     transform="translate(-190.61238,-192.38458)"
     id="layer1">
    <g
       id="RDP Icons"
       style="isolation:isolate"
       transform="matrix(0.26458333,0,0,0.26458333,153.78079,124.26165)">
      <g
         id="Group" />
      <g
         id="g50">
        <path
           style="fill:#000000"
           id="path48"
           d="m 139.626,307.472 c 0,-27.364 22.216,-49.58 49.58,-49.58 27.364,0 49.58,22.216 49.58,49.58 0,27.364 -22.216,49.581 -49.58,49.581 -27.364,0 -49.58,-22.217 -49.58,-49.581 z" />
      </g>
      <g
         id="g62">
        <g
           id="g52" />
        <g
           id="g54" />
        <g
           id="g56" />
        <g
           id="g60">
          <g
             id="g58" />
        </g>
      </g>
    </g>
    <g
       transform="translate(0.20117925,-0.3392995)"
       id="g831">
      <path
         d="m 198.46707,202.16094 1.37716,1.37742 1.37742,1.37742 c 0.44661,0.44635 0.44661,1.17131 0,1.61793 l -1.37742,1.37742 -1.37716,1.37742 c -0.44662,0.44635 -1.17157,0.44635 -1.61793,0 l -1.37742,-1.37742 -1.37742,-1.37742 c -0.44662,-0.44662 -0.44662,-1.17158 0,-1.61793 l 1.37742,-1.37742 1.37742,-1.37742 c 0.44636,-0.44635 1.17131,-0.44635 1.61793,0 z"
         id="path71"
         style="isolation:isolate;fill:#ffffff;stroke-width:0.26458332" />
      <path
         d="m 204.53926,197.21164 1.37742,1.37743 1.37742,1.37742 c 0.44662,0.44661 0.44662,1.17131 0,1.61792 l -1.37742,1.37742 -1.37742,1.37742 c -0.44635,0.44636 -1.17131,0.44636 -1.61793,0 l -1.37716,-1.37742 -1.37742,-1.37742 c -0.44661,-0.44661 -0.44661,-1.17131 0,-1.61792 l 1.37742,-1.37742 1.37716,-1.37743 c 0.44662,-0.44635 1.17158,-0.44635 1.61793,0 z"
         id="path73"
         style="isolation:isolate;fill:#ffffff;stroke-width:0.26458332" />
      <path
         d="m 210.43179,202.16094 1.37742,1.37742 1.37742,1.37742 c 0.44636,0.44635 0.44636,1.17131 0,1.61793 l -1.37742,1.37742 -1.37742,1.37742 c -0.44635,0.44635 -1.17131,0.44635 -1.61792,0 l -1.37743,-1.37742 -1.37742,-1.37742 c -0.44635,-0.44662 -0.44635,-1.17158 0,-1.61793 l 1.37742,-1.37742 1.37743,-1.37742 c 0.44661,-0.44635 1.17157,-0.44635 1.61792,0 z"
         id="path75"
         style="isolation:isolate;fill:#ffffff;stroke-width:0.26458332" />
      <path
         d="m 204.53926,207.56691 1.37742,1.37742 1.37742,1.37742 c 0.44662,0.44635 0.44662,1.17131 0,1.61766 l -1.37742,1.37742 -1.37742,1.37742 c -0.44635,0.44662 -1.17131,0.44662 -1.61793,0 l -1.37716,-1.37742 -1.37742,-1.37742 c -0.44661,-0.44635 -0.44661,-1.17131 0,-1.61766 l 1.37742,-1.37742 1.37716,-1.37742 c 0.44662,-0.44662 1.17158,-0.44662 1.61793,0 z"
         id="path77"
         style="isolation:isolate;fill:#ffffff;stroke-width:0.26458332" />
    </g>
  </g>
</svg>
