<?xml version="1.0" encoding="UTF-8" standalone="no"?>
<svg
   xmlns:dc="http://purl.org/dc/elements/1.1/"
   xmlns:cc="http://creativecommons.org/ns#"
   xmlns:rdf="http://www.w3.org/1999/02/22-rdf-syntax-ns#"
   xmlns:svg="http://www.w3.org/2000/svg"
   xmlns="http://www.w3.org/2000/svg"
   id="svg8"
   version="1.1"
   viewBox="0 0 21.863581 21.863579"
   height="82.634003"
   width="82.634003">
  <defs
     id="defs2" />
  <metadata
     id="metadata5">
    <rdf:RDF>
      <cc:Work
         rdf:about="">
        <dc:format>image/svg+xml</dc:format>
        <dc:type
           rdf:resource="http://purl.org/dc/dcmitype/StillImage" />
        <dc:title />
        <cc:license
           rdf:resource="" />
      </cc:Work>
    </rdf:RDF>
  </metadata>
  <g
     transform="translate(-229.61131,-170.08308)"
     id="layer1">
    <path
       style="isolation:isolate;fill:#171717;stroke-width:0.26458332"
       id="path7"
       d="m 231.77508,170.08308 c -1.20756,0 -2.16377,1.00012 -2.16377,2.22064 v 6.88923 h 3.64411 v -5.46577 h 5.46576 v -3.6441 z m 10.58994,0 v 3.6441 h 5.46603 v 5.46577 h 3.64384 v -6.88923 c 0,-1.22025 -0.9562,-2.22064 -2.1635,-2.22064 z m -5.48719,7.2808 v 7.28795 h 7.28795 v -7.28795 z m -7.26652,5.47291 v 6.88922 c 0,1.22026 0.95621,2.22065 2.16377,2.22065 h 6.9461 v -3.64385 h -5.46576 v -5.46602 z m 18.21974,0 v 5.46602 h -5.46603 v 3.64385 h 6.94637 c 1.2073,0 2.1635,-1.00013 2.1635,-2.22065 v -6.88922 z" />
  </g>
</svg>
