<?xml version="1.0" encoding="iso-8859-1"?>
<!-- Generator: Adobe Illustrator 15.1.0, SVG Export Plug-In . SVG Version: 6.00 Build 0)  -->
<!DOCTYPE svg PUBLIC "-//W3C//DTD SVG 1.1//EN" "http://www.w3.org/Graphics/SVG/1.1/DTD/svg11.dtd">
<svg version="1.1" id="Layer_1" xmlns="http://www.w3.org/2000/svg" xmlns:xlink="http://www.w3.org/1999/xlink" x="0px" y="0px"
	 width="128px" height="128px" viewBox="0 0 128 128" style="enable-background:new 0 0 128 128;" xml:space="preserve">
<g>
	<path style="fill:#5892CD;" d="M125.636,70.242c-3.437,30.425-30.909,52.314-61.337,48.867
		c-30.445-3.44-52.327-30.91-48.885-61.342c3.449-30.441,30.91-52.325,61.354-48.873C107.205,12.337,129.087,39.796,125.636,70.242z
		"/>
	<path style="fill:#8FC2E9;" d="M36.455,107.779c-11.795-9.184-18.866-22.187-20.83-35.902c-0.231-1.612-9.219-1.325-9.309-2.951
		c-0.07-1.296,8.928-8.335,8.947-9.635c0.176-11.632,3.803-19.471,11.499-29.357C45.569,5.761,80.43,1.417,104.596,20.227"/>
	<path style="fill:#F5F6F6;" d="M92.071,66.437C90.716,78.422,79.9,87.042,67.914,85.688c-9.282-1.053-22.175-9.064-16.525-14.855
		c1.646-1.688,9.986,0.88,14.102-1.178c-6.093-7.616-13.593-13.202-13.828-17.411c-0.47-8.389,13.18-10.869,21.167-9.967
		C84.81,43.636,93.43,54.451,92.071,66.437z"/>
	<polyline style="fill:none;stroke:#010101;stroke-width:4;stroke-miterlimit:10;" points="48,70 67.164,70 37.684,36.313 4,70 
		18,70 	"/>
	<path style="fill:none;stroke:#010101;stroke-width:3.9355;stroke-miterlimit:10;" d="M49.036,71.374
		c2.769,8.036,9.924,14.201,18.935,15.225c12.474,1.412,23.74-7.562,25.147-20.042c1.418-12.475-7.552-23.742-20.031-25.146
		c-8.81-1.005-16.993,3.185-21.558,10.124"/>
	<path style="fill:none;stroke:#010101;stroke-width:3.9355;stroke-miterlimit:10;" d="M15.615,71.374
		c3.615,27.132,26.793,48.093,54.92,48.093C101.154,119.467,126,94.63,126,64c0-30.632-24.846-55.465-55.465-55.465
		c-29.318,0-53.26,22.763-55.271,51.574"/>
	<path style="fill:none;stroke:#FFFFFF;stroke-width:3.9355;stroke-miterlimit:10;" d="M51.389,101.886
		c-11.968-6.184-20.85-17.889-22.856-32.231"/>
</g>
</svg>
