<svg width="512" height="512" version="1.1" viewBox="0 0 135.46667 135.46666" xmlns="http://www.w3.org/2000/svg">
    <title>Chatbot icon</title>
    <path d="m67.713214 0.51932689c-12.854799 0-25.679716 5.8085909-36.124236 17.422877-6.286195 6.990486-11.144628 15.496078-14.518802 24.80997-0.46831-0.06096-0.923984-0.193541-1.404791-0.193541-8.3960782 0-15.15641 8.959118-15.15641 20.085742v24.824523c0 11.126548 6.7603318 20.085582 15.15641 20.085582 0.480897 0 0.936529-0.13867 1.404791-0.19354 0.604199 1.65943 1.229177 3.30666 1.933659 4.92501 2.753967 6.51387 10.111508 0.93677 7.270382-5.51165-11.632736-26.702324-7.127601-60.538694 10.694538-80.357364 17.822557-19.819204 43.709855-19.819204 61.532196 0 17.822549 19.81867 22.327689 53.654431 10.694749 80.357364l-0.12539 0.27736-0.0837 0.27736s-5.64986 16.5639-16.744089 16.5639l-14.04344-0.16687c-1.316991-2.54887-3.424789-4.32389-5.941471-4.32389h-9.052756c-4.05903 0-7.324306 4.3418-7.324306 9.72102 0 3.31816 1.588748 5.83769 5.22427 5.83769l31.137655 3e-3c16.648357 0 23.848697-21.66028 24.176487-22.66258v-0.061c0.69812-1.6041 1.3128-3.25126 1.91275-4.89605 0.48924 0.061 0.96579 0.19354 1.46959 0.19354 8.39608 0 15.15639-8.958964 15.15639-20.085588v-24.824124c0-11.126471-6.76032-20.085589-15.15639-20.085589-0.48507 0-0.9428 0.106676-1.41524 0.193541-3.36627-9.31473-8.21026-17.819331-14.49728-24.810351-10.444143-11.61421-23.322963-17.422877-36.178208-17.422877z" fill="#4d4d4d" fill-rule="evenodd" stroke-width="7.27947"/>
    <g transform="translate(.5401195 3.4245485)">
        <polygon class="st1" transform="matrix(1.0401024,0,0,1.1282575,25.862028,20.803824)" points="20.618 26.923 29.549 32.877 20.618 38.831 20.618 48.012 43.32 32.877 20.618 17.742" fill="#4d4d4d"/>
        <g transform="matrix(1.0401024,0,0,1.1282575,26.577547,21.893596)">
            <polygon class="st2" points="55.388 59.232 55.388 50.051 46.457 44.097 55.388 38.143 55.388 28.962 32.685 44.097" fill="#939393"/>
        </g>
        <path class="st1" d="m94.413615 47.119755c2.737554 5.087308 4.313312 11.000594 4.313312 17.316582 0 19.005494-14.203642 34.411812-31.723126 34.411812-10.319897 0-19.485279-5.349046-25.278649-13.626046l-6.853235 4.956554c7.285918 10.674393 18.974589 17.608723 32.130841 17.608723 22.035614 0 39.963852-19.446601 39.963852-43.351043 0-8.140454-2.08228-15.761853-5.69559-22.276335z" fill="#4d4d4d" stroke-width="1.08329"/>
        <g transform="matrix(1.0401024,0,0,1.1282575,27.419816,20.830188)">
            <path class="st2" d="m7.922 38.423c0-16.845 13.656-30.5 30.5-30.5 9.826 0 18.561 4.652 24.139 11.868l6.596-4.397c-7.015-9.341-18.181-15.394-30.734-15.394-21.187 0-38.423 17.236-38.423 38.423 0 7.12 1.954 13.789 5.343 19.513l6.594-4.396c-2.55-4.457-4.015-9.615-4.015-15.117z" fill="#939393"/>
        </g>
    </g>
</svg>
