<svg id="Layer_1" data-name="Layer 1" xmlns="http://www.w3.org/2000/svg" viewBox="0 0 600 600"><defs><style>.cls-1{fill:#ccc;}.cls-1,.cls-2{stroke:#000;stroke-miterlimit:10;stroke-width:5px;}.cls-2{fill:red;}</style></defs><circle class="cls-1" cx="502.25" cy="188.07" r="49.32"/><path class="cls-2" d="M66.18,411.27c-4.79-7.8-1.8-20,2.08-27.77,5.85-11.67,17-16.82,20.84-18.75,26.9-13.66,39.22-45.36,57.67-74.56,29.76-47.12,71.51-74.45,84.69-83.08,0,0,90.91-59.52,193.14-36a111.47,111.47,0,0,1,18,6.11c11.41,4.95,21.77,9.62,27.78,20,.68,1.18,6.7,11.94,4.16,24.42-4,19.54-24.29,20.73-38.6,38.54-20.23,25.21-19,72,2.49,92.59C452.18,366,476.16,369,485.24,370.14c19.55,2.5,33.49-1.07,39.27,7.38,4.37,6.39,1.48,15.88,0,19.17-14.32,31.89-119.33-17.75-254.66,2.81C221.1,406.91,172,412,123.07,418,98.71,421,73.83,423.75,66.18,411.27Z"/><path class="cls-1" d="M70,415.59c-8.07.13-17.38,4.77-20.44,12.78a18.78,18.78,0,0,0,0,12.5C55.65,458,95,460.39,113.4,461c41.45,1.38,66.77-3.46,109.72-9,67.49-8.76,101.23-13.14,135.6-10,33.14,3.07,32.73,4.94,65.76,5.53,33.83.6,102,1.82,110.58-23.24,3.14-9.14-1.78-21.42-9.15-26.32-8.34-5.55-15.38,1.31-41.93,1.73-13.49.2-28-.4-28-.4l-1.24-.05c-41.88-1.84-90.53-7.64-90.53-7.64-46.17-5.49-116.7,2.22-167.15,14-16.4,3.82-52.2,9.85-100.77,12.26a97.16,97.16,0,0,1-17.79-.73A23,23,0,0,0,70,415.59Z"/></svg>