<?xml version="1.0" encoding="iso-8859-1"?>
<!-- Generator: Adobe Illustrator 15.1.0, SVG Export Plug-In . SVG Version: 6.00 Build 0)  -->
<!DOCTYPE svg PUBLIC "-//W3C//DTD SVG 1.1//EN" "http://www.w3.org/Graphics/SVG/1.1/DTD/svg11.dtd">
<svg version="1.1" id="Layer_1" xmlns="http://www.w3.org/2000/svg" xmlns:xlink="http://www.w3.org/1999/xlink" x="0px" y="0px"
	 width="128px" height="128px" viewBox="0 0 128 128" style="enable-background:new 0 0 128 128;" xml:space="preserve">
<g>
	<g>
		<rect x="1" y="1" style="fill:#5892CD;" width="126" height="80"/>
	</g>
	<g>
		<polygon style="fill:#8FC2E9;" points="38.448,81 1,81 1,1 116.743,1 		"/>
	</g>
	<g>
		<rect x="1" y="84" style="fill:#D8D9D8;" width="126" height="24"/>
	</g>
	<line style="fill:#FFFFFF;" x1="37" y1="127" x2="91" y2="127"/>
	<rect x="37" y="124" style="fill:#010101;" width="54" height="4"/>
	<path style="fill:#010101;" d="M128,111H0V0h128V111z M4,107h120V4H4V107z"/>
	<g>
		<path style="fill:#010101;" d="M128,111H0V81h128V111z M4,107h120V85H4V107z"/>
	</g>
	<g>
		<rect x="62" y="108" style="fill:#010101;" width="4" height="19"/>
	</g>
	<line style="fill:#FFFFFF;stroke:#FFFFFF;stroke-width:5.3333;stroke-miterlimit:10;" x1="38" y1="20" x2="86" y2="68"/>
	<line style="fill:#FFFFFF;stroke:#FFFFFF;stroke-width:5.3333;stroke-miterlimit:10;" x1="86" y1="20" x2="38" y2="68"/>
</g>
</svg>
