<?xml version="1.0" encoding="UTF-8" standalone="no"?>
<!-- Created with Inkscape (http://www.inkscape.org/) -->

<svg
   xmlns:dc="http://purl.org/dc/elements/1.1/"
   xmlns:cc="http://creativecommons.org/ns#"
   xmlns:rdf="http://www.w3.org/1999/02/22-rdf-syntax-ns#"
   xmlns:svg="http://www.w3.org/2000/svg"
   xmlns="http://www.w3.org/2000/svg"
   xmlns:sodipodi="http://sodipodi.sourceforge.net/DTD/sodipodi-0.dtd"
   xmlns:inkscape="http://www.inkscape.org/namespaces/inkscape"
   width="100"
   height="100"
   viewBox="0 0 26.458334 26.458332"
   version="1.1"
   id="svg8"
   inkscape:version="0.92.2 2405546, 2018-03-11"
   sodipodi:docname="remmina-ssh-symbolic.svg">
  <defs
     id="defs2" />
  <sodipodi:namedview
     id="base"
     pagecolor="#ffffff"
     bordercolor="#666666"
     borderopacity="1.0"
     inkscape:pageopacity="0"
     inkscape:pageshadow="2"
     inkscape:zoom="2.8284271"
     inkscape:cx="-14.243415"
     inkscape:cy="34.332165"
     inkscape:document-units="px"
     inkscape:current-layer="g817"
     inkscape:document-rotation="0"
     showgrid="false"
     borderlayer="true"
     inkscape:showpageshadow="true"
     units="px"
     inkscape:pagecheckerboard="false"
     showguides="true"
     inkscape:window-width="1920"
     inkscape:window-height="1041"
     inkscape:window-x="1600"
     inkscape:window-y="18"
     inkscape:window-maximized="0"
     objecttolerance="10"
     guidetolerance="10"
     inkscape:snap-tangential="true"
     inkscape:snap-perpendicular="true"
     fit-margin-top="0"
     fit-margin-left="0"
     fit-margin-right="0"
     fit-margin-bottom="0">
    <inkscape:grid
       type="xygrid"
       id="grid10"
       dotted="false"
       originx="-179.27136"
       originy="-128.69822" />
  </sodipodi:namedview>
  <metadata
     id="metadata5">
    <rdf:RDF>
      <cc:Work
         rdf:about="">
        <dc:format>image/svg+xml</dc:format>
        <dc:type
           rdf:resource="http://purl.org/dc/dcmitype/StillImage" />
        <dc:title />
        <cc:license
           rdf:resource="" />
      </cc:Work>
    </rdf:RDF>
  </metadata>
  <g
     inkscape:label="Layer 1"
     inkscape:groupmode="layer"
     id="layer1"
     transform="translate(-179.27135,-141.84345)">
    <g
       id="g817"
       transform="matrix(0.93878631,0,0,0.93878631,13.549948,10.22929)">
      <path
         style="isolation:isolate;fill:#000000;stroke-width:0.93878627"
         d="M 49.884766 0.27539062 C 34.886727 0.27539062 22.888672 12.506314 22.888672 27.273438 L 22.888672 32.117188 L 9.7363281 32.117188 L 9.7363281 99.724609 L 31.220703 99.724609 L 90.263672 99.724609 L 90.263672 32.117188 L 76.880859 32.117188 L 76.880859 27.273438 C 76.880859 12.275364 64.651854 0.27539062 49.884766 0.27539062 z M 49.654297 14.582031 C 56.806908 14.582031 62.34375 20.350818 62.34375 27.273438 L 62.34375 32.117188 L 36.732422 32.117188 L 36.732422 27.273438 L 36.962891 27.273438 C 36.962891 20.119868 42.732636 14.582031 49.654297 14.582031 z M 29.080078 42.429688 L 32.802734 42.429688 L 32.828125 48.199219 C 34.077685 48.264143 35.371427 48.409485 36.708984 48.636719 C 38.064141 48.863952 39.445561 49.180164 40.853516 49.585938 L 40.853516 55.818359 C 39.762351 55.169121 38.548495 54.651262 37.210938 54.261719 C 35.87338 53.872176 34.404283 53.628636 32.802734 53.53125 L 32.802734 61.005859 C 36.269823 61.509019 38.882635 62.602996 40.642578 64.291016 C 42.420121 65.962804 43.308594 68.194603 43.308594 70.986328 C 43.308594 73.648205 42.349979 75.832859 40.431641 77.537109 C 38.530902 79.24136 35.996023 80.166421 32.828125 80.3125 L 32.802734 87.640625 L 29.080078 87.640625 L 29.052734 80.3125 C 27.521584 80.263807 25.919993 80.053 24.248047 79.679688 C 22.576101 79.306375 20.834226 78.770197 19.021484 78.072266 L 19.021484 71.693359 C 20.834226 72.683448 22.585845 73.4468 24.275391 73.982422 C 25.982536 74.518043 27.584126 74.792363 29.080078 74.808594 L 29.080078 66.798828 C 25.61299 66.165821 23.035249 65.07905 21.345703 63.537109 C 19.656157 61.978937 18.810547 59.925213 18.810547 57.376953 C 18.810547 54.666383 19.708764 52.507255 21.503906 50.900391 C 23.299049 49.293526 25.824183 48.39399 29.080078 48.199219 L 29.080078 42.429688 z M 29.080078 53.53125 C 27.988913 53.661098 27.160838 54.000882 26.597656 54.552734 C 26.052074 55.088356 25.779297 55.828136 25.779297 56.769531 C 25.779297 57.694696 26.052074 58.465255 26.597656 59.082031 C 27.160838 59.698808 27.988913 60.143996 29.080078 60.419922 L 29.080078 53.53125 z M 32.802734 67.457031 L 32.802734 74.808594 C 33.911499 74.662515 34.772692 74.273632 35.388672 73.640625 C 36.004652 72.991387 36.3125 72.171729 36.3125 71.181641 C 36.3125 70.175321 36.004652 69.355664 35.388672 68.722656 C 34.790291 68.073418 33.929098 67.651803 32.802734 67.457031 z M 47.005859 87.445312 L 79.554688 87.445312 L 79.554688 92.070312 L 47.005859 92.070312 L 47.005859 87.445312 z "
         transform="matrix(0.28183552,0,0,0.28183552,176.52729,140.19608)"
         id="path79" />
    </g>
  </g>
</svg>
