<?xml version="1.0" encoding="UTF-8" standalone="no"?>
<!-- Created with Inkscape (http://www.inkscape.org/) -->

<svg
   width="24"
   height="24"
   viewBox="0 0 24 24"
   version="1.1"
   id="svg8"
   inkscape:version="1.2 (dc2aedaf03, 2022-05-15)"
   sodipodi:docname="org.remmina.Remmina-tool-symbolic.svg"
   xmlns:inkscape="http://www.inkscape.org/namespaces/inkscape"
   xmlns:sodipodi="http://sodipodi.sourceforge.net/DTD/sodipodi-0.dtd"
   xmlns="http://www.w3.org/2000/svg"
   xmlns:svg="http://www.w3.org/2000/svg"
   xmlns:rdf="http://www.w3.org/1999/02/22-rdf-syntax-ns#"
   xmlns:cc="http://creativecommons.org/ns#"
   xmlns:dc="http://purl.org/dc/elements/1.1/">
  <defs
     id="defs2" />
  <sodipodi:namedview
     id="base"
     pagecolor="#ffffff"
     bordercolor="#666666"
     borderopacity="1.0"
     inkscape:pageopacity="0"
     inkscape:pageshadow="2"
     inkscape:zoom="16.789507"
     inkscape:cx="23.288356"
     inkscape:cy="20.876135"
     inkscape:document-units="px"
     inkscape:current-layer="layer1"
     inkscape:document-rotation="0"
     showgrid="false"
     borderlayer="true"
     inkscape:showpageshadow="true"
     units="px"
     inkscape:pagecheckerboard="false"
     showguides="true"
     inkscape:window-width="1920"
     inkscape:window-height="995"
     inkscape:window-x="1080"
     inkscape:window-y="427"
     inkscape:window-maximized="1"
     objecttolerance="10"
     guidetolerance="10"
     inkscape:snap-tangential="true"
     inkscape:snap-perpendicular="true"
     fit-margin-top="0"
     fit-margin-left="0"
     fit-margin-right="0"
     fit-margin-bottom="0"
     inkscape:deskcolor="#d1d1d1">
    <inkscape:grid
       type="xygrid"
       id="grid10"
       dotted="false"
       originx="-171.36869"
       originy="-105.18186" />
  </sodipodi:namedview>
  <metadata
     id="metadata5">
    <rdf:RDF>
      <cc:Work
         rdf:about="">
        <dc:format>image/svg+xml</dc:format>
        <dc:type
           rdf:resource="http://purl.org/dc/dcmitype/StillImage" />
        <cc:license
           rdf:resource="" />
      </cc:Work>
    </rdf:RDF>
  </metadata>
  <g
     inkscape:label="Layer 1"
     inkscape:groupmode="layer"
     id="layer1"
     transform="translate(-171.36866,-165.16877)">
    <path
       d="m 187.92458,165.16877 v 0.20535 l -7.92231,10.6258 c 0.2293,0.0655 0.45497,0.14268 0.67606,0.23147 -0.78468,-0.31266 -1.63838,-0.49451 -2.53674,-0.49451 -1.79575,0 -3.51692,0.70485 -4.78578,1.95455 -0.35794,0.35256 -0.67437,0.74332 -0.94373,1.1652 l 3.15125,3.09956 -2.1018,2.81919 c 0.50277,0.9546 1.29492,1.73163 2.26642,2.22354 l 2.8633,-2.06448 3.15416,3.10242 c 0.42818,-0.2659 0.82449,-0.57809 1.18172,-0.93087 1.27054,-1.24804 1.98546,-2.94122 1.98715,-4.70728 0,-0.86035 -0.18006,-1.67679 -0.482,-2.43174 0.0821,0.1961 0.15471,0.39575 0.21747,0.5985 l 10.80034,-7.99464 z m -12.17009,0.3326 -4.25646,4.1895 5.52629,5.43302 4.2567,-4.18665 z m 14.0397,13.80941 -4.25671,4.1895 5.52653,5.43587 4.2567,-4.18974 z m -17.2998,6.6616 -1.12573,1.62789 1.50491,1.48046 1.5346,-1.1075 c -0.76007,-0.49428 -1.41103,-1.13456 -1.91378,-1.88215 z"
       id="path32"
       inkscape:connector-curvature="0"
       style="isolation:isolate;fill:#171717;stroke-width:0.239377" />
  </g>
</svg>
