<?xml version="1.0" encoding="UTF-8" standalone="no"?>
<svg
   xmlns:dc="http://purl.org/dc/elements/1.1/"
   xmlns:cc="http://creativecommons.org/ns#"
   xmlns:rdf="http://www.w3.org/1999/02/22-rdf-syntax-ns#"
   xmlns:svg="http://www.w3.org/2000/svg"
   xmlns="http://www.w3.org/2000/svg"
   id="svg8"
   version="1.1"
   viewBox="0 0 21.863561 21.863569"
   height="82.633965"
   width="82.633926">
  <defs
     id="defs2" />
  <metadata
     id="metadata5">
    <rdf:RDF>
      <cc:Work
         rdf:about="">
        <dc:format>image/svg+xml</dc:format>
        <dc:type
           rdf:resource="http://purl.org/dc/dcmitype/StillImage" />
        <dc:title />
        <cc:license
           rdf:resource="" />
      </cc:Work>
    </rdf:RDF>
  </metadata>
  <g
     transform="translate(-186.7473,-190.75869)"
     id="layer1">
    <path
       style="isolation:isolate;fill:#171717;stroke-width:0.26458332"
       id="path17"
       d="m 188.20483,190.75869 c 0,0 -0.11113,0.006 -0.26459,0.0341 -0.29765,0.0442 -0.52281,0.15081 -0.68897,0.29607 -0.0323,0.0246 -0.0635,0.0513 -0.0939,0.0799 -0.0286,0.0304 -0.055,0.0616 -0.0796,0.0939 -0.14552,0.16616 -0.25214,0.39132 -0.29607,0.68897 -0.0283,0.15346 -0.0344,0.26459 -0.0344,0.26459 v 17.49081 c 0,1.45759 1.45759,1.45759 1.45759,1.45759 h 8.74554 v -2.91518 h -7.28795 v -10.20287 h 14.57563 v 2.91518 h 2.91518 v -8.74553 c 0,0 -0.006,-0.11113 -0.0341,-0.26459 -0.0452,-0.29765 -0.15028,-0.52281 -0.29607,-0.68897 -0.0249,-0.0323 -0.0521,-0.0635 -0.0796,-0.0939 -0.0307,-0.0286 -0.0619,-0.0553 -0.0939,-0.0799 -0.16642,-0.14526 -0.39158,-0.25189 -0.68897,-0.29607 -0.15452,-0.0281 -0.26485,-0.0341 -0.26485,-0.0341 z m 10.93179,11.66045 c 0,0 -0.0542,0.003 -0.13097,0.0172 -0.1487,0.022 -0.26141,0.0754 -0.34449,0.14817 -0.0161,0.0122 -0.0331,0.0254 -0.0484,0.0397 -0.0146,0.0154 -0.0275,0.0323 -0.0397,0.0484 -0.0728,0.0831 -0.12621,0.19552 -0.14817,0.34448 -0.0146,0.0767 -0.0169,0.13097 -0.0169,0.13097 v 8.74527 c 0,0.72893 0.72867,0.72893 0.72867,0.72893 h 8.74527 c 0,0 0.72893,0 0.72893,-0.72893 v -8.74527 c 0,0 -0.003,-0.0542 -0.0172,-0.13097 -0.0217,-0.14896 -0.0751,-0.26141 -0.14791,-0.34448 -0.0116,-0.0161 -0.0254,-0.0331 -0.04,-0.0484 -0.0145,-0.0143 -0.0323,-0.0275 -0.0484,-0.0397 -0.0831,-0.0728 -0.19579,-0.12621 -0.34448,-0.14817 -0.0773,-0.014 -0.13097,-0.0172 -0.13097,-0.0172 z m 0.72866,4.37277 h 7.28795 v 4.37277 h -7.28795 z" />
  </g>
</svg>
