<?xml version="1.0" encoding="UTF-8" standalone="no"?>
<!-- Created with Inkscape (http://www.inkscape.org/) -->

<svg
   xmlns:dc="http://purl.org/dc/elements/1.1/"
   xmlns:cc="http://creativecommons.org/ns#"
   xmlns:rdf="http://www.w3.org/1999/02/22-rdf-syntax-ns#"
   xmlns:svg="http://www.w3.org/2000/svg"
   xmlns="http://www.w3.org/2000/svg"
   xmlns:sodipodi="http://sodipodi.sourceforge.net/DTD/sodipodi-0.dtd"
   xmlns:inkscape="http://www.inkscape.org/namespaces/inkscape"
   width="100"
   height="100"
   viewBox="0 0 26.458334 26.458332"
   version="1.1"
   id="svg8"
   inkscape:version="0.92.2 2405546, 2018-03-11"
   sodipodi:docname="remmina-xdmcp-ssh-symbolic.svg">
  <defs
     id="defs2" />
  <sodipodi:namedview
     id="base"
     pagecolor="#ffffff"
     bordercolor="#666666"
     borderopacity="1.0"
     inkscape:pageopacity="0"
     inkscape:pageshadow="2"
     inkscape:zoom="4"
     inkscape:cx="25.558198"
     inkscape:cy="61.982189"
     inkscape:document-units="px"
     inkscape:current-layer="layer1"
     inkscape:document-rotation="0"
     showgrid="false"
     borderlayer="true"
     inkscape:showpageshadow="true"
     units="px"
     inkscape:pagecheckerboard="false"
     showguides="true"
     inkscape:window-width="1920"
     inkscape:window-height="1041"
     inkscape:window-x="1600"
     inkscape:window-y="18"
     inkscape:window-maximized="0"
     objecttolerance="10"
     guidetolerance="10"
     inkscape:snap-tangential="true"
     inkscape:snap-perpendicular="true"
     fit-margin-top="0"
     fit-margin-left="0"
     fit-margin-right="0"
     fit-margin-bottom="0">
    <inkscape:grid
       type="xygrid"
       id="grid10"
       dotted="false"
       originx="-179.27136"
       originy="-128.69822" />
  </sodipodi:namedview>
  <metadata
     id="metadata5">
    <rdf:RDF>
      <cc:Work
         rdf:about="">
        <dc:format>image/svg+xml</dc:format>
        <dc:type
           rdf:resource="http://purl.org/dc/dcmitype/StillImage" />
        <dc:title />
        <cc:license
           rdf:resource="" />
      </cc:Work>
    </rdf:RDF>
  </metadata>
  <g
     inkscape:label="Layer 1"
     inkscape:groupmode="layer"
     id="layer1"
     transform="translate(-179.27135,-141.84345)">
    <g
       id="g817"
       transform="matrix(0.93878631,0,0,0.93878631,13.549948,10.22929)">
      <path
         style="isolation:isolate;fill:#000000;stroke-width:0.93878627"
         d="M 49.884766 0.27539062 C 34.886727 0.27539062 22.888672 12.506314 22.888672 27.273438 L 22.888672 32.117188 L 9.7363281 32.117188 L 9.7363281 99.724609 L 31.220703 99.724609 L 90.263672 99.724609 L 90.263672 32.117188 L 76.880859 32.117188 L 76.880859 27.273438 C 76.880859 12.275364 64.651854 0.27539062 49.884766 0.27539062 z M 49.654297 14.582031 C 56.806908 14.582031 62.34375 20.350818 62.34375 27.273438 L 62.34375 32.117188 L 36.732422 32.117188 L 36.732422 27.273438 L 36.962891 27.273438 C 36.962891 20.119868 42.732636 14.582031 49.654297 14.582031 z M 19.505859 35.171875 L 35.611328 35.171875 L 49.972656 54.789062 L 64.388672 35.171875 L 80.494141 35.171875 L 58.105469 65.525391 L 81.126953 96.828125 L 65.023438 96.828125 L 49.972656 76.427734 L 34.976562 96.828125 L 18.873047 96.828125 L 42 65.525391 L 19.505859 35.171875 z "
         transform="matrix(0.28183552,0,0,0.28183552,176.52729,140.19608)"
         id="path79" />
    </g>
  </g>
</svg>
