<?xml version="1.0" encoding="UTF-8" standalone="no"?>
<!-- Created with Inkscape (http://www.inkscape.org/) -->

<svg
   xmlns:dc="http://purl.org/dc/elements/1.1/"
   xmlns:cc="http://creativecommons.org/ns#"
   xmlns:rdf="http://www.w3.org/1999/02/22-rdf-syntax-ns#"
   xmlns:svg="http://www.w3.org/2000/svg"
   xmlns="http://www.w3.org/2000/svg"
   xmlns:sodipodi="http://sodipodi.sourceforge.net/DTD/sodipodi-0.dtd"
   xmlns:inkscape="http://www.inkscape.org/namespaces/inkscape"
   width="100"
   height="100"
   viewBox="0 0 26.458335 26.458332"
   version="1.1"
   id="svg8"
   inkscape:version="0.92.3 (2405546, 2018-03-11)"
   sodipodi:docname="vnc protocol.svg">
  <defs
     id="defs2">
    <mask
       id="_mask_t2Us8opi94eYjaS69EfyEcHSNVQ03DDZ"
       x="-200%"
       y="-200%"
       width="400%"
       height="400%">
      <rect
         x="0"
         y="0"
         width="100%"
         height="100%"
         style="fill:#ffffff"
         id="rect40" />
      <path
         d="m 850.286,202.852 c 0,0 0.452,-0.025 1.077,-0.139 1.211,-0.179 2.128,-0.614 2.804,-1.205 0.13,-0.1 0.257,-0.208 0.382,-0.324 0.116,-0.125 0.224,-0.251 0.324,-0.382 0.592,-0.677 1.026,-1.593 1.205,-2.804 0.115,-0.625 0.139,-1.077 0.139,-1.077 V 125.75 c 0,-5.931 -5.931,-5.931 -5.931,-5.931 h -71.171 c 0,0 -5.931,0 -5.931,5.931 v 71.171 c 0,0 0.026,0.452 0.139,1.077 0.184,1.211 0.612,2.127 1.205,2.804 0.101,0.131 0.212,0.257 0.324,0.382 0.125,0.116 0.252,0.224 0.383,0.324 0.676,0.591 1.593,1.026 2.803,1.205 0.628,0.114 1.077,0.139 1.077,0.139 z m -5.931,-14.263 h -59.309 v -56.908 h 59.309 z"
         id="path42"
         inkscape:connector-curvature="0"
         style="fill:#000000;stroke:none" />
    </mask>
  </defs>
  <sodipodi:namedview
     id="base"
     pagecolor="#ffffff"
     bordercolor="#666666"
     borderopacity="1.0"
     inkscape:pageopacity="0"
     inkscape:pageshadow="2"
     inkscape:zoom="1.4839967"
     inkscape:cx="-65.390539"
     inkscape:cy="-17.020138"
     inkscape:document-units="px"
     inkscape:current-layer="g820"
     inkscape:document-rotation="0"
     showgrid="false"
     borderlayer="true"
     inkscape:showpageshadow="true"
     units="px"
     inkscape:pagecheckerboard="false"
     showguides="true"
     inkscape:window-width="1366"
     inkscape:window-height="715"
     inkscape:window-x="0"
     inkscape:window-y="0"
     inkscape:window-maximized="1"
     objecttolerance="10"
     guidetolerance="10"
     inkscape:snap-tangential="true"
     inkscape:snap-perpendicular="true"
     fit-margin-top="0"
     fit-margin-left="0"
     fit-margin-right="0"
     fit-margin-bottom="0">
    <inkscape:grid
       type="xygrid"
       id="grid10"
       dotted="false"
       originx="-146.65307"
       originy="-135.56714" />
  </sodipodi:namedview>
  <metadata
     id="metadata5">
    <rdf:RDF>
      <cc:Work
         rdf:about="">
        <dc:format>image/svg+xml</dc:format>
        <dc:type
           rdf:resource="http://purl.org/dc/dcmitype/StillImage" />
        <dc:title />
        <cc:license
           rdf:resource="" />
      </cc:Work>
    </rdf:RDF>
  </metadata>
  <g
     inkscape:label="Layer 1"
     inkscape:groupmode="layer"
     id="layer1"
     transform="translate(-146.65306,-134.97453)">
    <g
       id="g820"
       transform="matrix(1.0697634,0,0,1.0697634,-9.2735492,-11.925523)">
      <path
         inkscape:connector-curvature="0"
         id="path38"
         d="m 147.83075,137.94029 c 0,0 -1.17769,2e-5 -1.17769,1.17769 v 14.13263 c 0,0 0.005,0.09 0.0274,0.21405 0.0365,0.24056 0.12144,0.42255 0.23928,0.55686 0.02,0.0261 0.0421,0.051 0.0644,0.0757 0.0248,0.023 0.0503,0.0445 0.0761,0.0644 0.13431,0.11739 0.31608,0.20363 0.55643,0.23928 0.12474,0.0227 0.21405,0.0278 0.21405,0.0278 h 4.62807 v -2.83218 H 149.0084 V 140.2961 h 11.77727 v 4.05511 h 2.35536 v -5.23323 c 0,-1.17767 -1.17768,-1.17769 -1.17768,-1.17769 z m 12.95495,10.06883 v 3.58743 h -4.66941 v 2.83218 h 5.84709 c 0,0 0.09,-0.005 0.21405,-0.0278 0.24056,-0.0356 0.4221,-0.1219 0.55643,-0.23928 0.0258,-0.0199 0.0514,-0.0414 0.0761,-0.0644 0.023,-0.0247 0.0445,-0.0497 0.0644,-0.0757 0.11738,-0.13431 0.20386,-0.3163 0.23927,-0.55686 0.023,-0.12408 0.0274,-0.21405 0.0274,-0.21405 v -5.24149 z"
         style="isolation:isolate;fill:#171717;stroke-width:0.22274615" />
      <path
         style="isolation:isolate;fill:#171717;stroke-width:0.22274615"
         inkscape:connector-curvature="0"
         id="path38-5"
         d="m 168.41828,161.43286 c 0,0 0.0898,-0.005 0.21384,-0.0276 0.24056,-0.0356 0.42232,-0.12185 0.55664,-0.23923 0.0258,-0.0199 0.0513,-0.0414 0.0759,-0.0644 0.0229,-0.0248 0.0445,-0.0499 0.0644,-0.0759 0.11739,-0.13432 0.20381,-0.31608 0.23923,-0.55665 0.023,-0.12407 0.0276,-0.21405 0.0276,-0.21405 v -14.13259 c 0,-1.17766 -1.17767,-1.17766 -1.17767,-1.17766 h -14.13279 c 0,0 -1.17765,0 -1.17765,1.17766 v 14.13258 c 0,0 0.005,0.09 0.0276,0.21406 0.0365,0.24057 0.1214,0.42233 0.23924,0.55664 0.02,0.0261 0.0421,0.0512 0.0644,0.0759 0.0248,0.023 0.0501,0.0445 0.0759,0.0644 0.13432,0.11738 0.3163,0.20359 0.55664,0.23923 0.12474,0.0227 0.21384,0.0276 0.21384,0.0276 z m -1.17788,-2.83222 v -11.30036 h -11.77704 11.77704 z"
         sodipodi:nodetypes="cccccccsccsccccccccccccc" />
    </g>
  </g>
</svg>
