<?xml version="1.0" encoding="UTF-8" standalone="no"?>
<!-- Created with Inkscape (http://www.inkscape.org/) -->

<svg
   xmlns:dc="http://purl.org/dc/elements/1.1/"
   xmlns:cc="http://creativecommons.org/ns#"
   xmlns:rdf="http://www.w3.org/1999/02/22-rdf-syntax-ns#"
   xmlns:svg="http://www.w3.org/2000/svg"
   xmlns="http://www.w3.org/2000/svg"
   xmlns:sodipodi="http://sodipodi.sourceforge.net/DTD/sodipodi-0.dtd"
   xmlns:inkscape="http://www.inkscape.org/namespaces/inkscape"
   width="100"
   height="100"
   viewBox="0 0 26.458334 26.458333"
   version="1.1"
   id="svg8"
   inkscape:version="0.92.2 2405546, 2018-03-11"
   sodipodi:docname="remmina-spice-ssh-symbolic.svg">
  <defs
     id="defs2" />
  <sodipodi:namedview
     id="base"
     pagecolor="#ffffff"
     bordercolor="#666666"
     borderopacity="1.0"
     inkscape:pageopacity="0"
     inkscape:pageshadow="2"
     inkscape:zoom="4.0000001"
     inkscape:cx="-13.204075"
     inkscape:cy="42.75632"
     inkscape:document-units="px"
     inkscape:current-layer="g837"
     inkscape:document-rotation="0"
     showgrid="false"
     borderlayer="true"
     inkscape:showpageshadow="true"
     units="px"
     inkscape:pagecheckerboard="false"
     showguides="true"
     inkscape:window-width="1920"
     inkscape:window-height="1041"
     inkscape:window-x="1600"
     inkscape:window-y="18"
     inkscape:window-maximized="0"
     objecttolerance="10"
     guidetolerance="10"
     inkscape:snap-tangential="true"
     inkscape:snap-perpendicular="true"
     fit-margin-top="0"
     fit-margin-left="0"
     fit-margin-right="0"
     fit-margin-bottom="0">
    <inkscape:grid
       type="xygrid"
       id="grid10"
       dotted="false"
       originx="-223.14604"
       originy="-88.618291" />
  </sodipodi:namedview>
  <metadata
     id="metadata5">
    <rdf:RDF>
      <cc:Work
         rdf:about="">
        <dc:format>image/svg+xml</dc:format>
        <dc:type
           rdf:resource="http://purl.org/dc/dcmitype/StillImage" />
        <dc:title />
        <cc:license
           rdf:resource="" />
      </cc:Work>
    </rdf:RDF>
  </metadata>
  <g
     inkscape:label="Layer 1"
     inkscape:groupmode="layer"
     id="layer1"
     transform="translate(-223.14604,-181.92338)">
    <g
       id="g837"
       transform="matrix(0.83396843,0,0,0.83396843,39.920727,35.024416)">
      <g
         transform="matrix(1.1087066,0,0,1.1087066,45.9421,19.072628)"
         id="g817">
        <path
           style="isolation:isolate;fill:#000000;stroke-width:0.92462623"
           d="M 49.886719 1.0253906 C 35.114901 1.0253906 23.296875 13.070848 23.296875 27.615234 L 23.296875 32.388672 L 10.34375 32.388672 L 10.34375 98.974609 L 31.503906 98.974609 L 89.65625 98.974609 L 89.65625 32.388672 L 76.474609 32.388672 L 76.474609 27.615234 C 76.474609 12.843381 64.43107 1.0253906 49.886719 1.0253906 z M 49.658203 15.117188 C 56.702929 15.117188 62.158203 20.797031 62.158203 27.615234 L 62.158203 32.388672 L 37.228516 32.388672 L 37.160156 27.615234 C 37.160156 20.569565 42.840944 15.117187 49.658203 15.117188 z M 65.447266 49.119141 L 81.927734 84.054688 L 69.425781 84.054688 L 59.197266 62.371094 L 65.447266 49.119141 z M 50.216797 49.291016 L 66.697266 84.226562 L 53.324219 84.226562 L 43.53125 63.466797 L 50.216797 49.291016 z M 34.550781 49.304688 L 51.03125 84.240234 L 18.072266 84.240234 L 34.550781 49.304688 z "
           transform="matrix(0.28615164,0,0,0.28615164,156.72391,141.67128)"
           id="path79" />
      </g>
      <g
         style="fill:#ffffff"
         transform="matrix(0.65160764,0,0,0.79754876,80.032738,36.675708)"
         id="g822" />
    </g>
  </g>
</svg>
