<?xml version="1.0" encoding="UTF-8" standalone="no"?>
<svg
   xmlns:dc="http://purl.org/dc/elements/1.1/"
   xmlns:cc="http://creativecommons.org/ns#"
   xmlns:rdf="http://www.w3.org/1999/02/22-rdf-syntax-ns#"
   xmlns:svg="http://www.w3.org/2000/svg"
   xmlns="http://www.w3.org/2000/svg"
   id="svg8"
   version="1.1"
   viewBox="0 0 26.458334 26.458332"
   height="100"
   width="100">
  <defs
     id="defs2" />
  <metadata
     id="metadata5">
    <rdf:RDF>
      <cc:Work
         rdf:about="">
        <dc:format>image/svg+xml</dc:format>
        <dc:type
           rdf:resource="http://purl.org/dc/dcmitype/StillImage" />
        <dc:title />
        <cc:license
           rdf:resource="" />
      </cc:Work>
    </rdf:RDF>
  </metadata>
  <g
     transform="translate(-235.41273,-151.37414)"
     id="layer1">
    <path
       style="isolation:isolate;fill:#171717;stroke-width:0.26458332"
       id="path23"
       d="m 243.17914,172.33905 c 4.26932,4.26906 11.19082,4.26906 15.45987,0 4.26905,-4.26931 4.26905,-11.19081 0,-15.45987 -3.50573,-3.50572 -8.79501,-4.15025 -12.94051,-1.89785 l 2.38099,2.38098 c 2.79797,-1.08796 6.09203,-0.53366 8.35104,1.72535 3.04933,3.04932 3.04933,7.99333 0,11.04265 -3.04932,3.04932 -7.99332,3.04932 -11.04265,0 -1.52585,-1.52559 -2.25345,-3.52319 -2.24313,-5.52132 l 5.54937,-0.006 -6.6257,-6.6257 -6.62543,6.6257 h 4.53337 c 0.006,2.79929 1.06733,5.6007 3.19855,7.73192 z" />
  </g>
</svg>
