<?xml version="1.0" encoding="iso-8859-1"?>
<!-- Generator: Adobe Illustrator 15.1.0, SVG Export Plug-In . SVG Version: 6.00 Build 0)  -->
<!DOCTYPE svg PUBLIC "-//W3C//DTD SVG 1.1//EN" "http://www.w3.org/Graphics/SVG/1.1/DTD/svg11.dtd">
<svg version="1.1" id="Layer_1" xmlns="http://www.w3.org/2000/svg" xmlns:xlink="http://www.w3.org/1999/xlink" x="0px" y="0px"
	 width="128px" height="128px" viewBox="0 0 128 128" style="enable-background:new 0 0 128 128;" xml:space="preserve">
<g>
	<path style="fill:#8FC2E9;" d="M117.155,65.662l-54.45-54.45c0,0-23.638,33.461-3.353,57.804
		C79.542,93.248,117.155,65.662,117.155,65.662z"/>
	<path style="fill:#5892CD;" d="M117.155,65.662L84.901,30.829c0,0-35.802,33.697-18.954,46.333
		C76.734,85.254,117.155,65.662,117.155,65.662z"/>
	<path style="fill:none;stroke:#010101;stroke-width:4.2122;stroke-miterlimit:10;" d="M119.924,65.238L63.131,8.443
		c0,0-25.734,35.839-3.501,60.295C80.69,91.904,119.924,65.238,119.924,65.238z"/>
	
		<line style="fill:#FFFFFF;stroke:#010101;stroke-width:4.2122;stroke-miterlimit:10;" x1="97.537" y1="45.571" x2="118.089" y2="10.278"/>
	
		<line style="fill:#FFFFFF;stroke:#010101;stroke-width:4.2122;stroke-miterlimit:10;" x1="82.796" y1="30.829" x2="118.089" y2="10.278"/>
	<path style="fill:#010101;" d="M127.023,7.662c0,3.49-2.83,6.318-6.32,6.318c-3.485,0-6.315-2.828-6.315-6.318
		c0-3.489,2.83-6.318,6.315-6.318C124.193,1.344,127.023,4.173,127.023,7.662z"/>
	<g>
		<rect x="1" y="52" style="fill:#333333;" width="83" height="44"/>
		<polygon style="fill:#7D7D7D;" points="34.099,96 1,96 1,52 66.538,52 		"/>
	</g>
	<rect x="1" y="95" style="fill:#D8D9D8;" width="80" height="17"/>
	<line style="fill:#FFFFFF;stroke:#010101;stroke-width:4;stroke-miterlimit:10;" x1="21" y1="126" x2="63" y2="126"/>
	<rect x="2" y="51" style="fill:none;stroke:#010101;stroke-width:4;stroke-miterlimit:10;" width="81" height="62"/>
	<rect x="2" y="97" style="fill:none;stroke:#010101;stroke-width:4;stroke-miterlimit:10;" width="81" height="16"/>
	<rect x="42" y="112.455" style="fill:none;stroke:#010101;stroke-width:4;stroke-miterlimit:10;" width="0" height="14.201"/>
	<rect x="30" y="82" style="fill:#FFFFFF;" width="19" height="4"/>
	<polyline style="fill:none;stroke:#FFFFFF;stroke-width:4.0116;stroke-miterlimit:10;" points="11.691,62.521 23.278,74.109 
		11.691,85.699 	"/>
</g>
</svg>
