<?xml version="1.0" encoding="iso-8859-1"?>
<!-- Generator: Adobe Illustrator 15.1.0, SVG Export Plug-In . SVG Version: 6.00 Build 0)  -->
<!DOCTYPE svg PUBLIC "-//W3C//DTD SVG 1.1//EN" "http://www.w3.org/Graphics/SVG/1.1/DTD/svg11.dtd">
<svg version="1.1" id="Layer_1" xmlns="http://www.w3.org/2000/svg" xmlns:xlink="http://www.w3.org/1999/xlink" x="0px" y="0px"
	 width="128px" height="128px" viewBox="0 0 128 128" style="enable-background:new 0 0 128 128;" xml:space="preserve">
<g>
	<path style="fill:#8FC2E9;" d="M117.148,65.662l-54.44-54.439c0,0-23.633,33.455-3.353,57.793
		C79.541,93.243,117.148,65.662,117.148,65.662z"/>
	<path style="fill:#5892CD;" d="M117.148,65.662L84.901,30.836c0,0-35.796,33.691-18.951,46.325
		C76.736,85.251,117.148,65.662,117.148,65.662z"/>
	<path style="fill:none;stroke:#010101;stroke-width:4.2114;stroke-miterlimit:10;" d="M119.916,65.238L63.134,8.454
		c0,0-25.73,35.832-3.501,60.284C80.691,91.9,119.916,65.238,119.916,65.238z"/>
	
		<line style="fill:#FFFFFF;stroke:#010101;stroke-width:4.2114;stroke-miterlimit:10;" x1="97.536" y1="45.575" x2="118.084" y2="10.289"/>
	
		<line style="fill:#FFFFFF;stroke:#010101;stroke-width:4.2114;stroke-miterlimit:10;" x1="82.797" y1="30.836" x2="118.084" y2="10.289"/>
	<circle style="fill:#010101;" cx="120.698" cy="7.673" r="6.317"/>
	<rect x="1.676" y="52.031" style="fill:#F05225;" width="43.334" height="22.11"/>
	<rect x="1.676" y="74.141" style="fill:#33A0DA;" width="43.334" height="22.109"/>
	<rect x="45.01" y="52.031" style="fill:#7FBB42;" width="37.787" height="22.11"/>
	<rect x="45.01" y="74.141" style="fill:#FDB813;" width="37.787" height="22.109"/>
	<rect x="1" y="94" style="fill:#D8D9D8;" width="80" height="18"/>
	<line style="fill:#FFFFFF;stroke:#010101;stroke-width:4;stroke-miterlimit:10;" x1="22" y1="126" x2="63" y2="126"/>
	<rect x="2" y="51" style="fill:none;stroke:#010101;stroke-width:4;stroke-miterlimit:10;" width="81" height="62"/>
	<rect x="2" y="94" style="fill:none;stroke:#010101;stroke-width:4;stroke-miterlimit:10;" width="81" height="19"/>
	<rect x="41" y="112.447" style="fill:none;stroke:#010101;stroke-width:4;stroke-miterlimit:10;" width="0" height="14.197"/>
	<g>
		<rect x="10" y="60" style="fill:#FFFFFF;" width="3" height="29"/>
	</g>
</g>
</svg>
