<?xml version="1.0" encoding="UTF-8" standalone="no"?>
<svg
   xmlns:dc="http://purl.org/dc/elements/1.1/"
   xmlns:cc="http://creativecommons.org/ns#"
   xmlns:rdf="http://www.w3.org/1999/02/22-rdf-syntax-ns#"
   xmlns:svg="http://www.w3.org/2000/svg"
   xmlns="http://www.w3.org/2000/svg"
   id="svg4"
   version="1.1"
   viewBox="0 0 24 24"
   height="24"
   width="24">
  <metadata
     id="metadata10">
    <rdf:RDF>
      <cc:Work
         rdf:about="">
        <dc:format>image/svg+xml</dc:format>
        <dc:type
           rdf:resource="http://purl.org/dc/dcmitype/StillImage" />
      </cc:Work>
    </rdf:RDF>
  </metadata>
  <defs
     id="defs8" />
  <path
     id="path2"
     d="M0 5v14h24v-14h-24zm16 3h2v2h-2v-2zm-3 0h2v2h-2v-2zm3 3v2h-2v-2h2zm-6-3h2v2h-2v-2zm3 3v2h-2v-2h2zm-6-3h2v2h-2v-2zm3 3v2h-2v-2h2zm-7-3h3v2h-3v-2zm0 3h4v2h-4v-2zm14 5h-10v-2h10v2zm4-3h-4v-2h4v2zm0-3h-2v-2h2v2z" />
</svg>
