<?xml version="1.0" encoding="iso-8859-1"?>
<!-- Generator: Adobe Illustrator 15.1.0, SVG Export Plug-In . SVG Version: 6.00 Build 0)  -->
<!DOCTYPE svg PUBLIC "-//W3C//DTD SVG 1.1//EN" "http://www.w3.org/Graphics/SVG/1.1/DTD/svg11.dtd">
<svg version="1.1" id="Layer_1" xmlns="http://www.w3.org/2000/svg" xmlns:xlink="http://www.w3.org/1999/xlink" x="0px" y="0px"
	 width="128px" height="128px" viewBox="0 0 128 128" style="enable-background:new 0 0 128 128;" xml:space="preserve">
<g>
	<path style="fill:#8FC2E9;" d="M115.078,68.168c0,30.512-24.739,55.248-55.249,55.248c-30.511,0-55.245-24.736-55.245-55.248
		c0-30.51,24.734-55.245,55.245-55.245C90.339,12.923,115.078,37.658,115.078,68.168z"/>
	<path style="fill:#5892CD;" d="M92.141,60.871c0,24.182-19.599,43.783-43.774,43.783c-24.181,0-43.782-19.602-43.782-43.783
		c0-24.18,19.602-43.777,43.782-43.777C72.542,17.094,92.141,36.691,92.141,60.871z"/>
	<path style="fill:none;stroke:#050708;stroke-width:3.9047;stroke-miterlimit:10;" d="M115.078,69.212
		c0,31.089-25.206,56.288-56.29,56.288C27.697,125.5,2.5,100.301,2.5,69.212c0-31.084,25.197-56.289,56.288-56.289
		C89.872,12.923,115.078,38.128,115.078,69.212z"/>
	<circle style="fill:#8FC2E9;" cx="76.508" cy="51.492" r="48.992"/>
	<path style="fill:#5892CD;" d="M121.329,52.533c0,19.574-15.863,35.443-35.439,35.443c-19.574,0-35.438-15.869-35.438-35.443
		c0-19.57,15.863-35.439,35.438-35.439C105.466,17.094,121.329,32.963,121.329,52.533z"/>
	<circle style="fill:none;stroke:#050708;stroke-width:3.9047;stroke-miterlimit:10;" cx="76.508" cy="51.492" r="48.992"/>
	<path style="fill:none;stroke:#FFFFFF;stroke-width:3.9047;stroke-linecap:round;stroke-linejoin:round;stroke-miterlimit:10;" d="
		M58.327,65.802c-10.141-12.125-8.536-30.186,3.589-40.327c12.132-10.149,30.186-8.535,40.336,3.587"/>
</g>
</svg>
