<?xml version="1.0" encoding="iso-8859-1"?>
<!-- Generator: Adobe Illustrator 15.1.0, SVG Export Plug-In . SVG Version: 6.00 Build 0)  -->
<!DOCTYPE svg PUBLIC "-//W3C//DTD SVG 1.1//EN" "http://www.w3.org/Graphics/SVG/1.1/DTD/svg11.dtd">
<svg version="1.1" id="Layer_1" xmlns="http://www.w3.org/2000/svg" xmlns:xlink="http://www.w3.org/1999/xlink" x="0px" y="0px"
	 width="128px" height="128px" viewBox="0 0 128 128" style="enable-background:new 0 0 128 128;" xml:space="preserve">
<g>
	<g>
		<g>
			<rect x="96" style="fill:#FFFFFF;" width="7" height="32"/>
		</g>
	</g>
	<g>
		<rect x="39" y="28" style="fill:#5892CD;" width="89" height="61"/>
	</g>
	<g>
		<rect x="39" style="fill:#D8D9D8;" width="89" height="27"/>
	</g>
	<g>
		<polygon style="fill:#8FC2E9;" points="46.974,89 39,89 39,28 107.142,28 		"/>
	</g>
	<g>
		<path style="fill:#010101;" d="M128,89H39V0h89V89z M43,84h81V4H43V84z"/>
	</g>
	<g>
		<path style="fill:#010101;" d="M128,89H39V25h89V89z M43,84h81V29H43V84z"/>
	</g>
	<g>
		<g>
			<rect x="59" y="41" style="fill:#FFFFFF;" width="6" height="32"/>
		</g>
	</g>
	<g>
		<rect y="68" style="fill:#5892CD;" width="91" height="60"/>
	</g>
	<g>
		<rect y="41" style="fill:#D8D9D8;" width="91" height="24"/>
	</g>
	<g>
		<polygon style="fill:#8FC2E9;" points="8.438,128 0,128 0,68 68.608,68 		"/>
	</g>
	<g>
		<path style="fill:#010101;" d="M91,128H0V41h91V128z M4,124h83V45H4V124z"/>
	</g>
	<g>
		<path style="fill:#010101;" d="M91,128H0V65h91V128z M4,124h83V69H4V124z"/>
	</g>
	<g>
		<rect x="12" y="76" style="fill:#FFFFFF;" width="4" height="40"/>
	</g>
	<g>
		<g>
			<path style="fill:#010101;" d="M22.636,0C28.043,0,36,0,36,0v4c0,0-7.957,0-10.66,0C21.282,4,20,6,20,10c0,2.668,0,21,0,21h-4
				c0,0,0-17.667,0-23C16,4,19.255,0,22.636,0z"/>
		</g>
	</g>
	<polygon style="fill:#010101;" points="31.423,21 17.228,35 3.03,21 	"/>
	<g>
		<g>
			<path style="fill:#010101;" d="M108.816,128C103.41,128,95,128,95,128v-4c0,0,7.41,0,10.114,0c4.057,0,5.886-2.668,5.886-6.668
				c0-2.669,0-20.332,0-20.332h4c0,0,0,16.999,0,22.332C115,123.332,112.198,128,108.816,128z"/>
		</g>
	</g>
	<polygon style="fill:#010101;" points="98.354,107 112.551,93 126.749,107 	"/>
	<g>
		<line style="fill:#FFFFFF;" x1="11" y1="55" x2="17" y2="55"/>
		<rect x="11" y="52" style="fill:#010101;" width="7" height="7"/>
	</g>
	<g>
		<line style="fill:#FFFFFF;" x1="25" y1="55" x2="32" y2="55"/>
		<rect x="25" y="52" style="fill:#010101;" width="7" height="7"/>
	</g>
	<g>
		<line style="fill:#FFFFFF;" x1="39" y1="55" x2="47" y2="55"/>
		<rect x="39" y="52" style="fill:#010101;" width="7" height="7"/>
	</g>
	<g>
		<line style="fill:#FFFFFF;" x1="50" y1="14" x2="56" y2="14"/>
		<rect x="50" y="11" style="fill:#010101;" width="7" height="7"/>
	</g>
	<g>
		<line style="fill:#FFFFFF;" x1="64" y1="14" x2="71" y2="14"/>
		<rect x="64" y="11" style="fill:#010101;" width="7" height="7"/>
	</g>
	<g>
		<line style="fill:#FFFFFF;" x1="78" y1="14" x2="86" y2="14"/>
		<rect x="78" y="11" style="fill:#010101;" width="7" height="7"/>
	</g>
</g>
</svg>
