<?xml version="1.0" encoding="iso-8859-1"?>
<!-- Generator: Adobe Illustrator 15.1.0, SVG Export Plug-In . SVG Version: 6.00 Build 0)  -->
<!DOCTYPE svg PUBLIC "-//W3C//DTD SVG 1.1//EN" "http://www.w3.org/Graphics/SVG/1.1/DTD/svg11.dtd">
<svg version="1.1" id="Layer_1" xmlns="http://www.w3.org/2000/svg" xmlns:xlink="http://www.w3.org/1999/xlink" x="0px" y="0px"
	 width="128px" height="128px" viewBox="0 0 128 128" style="enable-background:new 0 0 128 128;" xml:space="preserve">
<g>
	<g>
		<rect x="19" y="41" style="fill:#5892CD;" width="90" height="68"/>
	</g>
	<g>
		<rect x="21" y="21" style="fill:#D8D9D8;" width="86" height="23"/>
	</g>
	<g>
		<polygon style="fill:#8FC2E9;" points="35.842,109 19,109 19,44 100.204,44 		"/>
	</g>
	<g>
		<path style="fill:#010101;" d="M109,109H19V19h90V109z M23,105h82V23H23V105z"/>
	</g>
	<g>
		<path style="fill:#010101;" d="M109,109H19V43h90V109z M23,105h82V47H23V105z"/>
	</g>
	<g>
		<rect x="33" y="57" style="fill:#FFFFFF;" width="4" height="38"/>
	</g>
	<g>
		<polygon style="fill:#010101;" points="76.067,116 64,128.068 51.933,116 		"/>
	</g>
	<g>
		<polygon style="fill:#010101;" points="51.933,12 64,-0.068 76.067,12 		"/>
	</g>
	<g>
		<polygon style="fill:#010101;" points="12,76.068 -0.067,64 12,51.932 		"/>
	</g>
	<g>
		<polygon style="fill:#010101;" points="116,51.932 128.067,64 116,76.068 		"/>
	</g>
</g>
</svg>
