<?xml version="1.0" encoding="iso-8859-1"?>
<!-- Generator: Adobe Illustrator 15.1.0, SVG Export Plug-In . SVG Version: 6.00 Build 0)  -->
<!DOCTYPE svg PUBLIC "-//W3C//DTD SVG 1.1//EN" "http://www.w3.org/Graphics/SVG/1.1/DTD/svg11.dtd">
<svg version="1.1" id="Layer_1" xmlns="http://www.w3.org/2000/svg" xmlns:xlink="http://www.w3.org/1999/xlink" x="0px" y="0px"
	 width="128px" height="128px" viewBox="0 0 128 128" style="enable-background:new 0 0 128 128;" xml:space="preserve">
<g>
	<rect x="4" y="3" style="fill:#D8D9D8;" width="88" height="28"/>
	<polygon style="fill:#5892CD;" points="82.688,87 51.753,87 49.783,96 1,96 1,31 91,31 91,48 81.938,48 	"/>
	<polygon style="fill:#8FC2E9;" points="11.846,96 1,96 1,31 77.268,31 	"/>
	<polyline style="fill:none;stroke:#010101;stroke-width:4;stroke-miterlimit:10;" points="53,94 2,94 2,2 92,2 92,49 	"/>
	<polyline style="fill:none;stroke:#010101;stroke-width:4;stroke-miterlimit:10;" points="40,94 2,94 2,30 92,30 92,39 	"/>
	<line style="fill:none;stroke:#FFFFFF;stroke-width:4;stroke-miterlimit:10;" x1="13" y1="39" x2="13" y2="87"/>
	<line style="fill:#FFFFFF;stroke:#010101;stroke-width:9;stroke-miterlimit:10;" x1="12" y1="15.5" x2="20" y2="15.5"/>
	<line style="fill:#FFFFFF;stroke:#010101;stroke-width:9;stroke-miterlimit:10;" x1="26" y1="15.5" x2="35" y2="15.5"/>
	<line style="fill:#FFFFFF;stroke:#010101;stroke-width:9;stroke-miterlimit:10;" x1="40" y1="15.5" x2="48" y2="15.5"/>
	<path style="fill:none;stroke:#010101;stroke-width:4.025;stroke-miterlimit:10;" d="M112.034,78.732
		c0,17.159-13.916,31.076-31.073,31.076c-17.163,0-31.079-13.917-31.079-31.076c0-17.16,13.916-31.079,31.079-31.079
		C98.118,47.653,112.034,61.572,112.034,78.732z"/>
	
		<line style="fill:#FFFFFF;stroke:#010101;stroke-width:4.025;stroke-miterlimit:10;" x1="102.913" y1="101.969" x2="127.063" y2="126.119"/>
	<path style="fill:none;stroke:#010101;stroke-width:4;stroke-miterlimit:10;" d="M50,87h32V76.705V47.996
		c0-0.2-1.329-0.283-2.815-0.283"/>
</g>
</svg>
