<?xml version="1.0" encoding="iso-8859-1"?>
<!-- Generator: Adobe Illustrator 15.1.0, SVG Export Plug-In . SVG Version: 6.00 Build 0)  -->
<!DOCTYPE svg PUBLIC "-//W3C//DTD SVG 1.1//EN" "http://www.w3.org/Graphics/SVG/1.1/DTD/svg11.dtd">
<svg version="1.1" id="Layer_1" xmlns="http://www.w3.org/2000/svg" xmlns:xlink="http://www.w3.org/1999/xlink" x="0px" y="0px"
	 width="128px" height="128px" viewBox="0 0 128 128" style="enable-background:new 0 0 128 128;" xml:space="preserve">
<g>
	<rect x="17" y="43" style="fill:#5892CD;" width="92" height="68"/>
</g>
<g>
	<rect x="20" y="20" style="fill:#D8D9D8;" width="88" height="24"/>
</g>
<g>
	<polygon style="fill:#8FC2E9;" points="28.375,111 17,111 17,43 100.372,43 	"/>
</g>
<g>
	<polygon style="fill:#010101;" points="4,39 0,39 0,0 37,0 37,4 4,4 	"/>
</g>
<g>
	<polygon style="fill:#010101;" points="128,39 124,39 124,4 89,4 89,0 128,0 	"/>
</g>
<g>
	<polygon style="fill:#010101;" points="128,128 89,128 89,124 124,124 124,91 128,91 	"/>
</g>
<g>
	<polygon style="fill:#010101;" points="37,128 0,128 0,91 4,91 4,124 37,124 	"/>
</g>
<g>
	<path style="fill:#010101;" d="M109,111H17V19h92V111z M21,107h84V23H21V107z"/>
</g>
<g>
	<path style="fill:#010101;" d="M109,111H17V43h92V111z M21,107h84V47H21V107z"/>
</g>
<g>
	<rect x="25" y="51" style="fill:#FFFFFF;" width="4" height="52"/>
</g>
<g>
	<line style="fill:#FFFFFF;" x1="28" y1="32" x2="36" y2="32"/>
	<rect x="28" y="28" style="fill:#010101;" width="8" height="8"/>
</g>
<g>
	<line style="fill:#FFFFFF;" x1="40" y1="32" x2="48" y2="32"/>
	<rect x="40" y="28" style="fill:#010101;" width="8" height="8"/>
</g>
<g>
	<line style="fill:#FFFFFF;" x1="52" y1="32" x2="60" y2="32"/>
	<rect x="52" y="28" style="fill:#010101;" width="8" height="8"/>
</g>
</svg>
