<?xml version="1.0" encoding="iso-8859-1"?>
<!-- Generator: Adobe Illustrator 15.1.0, SVG Export Plug-In . SVG Version: 6.00 Build 0)  -->
<!DOCTYPE svg PUBLIC "-//W3C//DTD SVG 1.1//EN" "http://www.w3.org/Graphics/SVG/1.1/DTD/svg11.dtd">
<svg version="1.1" id="Layer_1" xmlns="http://www.w3.org/2000/svg" xmlns:xlink="http://www.w3.org/1999/xlink" x="0px" y="0px"
	 width="128px" height="128px" viewBox="0 0 128 128" style="enable-background:new 0 0 128 128;" xml:space="preserve">
<g>
	<path style="fill:#8FC2E9;" d="M124.85,47.214L83.179,3.528c-1.583-1.664-4.223-1.725-5.882-0.137l-6.03,5.742
		c-1.659,1.592-1.726,4.226-0.137,5.889l5.745,6.026L51.264,45.478l-22.039-1.998L23.2,49.227l54.598,57.248l6.03-5.746
		l-2.39-23.619l25.61-24.423l5.744,6.022c1.593,1.667,4.224,1.728,5.892,0.144l6.028-5.751
		C126.374,51.513,126.435,48.878,124.85,47.214z"/>
	<path style="fill:#5892CD;" d="M124.85,47.214l-16.674-17.218c0,0-16.656,16.656-52.047,54.129l21.669,22.35l6.03-5.746
		l-2.39-23.619l25.61-24.423l5.744,6.022c1.593,1.667,4.224,1.728,5.892,0.144l6.028-5.751
		C126.374,51.513,126.435,48.878,124.85,47.214z"/>
	<path style="fill:none;stroke:#050708;stroke-width:4;stroke-miterlimit:10;" d="M118.685,58.853
		c-1.668,1.584-4.299,1.523-5.892-0.144L71.13,15.022c-1.589-1.663-1.522-4.297,0.137-5.889l6.03-5.742
		c1.659-1.588,4.299-1.527,5.882,0.137l41.671,43.686c1.585,1.664,1.524,4.299-0.137,5.888L118.685,58.853z"/>
	<line style="fill:none;stroke:#050708;stroke-width:4;stroke-miterlimit:10;" x1="51.264" y1="45.478" x2="76.875" y2="21.049"/>
	<line style="fill:none;stroke:#050708;stroke-width:4;stroke-miterlimit:10;" x1="107.049" y1="52.687" x2="81.438" y2="77.109"/>
	<polyline style="fill:#D8D9D8;" points="43.635,71.634 2,125.761 56.129,86.206 	"/>
	<polygon style="fill:none;stroke:#050708;stroke-width:4;stroke-miterlimit:10;" points="83.828,100.729 81.438,77.109 
		51.264,45.478 29.225,43.479 23.2,49.227 77.798,106.475 	"/>
	<polyline style="fill:none;stroke:#050708;stroke-width:4;stroke-linejoin:bevel;stroke-miterlimit:10;" points="43.635,71.634 
		2,125.761 56.129,86.206 	"/>
	<line style="fill:none;stroke:#FFFFFF;stroke-width:4;stroke-miterlimit:10;" x1="66.536" y1="50.815" x2="81.111" y2="36.24"/>
</g>
</svg>
