<?xml version="1.0" encoding="iso-8859-1"?>
<!-- Generator: Adobe Illustrator 15.1.0, SVG Export Plug-In . SVG Version: 6.00 Build 0)  -->
<!DOCTYPE svg PUBLIC "-//W3C//DTD SVG 1.1//EN" "http://www.w3.org/Graphics/SVG/1.1/DTD/svg11.dtd">
<svg version="1.1" id="Layer_1" xmlns="http://www.w3.org/2000/svg" xmlns:xlink="http://www.w3.org/1999/xlink" x="0px" y="0px"
	 width="128px" height="128px" viewBox="0 0 128 128" style="enable-background:new 0 0 128 128;" xml:space="preserve">
<g>
	<g>
		<g>
			<g>
				<path style="fill:#010101;" d="M109,128c-4,0-46,0-46,0v-4c18.788,0,32.958,0,45,0c4,0,6-1.333,6-5.333c0-3,0-29.667,0-29.667h4
					c0,0,0,25.667,0,29.667C118,124.667,115,128,109,128z"/>
			</g>
		</g>
		<polygon style="fill:#010101;" points="106,89 116,79 126,89 		"/>
	</g>
	<rect x="42" y="110" style="fill:none;stroke:#010101;stroke-width:4;stroke-miterlimit:10;" width="0" height="14"/>
	<line style="fill:#FFFFFF;stroke:#010101;stroke-width:4;stroke-miterlimit:10;" x1="64" y1="78" x2="103" y2="78"/>
	<rect x="41" style="fill:#5892CD;" width="87" height="49"/>
	<rect x="39" y="49" style="fill:#D8D9D8;" width="89" height="16"/>
	<polygon style="fill:#8FC2E9;" points="76.108,49 41,49 41,0 109.909,0 	"/>
	<rect x="42" y="2" style="fill:none;stroke:#010101;stroke-width:4;stroke-miterlimit:10;" width="84" height="63"/>
	<rect x="42" y="49" style="fill:none;stroke:#010101;stroke-width:4;stroke-miterlimit:10;" width="84" height="16"/>
	<line style="fill:#FFFFFF;stroke:#010101;stroke-width:4;stroke-miterlimit:10;" x1="23" y1="126" x2="71" y2="126"/>
	<rect y="48" style="fill:#5892CD;" width="91" height="49"/>
	<rect y="97" style="fill:#D8D9D8;" width="91" height="16"/>
	<polygon style="fill:#8FC2E9;" points="35.969,97 0,97 0,48 71.933,48 	"/>
	<rect x="2" y="49" style="fill:none;stroke:#010101;stroke-width:4;stroke-miterlimit:10;" width="88" height="64"/>
	<rect x="2" y="97" style="fill:none;stroke:#010101;stroke-width:4;stroke-miterlimit:10;" width="88" height="16"/>
	<g>
		<rect x="49" y="11" style="fill:#FFFFFF;" width="4" height="30"/>
	</g>
	<line style="fill:none;stroke:#030405;stroke-width:4;stroke-miterlimit:10;" x1="12" y1="58" x2="40" y2="86"/>
	<line style="fill:none;stroke:#030405;stroke-width:4;stroke-miterlimit:10;" x1="40" y1="58" x2="12" y2="86"/>
</g>
</svg>
