<?xml version="1.0" encoding="UTF-8" standalone="no"?>
<svg
   xmlns:dc="http://purl.org/dc/elements/1.1/"
   xmlns:cc="http://creativecommons.org/ns#"
   xmlns:rdf="http://www.w3.org/1999/02/22-rdf-syntax-ns#"
   xmlns:svg="http://www.w3.org/2000/svg"
   xmlns="http://www.w3.org/2000/svg"
   id="svg8"
   version="1.1"
   viewBox="0 0 26.458335 26.458332"
   height="100"
   width="100">
  <defs
     id="defs2">
    <mask
       height="400%"
       width="400%"
       y="-200%"
       x="-200%"
       id="_mask_t2Us8opi94eYjaS69EfyEcHSNVQ03DDZ">
      <rect
         id="rect40"
         style="fill:#ffffff"
         height="100%"
         width="100%"
         y="0"
         x="0" />
      <path
         style="fill:#000000;stroke:none"
         id="path42"
         d="m 850.286,202.852 c 0,0 0.452,-0.025 1.077,-0.139 1.211,-0.179 2.128,-0.614 2.804,-1.205 0.13,-0.1 0.257,-0.208 0.382,-0.324 0.116,-0.125 0.224,-0.251 0.324,-0.382 0.592,-0.677 1.026,-1.593 1.205,-2.804 0.115,-0.625 0.139,-1.077 0.139,-1.077 V 125.75 c 0,-5.931 -5.931,-5.931 -5.931,-5.931 h -71.171 c 0,0 -5.931,0 -5.931,5.931 v 71.171 c 0,0 0.026,0.452 0.139,1.077 0.184,1.211 0.612,2.127 1.205,2.804 0.101,0.131 0.212,0.257 0.324,0.382 0.125,0.116 0.252,0.224 0.383,0.324 0.676,0.591 1.593,1.026 2.803,1.205 0.628,0.114 1.077,0.139 1.077,0.139 z m -5.931,-14.263 h -59.309 v -56.908 h 59.309 z" />
    </mask>
  </defs>
  <metadata
     id="metadata5">
    <rdf:RDF>
      <cc:Work
         rdf:about="">
        <dc:format>image/svg+xml</dc:format>
        <dc:type
           rdf:resource="http://purl.org/dc/dcmitype/StillImage" />
        <dc:title />
        <cc:license
           rdf:resource="" />
      </cc:Work>
    </rdf:RDF>
  </metadata>
  <g
     transform="translate(-146.65306,-134.97453)"
     id="layer1">
    <g
       transform="matrix(1.0697634,0,0,1.0697634,-9.2735492,-11.925523)"
       id="g820">
      <path
         style="isolation:isolate;fill:#171717;stroke-width:0.22274615"
         d="m 147.83075,137.94029 c 0,0 -1.17769,2e-5 -1.17769,1.17769 v 14.13263 c 0,0 0.005,0.09 0.0274,0.21405 0.0365,0.24056 0.12144,0.42255 0.23928,0.55686 0.02,0.0261 0.0421,0.051 0.0644,0.0757 0.0248,0.023 0.0503,0.0445 0.0761,0.0644 0.13431,0.11739 0.31608,0.20363 0.55643,0.23928 0.12474,0.0227 0.21405,0.0278 0.21405,0.0278 h 4.62807 v -2.83218 H 149.0084 V 140.2961 h 11.77727 v 4.05511 h 2.35536 v -5.23323 c 0,-1.17767 -1.17768,-1.17769 -1.17768,-1.17769 z m 12.95495,10.06883 v 3.58743 h -4.66941 v 2.83218 h 5.84709 c 0,0 0.09,-0.005 0.21405,-0.0278 0.24056,-0.0356 0.4221,-0.1219 0.55643,-0.23928 0.0258,-0.0199 0.0514,-0.0414 0.0761,-0.0644 0.023,-0.0247 0.0445,-0.0497 0.0644,-0.0757 0.11738,-0.13431 0.20386,-0.3163 0.23927,-0.55686 0.023,-0.12408 0.0274,-0.21405 0.0274,-0.21405 v -5.24149 z"
         id="path38" />
      <path
         d="m 168.41828,161.43286 c 0,0 0.0898,-0.005 0.21384,-0.0276 0.24056,-0.0356 0.42232,-0.12185 0.55664,-0.23923 0.0258,-0.0199 0.0513,-0.0414 0.0759,-0.0644 0.0229,-0.0248 0.0445,-0.0499 0.0644,-0.0759 0.11739,-0.13432 0.20381,-0.31608 0.23923,-0.55665 0.023,-0.12407 0.0276,-0.21405 0.0276,-0.21405 v -14.13259 c 0,-1.17766 -1.17767,-1.17766 -1.17767,-1.17766 h -14.13279 c 0,0 -1.17765,0 -1.17765,1.17766 v 14.13258 c 0,0 0.005,0.09 0.0276,0.21406 0.0365,0.24057 0.1214,0.42233 0.23924,0.55664 0.02,0.0261 0.0421,0.0512 0.0644,0.0759 0.0248,0.023 0.0501,0.0445 0.0759,0.0644 0.13432,0.11738 0.3163,0.20359 0.55664,0.23923 0.12474,0.0227 0.21384,0.0276 0.21384,0.0276 z m -1.17788,-2.83222 v -11.30036 h -11.77704 11.77704 z"
         id="path38-5"
         style="isolation:isolate;fill:#171717;stroke-width:0.22274615" />
    </g>
  </g>
</svg>
