<?xml version="1.0" encoding="UTF-8" standalone="no"?>
<svg
   xmlns:dc="http://purl.org/dc/elements/1.1/"
   xmlns:cc="http://creativecommons.org/ns#"
   xmlns:rdf="http://www.w3.org/1999/02/22-rdf-syntax-ns#"
   xmlns:svg="http://www.w3.org/2000/svg"
   xmlns="http://www.w3.org/2000/svg"
   id="svg8"
   version="1.1"
   viewBox="0 0 21.870731 18.74617"
   height="70.851669"
   width="82.661026">
  <defs
     id="defs2" />
  <metadata
     id="metadata5">
    <rdf:RDF>
      <cc:Work
         rdf:about="">
        <dc:format>image/svg+xml</dc:format>
        <dc:type
           rdf:resource="http://purl.org/dc/dcmitype/StillImage" />
        <dc:title />
        <cc:license
           rdf:resource="" />
      </cc:Work>
    </rdf:RDF>
  </metadata>
  <g
     transform="translate(-212.96639,-204.92443)"
     id="layer1">
    <path
       style="isolation:isolate;fill:#171717;stroke-width:0.26458332"
       id="path21"
       d="m 214.52876,204.92443 c -1.56237,0 -1.56237,1.56237 -1.56237,1.56237 v 6.24866 h 3.12447 v -4.68656 h 4.68656 v -3.12447 z m 12.49733,0 v 3.12447 h 4.68656 v 4.68656 h 3.12447 v -6.24866 c 0,-1.56237 -1.5621,-1.56237 -1.5621,-1.56237 z m -3.13955,1.55628 -3.12446,6.24866 h 6.24893 c 0,0.0561 -3.12447,-6.24866 -3.12447,-6.24866 z m -3.12446,9.37286 3.12446,6.24893 3.12447,-6.24893 z m -7.79569,0.006 v 6.24893 c 0,1.5621 1.56237,1.5621 1.56237,1.5621 h 6.24866 v -3.12447 h -4.68656 v -4.68656 z m 18.74626,0 v 4.68656 h -4.68656 v 3.12447 h 6.24893 c 0,0 1.5621,0 1.5621,-1.5621 v -6.24893 z" />
  </g>
</svg>
