<?xml version="1.0" encoding="UTF-8" standalone="no"?>
<svg
   xmlns:dc="http://purl.org/dc/elements/1.1/"
   xmlns:cc="http://creativecommons.org/ns#"
   xmlns:rdf="http://www.w3.org/1999/02/22-rdf-syntax-ns#"
   xmlns:svg="http://www.w3.org/2000/svg"
   xmlns="http://www.w3.org/2000/svg"
   id="svg4"
   version="1.1"
   viewBox="0 0 24 24"
   height="24"
   width="24">
  <metadata
     id="metadata10">
    <rdf:RDF>
      <cc:Work
         rdf:about="">
        <dc:format>image/svg+xml</dc:format>
        <dc:type
           rdf:resource="http://purl.org/dc/dcmitype/StillImage" />
      </cc:Work>
    </rdf:RDF>
  </metadata>
  <defs
     id="defs8" />
  <path
     id="path2"
     d="M8 17h2v5l-2 2v-7zm4.462-6.412c.246.625.437 1.39.506 2.412h-7.936c.297-4.36 2.757-4.163 2.757-7.65 0-1.605-.522-2.35-1.272-3.35h4.512c.518-.807 1.207-1.489 2.019-2h-9.048c0 3.656 1.789 2.979 1.789 5.351 0 1.073-.364 1.59-.915 2.373-1.782 2.532-1.874 4.148-1.874 7.276h12c0-1.27-.021-2.287-.159-3.222-.88-.232-1.688-.64-2.379-1.19zm4.038-9.588c-2.486 0-4.5 2.015-4.5 4.5s2.014 4.5 4.5 4.5c2.484 0 4.5-2.015 4.5-4.5s-2.016-4.5-4.5-4.5zm-.469 6.484l-1.688-1.637.695-.697.992.94 2.115-2.169.697.696-2.811 2.867z" />
</svg>
