<svg width="63.999" height="63.999" viewBox="0 0 16.684 16.684" xmlns="http://www.w3.org/2000/svg">
    <defs>
        <style>
            .ColorScheme-Text{color:#eff0f1}
            .ColorScheme-Background{color:#eff0f1;}
            .ColorScheme-ViewBackground{color:#fcfcfc;}
            .ColorScheme-Highlight{color:#3daee9;}
            .ColorScheme-PositiveText{color:#27ae60;}
            .ColorScheme-NeutralText{color:#f67400;}
            .ColorScheme-NegativeText{color:#da4453;}
        </style>
    </defs>
        <path
            class="ColorScheme-Text"
            style="fill:currentColor;stroke:none"
            d="m4.436 10.424 4.93-3.286-4.93-3.286v1.993l1.94 1.293-1.94 1.293zm7.549 2.436v-1.993l-1.939-1.293 1.94-1.293V6.288l-4.93 3.286z"
        />
        <path
            class="ColorScheme-Text"
            style="fill:currentColor;stroke:none"
            d="M14.03 5.01a6.622 6.622 0 0 1-10.998 7.332l-1.43.954a8.334 8.334 0 0 0 6.706 3.388c4.6 0 8.342-3.742 8.342-8.342a8.29 8.29 0 0 0-1.189-4.286zM1.69 8.33c0-3.653 2.973-6.614 6.64-6.614a6.635 6.635 0 0 1 5.254 2.574l1.435-.954A8.365 8.365 0 0 0 8.33-.002C3.717-.002-.035 3.736-.035 8.33c0 1.544.426 2.99 1.163 4.232l1.436-.954A6.561 6.561 0 0 1 1.69 8.33z"
        />
</svg>
