<?xml version="1.0" encoding="UTF-8" standalone="no"?>
<!-- Created with Inkscape (http://www.inkscape.org/) -->

<svg
   xmlns:dc="http://purl.org/dc/elements/1.1/"
   xmlns:cc="http://creativecommons.org/ns#"
   xmlns:rdf="http://www.w3.org/1999/02/22-rdf-syntax-ns#"
   xmlns:svg="http://www.w3.org/2000/svg"
   xmlns="http://www.w3.org/2000/svg"
   xmlns:sodipodi="http://sodipodi.sourceforge.net/DTD/sodipodi-0.dtd"
   xmlns:inkscape="http://www.inkscape.org/namespaces/inkscape"
   width="444.66092"
   height="444.66092"
   viewBox="0 0 117.64988 117.64986"
   version="1.1"
   id="svg8"
   inkscape:version="0.92.2 (5c3e80d, 2017-08-06)"
   sodipodi:docname="icon_black.svg"
   inkscape:export-filename="/home/anxhelo/works/Remmina/PNG/icon_black.png"
   inkscape:export-xdpi="96"
   inkscape:export-ydpi="96">
  <defs
     id="defs2" />
  <sodipodi:namedview
     id="base"
     pagecolor="#ffffff"
     bordercolor="#666666"
     borderopacity="1.0"
     inkscape:pageopacity="0"
     inkscape:pageshadow="2"
     inkscape:zoom="0.52467208"
     inkscape:cx="102.72298"
     inkscape:cy="224.46532"
     inkscape:document-units="px"
     inkscape:current-layer="g875"
     inkscape:document-rotation="0"
     showgrid="false"
     borderlayer="true"
     inkscape:showpageshadow="true"
     units="px"
     inkscape:pagecheckerboard="false"
     showguides="true"
     inkscape:window-width="1366"
     inkscape:window-height="715"
     inkscape:window-x="0"
     inkscape:window-y="0"
     inkscape:window-maximized="1"
     objecttolerance="10"
     guidetolerance="10"
     inkscape:snap-tangential="true"
     inkscape:snap-perpendicular="true"
     fit-margin-top="0"
     fit-margin-left="0"
     fit-margin-right="0"
     fit-margin-bottom="0">
    <inkscape:grid
       type="xygrid"
       id="grid10"
       dotted="false"
       originx="-75.247744"
       originy="-8.9404304" />
  </sodipodi:namedview>
  <metadata
     id="metadata5">
    <rdf:RDF>
      <cc:Work
         rdf:about="">
        <dc:format>image/svg+xml</dc:format>
        <dc:type
           rdf:resource="http://purl.org/dc/dcmitype/StillImage" />
        <dc:title></dc:title>
        <cc:license
           rdf:resource="" />
      </cc:Work>
    </rdf:RDF>
  </metadata>
  <g
     inkscape:label="Layer 1"
     inkscape:groupmode="layer"
     id="layer1"
     transform="translate(-75.247731,-170.4097)">
    <g
       id="g875"
       transform="matrix(0.64508605,0,0,0.64508605,73.187616,170.4097)">
      <g
         id="g1019"
         transform="matrix(2.3733304,0,0,2.3733304,3.19355,0)"
         style="fill:#000000">
        <g
           id="g863"
           style="fill:#000000">
          <g
             id="g855"
             style="fill:#000000">
            <polygon
               style="fill:#000000"
               class="st1"
               points="20.618,17.742 20.618,26.923 29.549,32.877 20.618,38.831 20.618,48.012 43.32,32.877 "
               id="polygon853" />
          </g>
          <g
             id="g861"
             style="fill:#000000">
            <g
               id="g859"
               style="fill:#000000">
              <polygon
                 style="fill:#000000"
                 class="st2"
                 points="55.388,59.232 55.388,50.051 46.457,44.097 55.388,38.143 55.388,28.962 32.685,44.097 "
                 id="polygon857" />
            </g>
          </g>
        </g>
        <g
           id="g873"
           style="fill:#000000">
          <g
             id="g867"
             style="fill:#000000">
            <path
               style="fill:#000000"
               inkscape:connector-curvature="0"
               class="st1"
               d="m 64.776,23.074 c 2.632,4.509 4.147,9.75 4.147,15.348 0,16.845 -13.656,30.5 -30.5,30.5 -9.922,0 -18.734,-4.741 -24.304,-12.077 L 7.53,61.238 c 7.005,9.461 18.243,15.607 30.892,15.607 21.186,0 38.423,-17.236 38.423,-38.423 0,-7.215 -2.002,-13.97 -5.476,-19.744 z"
               id="path865" />
          </g>
          <g
             id="g871"
             style="fill:#000000">
            <path
               style="fill:#000000"
               inkscape:connector-curvature="0"
               class="st2"
               d="m 7.922,38.423 c 0,-16.845 13.656,-30.5 30.5,-30.5 9.826,0 18.561,4.652 24.139,11.868 l 6.596,-4.397 C 62.142,6.053 50.976,0 38.423,0 17.236,0 0,17.236 0,38.423 0,45.543 1.954,52.212 5.343,57.936 L 11.937,53.54 C 9.387,49.083 7.922,43.925 7.922,38.423 Z"
               id="path869" />
          </g>
        </g>
      </g>
    </g>
  </g>
  <style
     id="style835"
     type="text/css">
	.st0{fill:#333333;}
	.st1{fill:#20AA73;}
	.st2{fill:#4A93DD;}
</style>
  <style
     id="style905"
     type="text/css">
	.st0{fill:#333333;}
	.st1{fill:#20AA73;}
	.st2{fill:#4A93DD;}
</style>
</svg>
