<?xml version="1.0" encoding="iso-8859-1"?>
<!-- Generator: Adobe Illustrator 15.1.0, SVG Export Plug-In . SVG Version: 6.00 Build 0)  -->
<!DOCTYPE svg PUBLIC "-//W3C//DTD SVG 1.1//EN" "http://www.w3.org/Graphics/SVG/1.1/DTD/svg11.dtd">
<svg version="1.1" id="Layer_1" xmlns="http://www.w3.org/2000/svg" xmlns:xlink="http://www.w3.org/1999/xlink" x="0px" y="0px"
	 width="128px" height="128px" viewBox="0 0 128 128" style="enable-background:new 0 0 128 128;" xml:space="preserve">
<g>
	<path style="fill:#5892CD;" d="M124.695,69.993c-3.331,33.246-33.211,57.517-66.73,54.204
		C24.448,120.895-0.036,91.259,3.307,58.014C6.637,24.765,36.522,0.495,70.04,3.808C103.553,7.106,128.034,36.733,124.695,69.993z"
		/>
	<path style="fill:#8FC2E9;" d="M27.19,112.243C0.326,92.077-4.968,54.138,15.364,27.491C35.693,0.851,73.949-4.403,100.803,15.763"
		/>
	<path style="fill:none;stroke:#010101;stroke-width:5.2826;stroke-miterlimit:10;" d="M124.998,64
		c0,33.412-27.311,60.499-60.993,60.499C30.315,124.499,3.002,97.412,3.002,64c0-33.423,27.313-60.498,61.003-60.498
		C97.688,3.502,124.998,30.577,124.998,64z"/>
	<path style="fill:none;stroke:#FFFFFF;stroke-width:5.2826;stroke-linecap:round;stroke-miterlimit:10;" d="M52.081,102.746
		C30.514,96.21,18.364,73.571,24.94,52.179"/>
	<path style="fill:#010101;" d="M83.035,104.293c1.43,1.051,2.611,0.515,2.611-1.172v-9.49c0-1.695-1.146-3.975-2.528-5.071
		L68.541,77.157c-1.398-1.081-1.45-2.914-0.128-4.073l13.99-12.225c0.667-0.509,0.06-1.364-0.763-1.05L46.059,73.985
		c-1.671,0.658-1.859,2.053-0.426,3.087L83.035,104.293z"/>
	<path style="fill:#010101;" d="M44.964,23.016c-1.43-1.045-2.604-0.496-2.604,1.19v9.49c0,1.688,1.141,3.962,2.521,5.042
		l14.584,11.415c1.396,1.08,1.45,2.911,0.13,4.071L45.597,66.452c-0.666,0.523-0.059,1.369,0.764,1.047l35.583-14.163
		c1.67-0.661,1.856-2.061,0.425-3.107L44.964,23.016z"/>
</g>
</svg>
