<svg version="1.1" viewBox="0 0 48 48" xmlns="http://www.w3.org/2000/svg">
    <defs>
        <style id="current-color-scheme" type="text/css">.ColorScheme-Text { color:#dfdfdf; } .ColorScheme-Highlight { color:#4285f4; }</style>
    </defs>
    <g transform="matrix(2.998725 0 0 2.9985669 -1.630875e-7 .22641854)" shape-rendering="auto">
        <path d="m16 7.9321384c0 4.4182776-3.581722 7.9999996-8 7.9999996s-8-3.581722-8-7.9999996c0-4.418278 3.581722-8 8-8s8 3.581722 8 8z" color="#000000" color-rendering="auto" dominant-baseline="auto" fill="#fff" image-rendering="auto" solid-color="#000000" stop-color="#000000" style="font-feature-settings:normal;font-variant-alternates:normal;font-variant-caps:normal;font-variant-east-asian:normal;font-variant-ligatures:normal;font-variant-numeric:normal;font-variant-position:normal;font-variation-settings:normal;inline-size:0;isolation:auto;mix-blend-mode:normal;shape-margin:0;shape-padding:0;text-decoration-color:#000000;text-decoration-line:none;text-decoration-style:solid;text-indent:0;text-orientation:mixed;text-transform:none;white-space:normal"/>
        <path d="m11.006803 6.7253333-4.1992163 2.7987907 4.1992163 2.800777v-1.941409l-1.2890622-0.859368 1.2890622-0.8594049z" color="#dfdfdf" color-rendering="auto" dominant-baseline="auto" fill="#27ae60" image-rendering="auto" solid-color="#000000" stop-color="#000000" style="font-feature-settings:normal;font-variant-alternates:normal;font-variant-caps:normal;font-variant-east-asian:normal;font-variant-ligatures:normal;font-variant-numeric:normal;font-variant-position:normal;font-variation-settings:normal;inline-size:0;isolation:auto;mix-blend-mode:normal;shape-margin:0;shape-padding:0;text-decoration-color:#000000;text-decoration-line:none;text-decoration-style:solid;text-indent:0;text-orientation:mixed;text-transform:none;white-space:normal"/>
        <path d="m15.018521 4.0749275-1.67383 1.1132134c0.434611 0.8467126 0.661563 1.7846676 0.662115 2.7364069 1e-6 3.3137132-2.686292 6.0000072-6.0000014 6.0000062-1.770523-0.0023-3.4496308-0.786492-4.5878884-2.142639l-1.671879 1.111345c1.5152445 1.912027 3.8201362 3.028149 6.2597674 3.031231 4.4182544 0 7.9999654-3.581686 7.9999984-7.9999432-3.55e-4 -1.3459103-0.340272-2.6699774-0.988282-3.8496203z" color="#dfdfdf" color-rendering="auto" dominant-baseline="auto" fill="#3daee9" image-rendering="auto" solid-color="#000000" stop-color="#000000" style="font-feature-settings:normal;font-variant-alternates:normal;font-variant-caps:normal;font-variant-east-asian:normal;font-variant-ligatures:normal;font-variant-numeric:normal;font-variant-position:normal;font-variation-settings:normal;inline-size:0;isolation:auto;mix-blend-mode:normal;shape-margin:0;shape-padding:0;text-decoration-color:#000000;text-decoration-line:none;text-decoration-style:solid;text-indent:0;text-orientation:mixed;text-transform:none;white-space:normal"/>
        <path d="m8.0068046-0.07550898c-4.4182993-2.6e-6 -8.0000316 3.5817543-8.0000019 8.0000568 2.4762e-4 1.3488735 0.34155511 2.6757862 0.99218945 3.8573672l1.673832-1.113289c-0.4371481-0.8486831-0.6654772-1.7894261-0.6660194-2.7440782-2.18e-5 -3.3137262 2.6862763-6.0000433 5.9999999-6.0000423 1.7738421 0.00251 3.4556584 0.7898063 4.5937484 2.150422l1.671872-1.1133284c-1.515345-1.9158375-3.822939-3.0343875-6.2656204-3.0371081z" color="#dfdfdf" color-rendering="auto" dominant-baseline="auto" fill="#27ae60" image-rendering="auto" solid-color="#000000" stop-color="#000000" style="font-feature-settings:normal;font-variant-alternates:normal;font-variant-caps:normal;font-variant-east-asian:normal;font-variant-ligatures:normal;font-variant-numeric:normal;font-variant-position:normal;font-variation-settings:normal;inline-size:0;isolation:auto;mix-blend-mode:normal;shape-margin:0;shape-padding:0;text-decoration-color:#000000;text-decoration-line:none;text-decoration-style:solid;text-indent:0;text-orientation:mixed;text-transform:none;white-space:normal"/>
        <path d="m5.0068038 3.5241201v1.9414077l1.2890654 0.8593674-1.2890654 0.8593671v1.9394242l4.1992178-2.7987913z" color="#dfdfdf" color-rendering="auto" dominant-baseline="auto" fill="#3daee9" image-rendering="auto" solid-color="#000000" stop-color="#000000" style="font-feature-settings:normal;font-variant-alternates:normal;font-variant-caps:normal;font-variant-east-asian:normal;font-variant-ligatures:normal;font-variant-numeric:normal;font-variant-position:normal;font-variation-settings:normal;inline-size:0;isolation:auto;mix-blend-mode:normal;shape-margin:0;shape-padding:0;text-decoration-color:#000000;text-decoration-line:none;text-decoration-style:solid;text-indent:0;text-orientation:mixed;text-transform:none;white-space:normal"/>
    </g>
</svg>
