<?xml version="1.0" encoding="UTF-8" standalone="no"?>
<!-- Created with Inkscape (http://www.inkscape.org/) -->

<svg
   width="24"
   height="24"
   viewBox="0 0 24 24"
   version="1.1"
   id="svg8"
   inkscape:version="1.2 (dc2aedaf03, 2022-05-15)"
   sodipodi:docname="org.remmina.Remmina-tool-symbolic.svg"
   xmlns:inkscape="http://www.inkscape.org/namespaces/inkscape"
   xmlns:sodipodi="http://sodipodi.sourceforge.net/DTD/sodipodi-0.dtd"
   xmlns="http://www.w3.org/2000/svg"
   xmlns:svg="http://www.w3.org/2000/svg"
   xmlns:rdf="http://www.w3.org/1999/02/22-rdf-syntax-ns#"
   xmlns:cc="http://creativecommons.org/ns#"
   xmlns:dc="http://purl.org/dc/elements/1.1/">
  <defs
     id="defs2" />
  <sodipodi:namedview
     id="base"
     pagecolor="#ffffff"
     bordercolor="#666666"
     borderopacity="1.0"
     inkscape:pageopacity="0"
     inkscape:pageshadow="2"
     inkscape:zoom="11.871974"
     inkscape:cx="34.28242"
     inkscape:cy="27.670209"
     inkscape:document-units="px"
     inkscape:current-layer="layer1"
     inkscape:document-rotation="0"
     showgrid="false"
     borderlayer="true"
     inkscape:showpageshadow="true"
     units="px"
     inkscape:pagecheckerboard="false"
     showguides="true"
     inkscape:window-width="1920"
     inkscape:window-height="995"
     inkscape:window-x="1080"
     inkscape:window-y="427"
     inkscape:window-maximized="1"
     objecttolerance="10"
     guidetolerance="10"
     inkscape:snap-tangential="true"
     inkscape:snap-perpendicular="true"
     fit-margin-top="0"
     fit-margin-left="0"
     fit-margin-right="0"
     fit-margin-bottom="0"
     inkscape:deskcolor="#d1d1d1">
    <inkscape:grid
       type="xygrid"
       id="grid10"
       dotted="false"
       originx="-171.36869"
       originy="-105.18186" />
  </sodipodi:namedview>
  <metadata
     id="metadata5">
    <rdf:RDF>
      <cc:Work
         rdf:about="">
        <dc:format>image/svg+xml</dc:format>
        <dc:type
           rdf:resource="http://purl.org/dc/dcmitype/StillImage" />
        <cc:license
           rdf:resource="" />
      </cc:Work>
    </rdf:RDF>
  </metadata>
  <g
     inkscape:label="Layer 1"
     inkscape:groupmode="layer"
     id="layer1"
     transform="translate(-171.36866,-165.16877)">
    <path
       d="m 187.77406,165.16877 v 0.20572 l -7.85028,10.64488 c 0.22721,0.0656 0.45083,0.14294 0.66991,0.23189 -0.77754,-0.31322 -1.62348,-0.4954 -2.51368,-0.4954 -1.77942,0 -3.48494,0.70612 -4.74227,1.95807 -0.35468,0.35318 -0.66823,0.74465 -0.93515,1.16728 l 3.12261,3.10514 -2.0827,2.82424 c 0.4982,0.95633 1.28315,1.73475 2.24581,2.22754 l 2.83728,-2.06819 3.12548,3.10799 c 0.42429,-0.26637 0.817,-0.57912 1.17098,-0.93253 1.25898,-1.25029 1.96741,-2.94651 1.96908,-4.71574 0,-0.8619 -0.17842,-1.6798 -0.47762,-2.43611 0.0814,0.19645 0.15331,0.39646 0.21549,0.59958 l 10.70216,-8.009 z m -12.05944,0.3332 -4.21776,4.19702 5.47604,5.44278 4.21801,-4.19416 z m 13.91206,13.83421 -4.21801,4.19703 5.47628,5.44563 4.21801,-4.19726 z m -17.14253,6.67356 -1.11549,1.63082 1.49123,1.48312 1.52064,-1.10949 c -0.75315,-0.49516 -1.39819,-1.13659 -1.89638,-1.88553 z"
       id="path32"
       inkscape:connector-curvature="0"
       style="isolation:isolate;fill:#171717;stroke-width:0.2385" />
  </g>
</svg>
