<?xml version="1.0" encoding="UTF-8" standalone="no"?>
<!-- Created with Inkscape (http://www.inkscape.org/) -->

<svg
   xmlns:dc="http://purl.org/dc/elements/1.1/"
   xmlns:cc="http://creativecommons.org/ns#"
   xmlns:rdf="http://www.w3.org/1999/02/22-rdf-syntax-ns#"
   xmlns:svg="http://www.w3.org/2000/svg"
   xmlns="http://www.w3.org/2000/svg"
   xmlns:sodipodi="http://sodipodi.sourceforge.net/DTD/sodipodi-0.dtd"
   xmlns:inkscape="http://www.inkscape.org/namespaces/inkscape"
   width="99.772003"
   height="100.72199"
   viewBox="0 0 26.39801 26.649359"
   version="1.1"
   id="svg8"
   inkscape:version="0.92.3 (2405546, 2018-03-11)"
   sodipodi:docname="exec.svg">
  <defs
     id="defs2" />
  <sodipodi:namedview
     id="base"
     pagecolor="#ffffff"
     bordercolor="#666666"
     borderopacity="1.0"
     inkscape:pageopacity="0"
     inkscape:pageshadow="2"
     inkscape:zoom="2.9679935"
     inkscape:cx="50.5106"
     inkscape:cy="35.232277"
     inkscape:document-units="px"
     inkscape:current-layer="layer1"
     inkscape:document-rotation="0"
     showgrid="false"
     borderlayer="true"
     inkscape:showpageshadow="true"
     units="px"
     inkscape:pagecheckerboard="false"
     showguides="true"
     inkscape:window-width="1366"
     inkscape:window-height="715"
     inkscape:window-x="0"
     inkscape:window-y="0"
     inkscape:window-maximized="1"
     objecttolerance="10"
     guidetolerance="10"
     inkscape:snap-tangential="true"
     inkscape:snap-perpendicular="true"
     fit-margin-top="0"
     fit-margin-left="0"
     fit-margin-right="0"
     fit-margin-bottom="0">
    <inkscape:grid
       type="xygrid"
       id="grid10"
       dotted="false"
       originx="-171.36867"
       originy="-105.18187" />
  </sodipodi:namedview>
  <metadata
     id="metadata5">
    <rdf:RDF>
      <cc:Work
         rdf:about="">
        <dc:format>image/svg+xml</dc:format>
        <dc:type
           rdf:resource="http://purl.org/dc/dcmitype/StillImage" />
        <dc:title></dc:title>
        <cc:license
           rdf:resource="" />
      </cc:Work>
    </rdf:RDF>
  </metadata>
  <g
     inkscape:label="Layer 1"
     inkscape:groupmode="layer"
     id="layer1"
     transform="translate(-171.36866,-165.16877)">
    <path
       d="m 189.51722,165.16877 v 0.22886 l -8.68441,11.84222 c 0.25135,0.073 0.49873,0.15902 0.74109,0.25797 -0.86016,-0.34845 -1.79599,-0.55112 -2.78077,-0.55112 -1.9685,0 -3.85524,0.78554 -5.24616,2.17831 -0.39237,0.39291 -0.73924,0.82841 -1.03452,1.29858 l 3.4544,3.4544 -2.30399,3.14192 c 0.55113,1.06389 1.41949,1.92987 2.48444,2.47809 l 3.13875,-2.30082 3.45758,3.45758 c 0.46937,-0.29634 0.90381,-0.64426 1.2954,-1.03743 1.39276,-1.39092 2.17646,-3.27793 2.17831,-5.24616 0,-0.95885 -0.19738,-1.86875 -0.52837,-2.71013 0.09,0.21855 0.1696,0.44106 0.23839,0.66702 l 11.83931,-8.90985 z m -13.34082,0.37068 -4.66592,4.6691 6.0579,6.05499 4.66619,-4.66593 z m 15.39029,15.39028 -4.6662,4.66911 6.05817,6.05816 4.66619,-4.66937 z m -18.96401,7.42421 -1.23402,1.81425 1.64968,1.64994 1.68222,-1.23428 c -0.83318,-0.55086 -1.54676,-1.26444 -2.09788,-2.09762 z"
       id="path32"
       inkscape:connector-curvature="0"
       style="isolation:isolate;fill:#171717;stroke-width:0.26458332" />
  </g>
</svg>
