<?xml version="1.0" encoding="UTF-8" standalone="no"?>
<!-- Created with Inkscape (http://www.inkscape.org/) -->

<svg
   xmlns:dc="http://purl.org/dc/elements/1.1/"
   xmlns:cc="http://creativecommons.org/ns#"
   xmlns:rdf="http://www.w3.org/1999/02/22-rdf-syntax-ns#"
   xmlns:svg="http://www.w3.org/2000/svg"
   xmlns="http://www.w3.org/2000/svg"
   xmlns:sodipodi="http://sodipodi.sourceforge.net/DTD/sodipodi-0.dtd"
   xmlns:inkscape="http://www.inkscape.org/namespaces/inkscape"
   width="99.772003"
   height="99.772079"
   viewBox="0 0 26.39801 26.398028"
   version="1.1"
   id="svg8"
   inkscape:version="0.92.3 (2405546, 2018-03-11)"
   sodipodi:docname="vnc over ssh.svg">
  <defs
     id="defs2" />
  <sodipodi:namedview
     id="base"
     pagecolor="#ffffff"
     bordercolor="#666666"
     borderopacity="1.0"
     inkscape:pageopacity="0"
     inkscape:pageshadow="2"
     inkscape:zoom="1.0493442"
     inkscape:cx="-11.459557"
     inkscape:cy="109.76653"
     inkscape:document-units="px"
     inkscape:current-layer="layer1"
     inkscape:document-rotation="0"
     showgrid="false"
     borderlayer="true"
     inkscape:showpageshadow="true"
     units="px"
     inkscape:pagecheckerboard="false"
     showguides="true"
     inkscape:window-width="1366"
     inkscape:window-height="715"
     inkscape:window-x="0"
     inkscape:window-y="0"
     inkscape:window-maximized="1"
     objecttolerance="10"
     guidetolerance="10"
     inkscape:snap-tangential="true"
     inkscape:snap-perpendicular="true"
     fit-margin-top="0"
     fit-margin-left="0"
     fit-margin-right="0"
     fit-margin-bottom="0">
    <inkscape:grid
       type="xygrid"
       id="grid10"
       dotted="false"
       originx="-162.7958"
       originy="-83.119086" />
  </sodipodi:namedview>
  <metadata
     id="metadata5">
    <rdf:RDF>
      <cc:Work
         rdf:about="">
        <dc:format>image/svg+xml</dc:format>
        <dc:type
           rdf:resource="http://purl.org/dc/dcmitype/StillImage" />
        <dc:title></dc:title>
        <cc:license
           rdf:resource="" />
      </cc:Work>
    </rdf:RDF>
  </metadata>
  <g
     inkscape:label="Layer 1"
     inkscape:groupmode="layer"
     id="layer1"
     transform="translate(-162.79579,-187.48289)">
    <path
       d="m 175.99485,195.20186 c -1.73487,0 -3.13161,1.42611 -3.13161,3.18029 v 1.51686 h -0.7829 c -0.43365,0 -0.7829,0.34925 -0.7829,0.7829 v 4.69715 c 0,0.43365 0.34925,0.7829 0.7829,0.7829 h 7.82875 c 0.43366,0 0.78291,-0.34925 0.78291,-0.7829 v -4.69715 c 0,-0.43365 -0.34925,-0.7829 -0.78291,-0.7829 h -0.7829 v -1.51686 c 0,-1.75365 -1.39673,-3.18029 -3.13134,-3.18029 z m 0,1.56581 c 0.8673,0 1.56554,0.69823 1.56554,1.56554 v 1.5658 h -3.13135 v -1.5658 c 0,-0.86731 0.69824,-1.56554 1.56581,-1.56554 z"
       id="path34"
       inkscape:connector-curvature="0"
       style="isolation:isolate;fill:#171717;stroke-width:0.26458332" />
    <path
       d="m 187.30817,213.88092 c 0,0 0.14367,-0.008 0.34237,-0.0442 0.38523,-0.0569 0.67627,-0.195 0.89138,-0.38312 0.0415,-0.0317 0.082,-0.0661 0.12144,-0.10319 0.037,-0.0394 0.0712,-0.0796 0.10319,-0.12144 0.18785,-0.21484 0.32623,-0.50615 0.38285,-0.89112 0.0368,-0.1987 0.0444,-0.34263 0.0444,-0.34263 v -22.62691 c 0,-1.88542 -1.88568,-1.88542 -1.88568,-1.88542 h -22.6269 c 0,0 -1.88543,0 -1.88543,1.88542 v 22.6269 c 0,0 0.008,0.14393 0.0442,0.34264 0.0585,0.38497 0.19447,0.67627 0.38285,0.89111 0.032,0.0418 0.0675,0.082 0.10319,0.12145 0.0397,0.037 0.0802,0.0714 0.12144,0.10318 0.21511,0.18812 0.50668,0.32624 0.89138,0.38312 0.19976,0.0363 0.34238,0.0442 0.34238,0.0442 z m -1.88569,-4.5347 h -18.85553 v -18.09221 h 18.85553 z"
       id="path36"
       inkscape:connector-curvature="0"
       style="isolation:isolate;fill:#171717;stroke-width:0.26458332" />
  </g>
</svg>
