<?xml version="1.0" encoding="utf-8"?>
<!-- Generator: Adobe Illustrator 22.0.0, SVG Export Plug-In . SVG Version: 6.00 Build 0)  -->
<svg version="1.1" id="Layer_1" xmlns="http://www.w3.org/2000/svg" xmlns:xlink="http://www.w3.org/1999/xlink" x="0px" y="0px"
	 viewBox="0 0 76.845 76.845" style="enable-background:new 0 0 76.845 76.845;" xml:space="preserve">
<style type="text/css">
	.st0{fill:#333333;}
	.st1{fill:#20AA73;}
	.st2{fill:#4A93DD;}
</style>
<g>
	<g>
		<g>
			<polygon class="st1" points="20.618,17.742 20.618,26.923 29.549,32.877 20.618,38.831 20.618,48.012 43.32,32.877 			"/>
		</g>
		<g>
			<g>
				<polygon class="st2" points="55.388,59.232 55.388,50.051 46.457,44.097 55.388,38.143 55.388,28.962 32.685,44.097 				"/>
			</g>
		</g>
	</g>
	<g>
		<g>
			<path class="st1" d="M64.776,23.074c2.632,4.509,4.147,9.75,4.147,15.348c0,16.845-13.656,30.5-30.5,30.5
				c-9.922,0-18.734-4.741-24.304-12.077L7.53,61.238c7.005,9.461,18.243,15.607,30.892,15.607
				c21.186,0,38.423-17.236,38.423-38.423c0-7.215-2.002-13.97-5.476-19.744L64.776,23.074z"/>
		</g>
		<g>
			<path class="st2" d="M7.922,38.423c0-16.845,13.656-30.5,30.5-30.5c9.826,0,18.561,4.652,24.139,11.868l6.596-4.397
				C62.142,6.053,50.976,0,38.423,0C17.236,0,0,17.236,0,38.423c0,7.12,1.954,13.789,5.343,19.513l6.594-4.396
				C9.387,49.083,7.922,43.925,7.922,38.423z"/>
		</g>
	</g>
</g>
</svg>
