<?xml version="1.0" encoding="UTF-8" standalone="no"?>
<svg
   xmlns:dc="http://purl.org/dc/elements/1.1/"
   xmlns:cc="http://creativecommons.org/ns#"
   xmlns:rdf="http://www.w3.org/1999/02/22-rdf-syntax-ns#"
   xmlns:svg="http://www.w3.org/2000/svg"
   xmlns="http://www.w3.org/2000/svg"
   id="svg8"
   version="1.1"
   viewBox="0 0 26.458334 26.458333"
   height="100"
   width="100">
  <defs
     id="defs2" />
  <metadata
     id="metadata5">
    <rdf:RDF>
      <cc:Work
         rdf:about="">
        <dc:format>image/svg+xml</dc:format>
        <dc:type
           rdf:resource="http://purl.org/dc/dcmitype/StillImage" />
        <dc:title />
        <cc:license
           rdf:resource="" />
      </cc:Work>
    </rdf:RDF>
  </metadata>
  <g
     transform="translate(-223.14604,-181.92338)"
     id="layer1">
    <g
       transform="matrix(0.83396843,0,0,0.83396843,39.920727,35.024416)"
       id="g837">
      <g
         id="g817"
         transform="matrix(1.1087066,0,0,1.1087066,45.9421,19.072628)">
        <path
           style="isolation:isolate;fill:#000000;stroke-width:0.26458332"
           id="path79"
           d="m 178.60731,150.93908 v -1.36551 c 0,-4.22699 -3.44647,-7.60863 -7.60836,-7.60863 -4.22698,0 -7.60836,3.44673 -7.60836,7.60863 v 1.36551 h -3.70681 v 19.05371 h 6.05499 16.64044 v -19.05371 z m -11.25009,-1.36551 c 0,-2.01613 1.62587,-3.57664 3.57664,-3.57664 2.01586,0 3.57664,1.6256 3.57664,3.57664 v 1.36551 h -7.13341 z" />
      </g>
      <g
         id="g822"
         transform="matrix(0.65160764,0,0,0.79754876,80.032738,36.675708)"
         style="fill:#ffffff">
        <path
           id="polygon65"
           d="m 246.21287,194.41092 -3.04322,5.27151 4.98005,8.62583 h 6.08697 z"
           style="isolation:isolate;vector-effect:non-scaling-stroke;fill:#ffffff;stroke:none;stroke-width:0.79374999;stroke-linecap:square;stroke-linejoin:miter;stroke-miterlimit:3" />
        <path
           id="polygon67"
           d="m 238.79737,194.47917 -3.25561,5.63893 4.76766,8.25841 h 6.51175 z"
           style="isolation:isolate;vector-effect:non-scaling-stroke;fill:#ffffff;fill-opacity:1;stroke:none;stroke-width:2.64583325;stroke-linecap:square;stroke-linejoin:miter;stroke-miterlimit:3;stroke-dasharray:none" />
        <polygon
           transform="matrix(0.26458333,0,0,0.26458333,187.32648,46.374434)"
           points="165.707,559.786 196.032,612.311 135.381,612.311 "
           stroke-miterlimit="3"
           id="polygon820"
           style="isolation:isolate;vector-effect:non-scaling-stroke;fill:#ffffff;stroke:none;stroke-width:10;stroke-linecap:square;stroke-linejoin:miter;stroke-miterlimit:3;stroke-dasharray:none;paint-order:fill markers stroke" />
      </g>
    </g>
  </g>
</svg>
