<?xml version="1.0" encoding="UTF-8" standalone="no"?>
<!-- Created with Inkscape (http://www.inkscape.org/) -->

<svg
   xmlns:dc="http://purl.org/dc/elements/1.1/"
   xmlns:cc="http://creativecommons.org/ns#"
   xmlns:rdf="http://www.w3.org/1999/02/22-rdf-syntax-ns#"
   xmlns:svg="http://www.w3.org/2000/svg"
   xmlns="http://www.w3.org/2000/svg"
   xmlns:sodipodi="http://sodipodi.sourceforge.net/DTD/sodipodi-0.dtd"
   xmlns:inkscape="http://www.inkscape.org/namespaces/inkscape"
   width="100"
   height="100"
   viewBox="0 0 26.458334 26.458332"
   version="1.1"
   id="svg8"
   inkscape:version="0.92.2 2405546, 2018-03-11"
   sodipodi:docname="remmina-rdp-ssh-symbolic.svg">
  <defs
     id="defs2" />
  <sodipodi:namedview
     id="base"
     pagecolor="#ffffff"
     bordercolor="#666666"
     borderopacity="1.0"
     inkscape:pageopacity="0"
     inkscape:pageshadow="2"
     inkscape:zoom="4"
     inkscape:cx="25.558198"
     inkscape:cy="61.982189"
     inkscape:document-units="px"
     inkscape:current-layer="layer1"
     inkscape:document-rotation="0"
     showgrid="false"
     borderlayer="true"
     inkscape:showpageshadow="true"
     units="px"
     inkscape:pagecheckerboard="false"
     showguides="true"
     inkscape:window-width="1600"
     inkscape:window-height="879"
     inkscape:window-x="0"
     inkscape:window-y="0"
     inkscape:window-maximized="0"
     objecttolerance="10"
     guidetolerance="10"
     inkscape:snap-tangential="true"
     inkscape:snap-perpendicular="true"
     fit-margin-top="0"
     fit-margin-left="0"
     fit-margin-right="0"
     fit-margin-bottom="0">
    <inkscape:grid
       type="xygrid"
       id="grid10"
       dotted="false"
       originx="-179.27136"
       originy="-128.69822" />
  </sodipodi:namedview>
  <metadata
     id="metadata5">
    <rdf:RDF>
      <cc:Work
         rdf:about="">
        <dc:format>image/svg+xml</dc:format>
        <dc:type
           rdf:resource="http://purl.org/dc/dcmitype/StillImage" />
        <dc:title></dc:title>
        <cc:license
           rdf:resource="" />
      </cc:Work>
    </rdf:RDF>
  </metadata>
  <g
     inkscape:label="Layer 1"
     inkscape:groupmode="layer"
     id="layer1"
     transform="translate(-179.27135,-141.84345)">
    <g
       id="g817"
       transform="matrix(0.93878631,0,0,0.93878631,13.549948,10.22929)">
      <path
         style="isolation:isolate;fill:#000000;stroke-width:0.93878627"
         d="M 49.884766 0.27539062 C 34.886727 0.27539062 22.888672 12.506314 22.888672 27.273438 L 22.888672 32.117188 L 9.7363281 32.117188 L 9.7363281 99.724609 L 31.220703 99.724609 L 90.263672 99.724609 L 90.263672 32.117188 L 76.880859 32.117188 L 76.880859 27.273438 C 76.880859 12.275364 64.651854 0.27539062 49.884766 0.27539062 z M 49.654297 14.582031 C 56.806908 14.582031 62.34375 20.350818 62.34375 27.273438 L 62.34375 32.117188 L 36.732422 32.117188 L 36.732422 27.273438 L 36.962891 27.273438 C 36.962891 20.119868 42.732636 14.582031 49.654297 14.582031 z M 50 39.673828 C 51.038296 39.673828 52.075804 40.069448 52.867188 40.861328 L 56.373047 44.367188 L 59.878906 47.871094 C 61.462631 49.453896 61.462631 52.024619 59.878906 53.607422 L 56.373047 57.113281 L 52.867188 60.619141 C 51.28442 62.201943 48.715615 62.201943 47.132812 60.619141 L 43.625 57.113281 L 40.121094 53.607422 C 38.538291 52.024619 38.538291 49.453896 40.121094 47.871094 L 43.625 44.367188 L 47.132812 40.861328 C 47.924214 40.069448 48.961704 39.673828 50 39.673828 z M 32.560547 55.105469 C 33.593916 55.105469 34.626422 55.499469 35.414062 56.287109 L 38.933594 59.806641 L 42.451172 63.324219 C 44.02741 64.900457 44.02741 67.458918 42.451172 69.035156 L 38.933594 72.552734 L 35.414062 76.072266 C 33.838782 77.647546 31.280359 77.647546 29.705078 76.072266 L 26.185547 72.552734 L 22.666016 69.035156 C 21.090735 67.458918 21.090735 64.900457 22.666016 63.324219 L 26.185547 59.806641 L 29.705078 56.287109 C 30.492718 55.499469 31.527178 55.105469 32.560547 55.105469 z M 67.710938 55.105469 C 68.744306 55.105469 69.776813 55.499469 70.564453 56.287109 L 74.083984 59.806641 L 77.603516 63.324219 C 79.179719 64.900457 79.179719 67.458918 77.603516 69.035156 L 74.083984 72.552734 L 70.564453 76.072266 C 68.989173 77.647546 66.430749 77.647546 64.855469 76.072266 L 61.335938 72.552734 L 57.816406 69.035156 C 56.241126 67.458918 56.241126 64.900457 57.816406 63.324219 L 61.335938 59.806641 L 64.855469 56.287109 C 65.643109 55.499469 66.677569 55.105469 67.710938 55.105469 z M 50.261719 70.865234 C 51.295087 70.865234 52.329547 71.259235 53.117188 72.046875 L 56.636719 75.566406 L 60.154297 79.083984 C 61.729577 80.660223 61.729577 83.218683 60.154297 84.794922 L 56.636719 88.3125 L 53.117188 91.832031 C 51.541907 93.407312 48.983484 93.407312 47.408203 91.832031 L 43.888672 88.3125 L 40.369141 84.794922 C 38.79386 83.218683 38.79386 80.660223 40.369141 79.083984 L 43.888672 75.566406 L 47.408203 72.046875 C 48.195843 71.259235 49.22835 70.865234 50.261719 70.865234 z "
         transform="matrix(0.28183552,0,0,0.28183552,176.52729,140.19608)"
         id="path79" />
    </g>
  </g>
</svg>
