<?xml version="1.0" encoding="UTF-8" standalone="no"?>
<!-- Created with Inkscape (http://www.inkscape.org/) -->

<svg
   xmlns:dc="http://purl.org/dc/elements/1.1/"
   xmlns:cc="http://creativecommons.org/ns#"
   xmlns:rdf="http://www.w3.org/1999/02/22-rdf-syntax-ns#"
   xmlns:svg="http://www.w3.org/2000/svg"
   xmlns="http://www.w3.org/2000/svg"
   xmlns:sodipodi="http://sodipodi.sourceforge.net/DTD/sodipodi-0.dtd"
   xmlns:inkscape="http://www.inkscape.org/namespaces/inkscape"
   width="100"
   height="100"
   viewBox="0 0 26.458334 26.458333"
   version="1.1"
   id="svg8"
   inkscape:version="0.92.2 2405546, 2018-03-11"
   sodipodi:docname="remmina-rdp-symbolic.svg">
  <defs
     id="defs2" />
  <sodipodi:namedview
     id="base"
     pagecolor="#ffffff"
     bordercolor="#666666"
     borderopacity="1.0"
     inkscape:pageopacity="0"
     inkscape:pageshadow="2"
     inkscape:zoom="2.0986883"
     inkscape:cx="-49.823663"
     inkscape:cy="43.808883"
     inkscape:document-units="px"
     inkscape:current-layer="layer1"
     inkscape:document-rotation="0"
     showgrid="false"
     borderlayer="true"
     inkscape:showpageshadow="true"
     units="px"
     inkscape:pagecheckerboard="false"
     showguides="true"
     inkscape:window-width="1600"
     inkscape:window-height="879"
     inkscape:window-x="0"
     inkscape:window-y="0"
     inkscape:window-maximized="0"
     objecttolerance="10"
     guidetolerance="10"
     inkscape:snap-tangential="true"
     inkscape:snap-perpendicular="true"
     fit-margin-top="0"
     fit-margin-left="0"
     fit-margin-right="0"
     fit-margin-bottom="0">
    <inkscape:grid
       type="xygrid"
       id="grid10"
       dotted="false"
       originx="-190.61239"
       originy="-78.157086" />
  </sodipodi:namedview>
  <metadata
     id="metadata5">
    <rdf:RDF>
      <cc:Work
         rdf:about="">
        <dc:format>image/svg+xml</dc:format>
        <dc:type
           rdf:resource="http://purl.org/dc/dcmitype/StillImage" />
        <dc:title></dc:title>
        <cc:license
           rdf:resource="" />
      </cc:Work>
    </rdf:RDF>
  </metadata>
  <g
     inkscape:label="Layer 1"
     inkscape:groupmode="layer"
     id="layer1"
     transform="translate(-190.61238,-192.38458)">
    <g
       transform="matrix(0.26458333,0,0,0.26458333,153.78079,124.26165)"
       style="isolation:isolate"
       id="RDP Icons">
      <g
         id="Group" />
      <g
         id="g50">
        <path
           style="fill:#000000"
           d="M 50 0.41992188 C 22.636004 0.41992188 0.41992185 22.636004 0.41992188 50 C 0.41992188 77.363996 22.636004 99.580078 50 99.580078 C 77.363996 99.580078 99.580078 77.363996 99.580078 50 C 99.580078 22.636004 77.363996 0.41992185 50 0.41992188 z M 50.339844 15.697266 C 51.446721 15.697266 52.552988 16.117441 53.396484 16.960938 L 58.603516 22.167969 L 63.808594 27.373047 C 65.496606 29.061022 65.496606 31.800306 63.808594 33.488281 L 58.603516 38.695312 L 53.396484 43.900391 C 51.709492 45.587421 48.971216 45.587421 47.283203 43.900391 L 42.078125 38.695312 L 36.871094 33.488281 C 35.183119 31.800306 35.183119 29.061022 36.871094 27.373047 L 42.078125 22.167969 L 47.283203 16.960938 C 48.127209 16.117441 49.232967 15.697266 50.339844 15.697266 z M 27.388672 34.402344 C 28.495544 34.402344 29.603259 34.824473 30.447266 35.667969 L 35.652344 40.873047 L 40.857422 46.080078 C 42.545397 47.76707 42.545397 50.507303 40.857422 52.195312 L 35.652344 57.400391 L 30.447266 62.607422 C 28.759253 64.294414 26.019061 64.294414 24.332031 62.607422 L 19.126953 57.400391 L 13.919922 52.195312 C 12.231909 50.507303 12.231909 47.76707 13.919922 46.080078 L 19.126953 40.873047 L 24.332031 35.667969 C 25.175546 34.824473 26.281799 34.402344 27.388672 34.402344 z M 72.611328 34.402344 C 73.718201 34.402344 74.824473 34.824473 75.667969 35.667969 L 80.875 40.873047 L 86.080078 46.080078 C 87.767108 47.76707 87.767108 50.507301 86.080078 52.195312 L 80.875 57.400391 L 75.667969 62.607422 C 73.980977 64.294414 71.240709 64.294414 69.552734 62.607422 L 64.347656 57.400391 L 59.140625 52.195312 C 57.453633 50.507301 57.453633 47.76707 59.140625 46.080078 L 64.347656 40.873047 L 69.552734 35.667969 C 70.396722 34.824473 71.504456 34.402344 72.611328 34.402344 z M 50.339844 54.833984 C 51.446721 54.833984 52.552988 55.255603 53.396484 56.099609 L 58.603516 61.304688 L 63.808594 66.511719 C 65.496606 68.198711 65.496606 70.938008 63.808594 72.625 L 58.603516 77.832031 L 53.396484 83.037109 C 51.709492 84.725122 48.971216 84.725122 47.283203 83.037109 L 42.078125 77.832031 L 36.871094 72.625 C 35.183119 70.938008 35.183119 68.198711 36.871094 66.511719 L 42.078125 61.304688 L 47.283203 56.099609 C 48.127209 55.255603 49.232967 54.833984 50.339844 54.833984 z "
           transform="translate(139.20601,257.47249)"
           id="path48" />
      </g>
      <g
         id="g62">
        <g
           id="g52" />
        <g
           id="g54" />
        <g
           id="g56" />
        <g
           id="g60">
          <g
             id="g58" />
        </g>
      </g>
    </g>
    <g
       id="g831"
       transform="translate(0.20117925,-0.3392995)" />
  </g>
</svg>
