<?xml version="1.0" encoding="UTF-8" standalone="no"?>
<!-- Created with Inkscape (http://www.inkscape.org/) -->

<svg
   xmlns:dc="http://purl.org/dc/elements/1.1/"
   xmlns:cc="http://creativecommons.org/ns#"
   xmlns:rdf="http://www.w3.org/1999/02/22-rdf-syntax-ns#"
   xmlns:svg="http://www.w3.org/2000/svg"
   xmlns="http://www.w3.org/2000/svg"
   xmlns:sodipodi="http://sodipodi.sourceforge.net/DTD/sodipodi-0.dtd"
   xmlns:inkscape="http://www.inkscape.org/namespaces/inkscape"
   width="100"
   height="100"
   viewBox="0 0 26.458334 26.458332"
   version="1.1"
   id="svg8"
   inkscape:version="0.92.3 (2405546, 2018-03-11)"
   sodipodi:docname="rdp over ssh.svg">
  <defs
     id="defs2" />
  <sodipodi:namedview
     id="base"
     pagecolor="#ffffff"
     bordercolor="#666666"
     borderopacity="1.0"
     inkscape:pageopacity="0"
     inkscape:pageshadow="2"
     inkscape:zoom="4"
     inkscape:cx="25.558198"
     inkscape:cy="61.982189"
     inkscape:document-units="px"
     inkscape:current-layer="layer1"
     inkscape:document-rotation="0"
     showgrid="false"
     borderlayer="true"
     inkscape:showpageshadow="true"
     units="px"
     inkscape:pagecheckerboard="false"
     showguides="true"
     inkscape:window-width="1366"
     inkscape:window-height="715"
     inkscape:window-x="0"
     inkscape:window-y="0"
     inkscape:window-maximized="1"
     objecttolerance="10"
     guidetolerance="10"
     inkscape:snap-tangential="true"
     inkscape:snap-perpendicular="true"
     fit-margin-top="0"
     fit-margin-left="0"
     fit-margin-right="0"
     fit-margin-bottom="0">
    <inkscape:grid
       type="xygrid"
       id="grid10"
       dotted="false"
       originx="-179.27136"
       originy="-128.69822" />
  </sodipodi:namedview>
  <metadata
     id="metadata5">
    <rdf:RDF>
      <cc:Work
         rdf:about="">
        <dc:format>image/svg+xml</dc:format>
        <dc:type
           rdf:resource="http://purl.org/dc/dcmitype/StillImage" />
        <dc:title></dc:title>
        <cc:license
           rdf:resource="" />
      </cc:Work>
    </rdf:RDF>
  </metadata>
  <g
     inkscape:label="Layer 1"
     inkscape:groupmode="layer"
     id="layer1"
     transform="translate(-179.27135,-141.84345)">
    <g
       id="g817"
       transform="matrix(0.93878631,0,0,0.93878631,13.549948,10.22929)">
      <path
         style="isolation:isolate;fill:#000000;stroke-width:0.26458332"
         inkscape:connector-curvature="0"
         id="path79"
         d="m 198.19488,149.24807 v -1.36551 c 0,-4.22699 -3.44647,-7.60863 -7.60836,-7.60863 -4.22698,0 -7.60836,3.44673 -7.60836,7.60863 v 1.36551 h -3.70681 v 19.05371 h 6.05499 16.64044 v -19.05371 z m -11.25009,-1.36551 c 0,-2.01613 1.62587,-3.57664 3.57664,-3.57664 2.01586,0 3.57664,1.6256 3.57664,3.57664 v 1.36551 h -7.21836 v -1.36551 z" />
      <path
         style="isolation:isolate;fill:#ffffff;stroke-width:0.26458332"
         inkscape:connector-curvature="0"
         id="path81"
         d="m 191.49748,160.50133 0.99192,0.99192 0.99166,0.99166 c 0.44397,0.44424 0.44397,1.16496 0,1.6092 l -0.99166,0.99165 -0.99192,0.99193 c -0.44397,0.44397 -1.16496,0.44397 -1.60893,0 l -0.99193,-0.99193 -0.99192,-0.99165 c -0.44397,-0.44424 -0.44397,-1.16496 0,-1.6092 l 0.99192,-0.99166 0.99193,-0.99192 c 0.44397,-0.44397 1.16496,-0.44397 1.60893,0 z m 4.91754,-4.44156 0.99193,0.99192 0.99166,0.99166 c 0.44423,0.44424 0.44423,1.16496 0,1.6092 l -0.99166,0.99165 -0.99193,0.99193 c -0.44397,0.44397 -1.16496,0.44397 -1.60893,0 l -0.99192,-0.99193 -0.99192,-0.99165 c -0.44397,-0.44424 -0.44397,-1.16496 0,-1.6092 l 0.99192,-0.99166 0.99192,-0.99192 c 0.44397,-0.44397 1.16496,-0.44397 1.60893,0 z m -4.98766,-4.34763 0.98796,0.98795 0.98795,0.98795 c 0.44635,0.44609 0.44635,1.17052 0,1.61661 l -0.98795,0.98822 -0.98796,0.98795 c -0.44608,0.44609 -1.17051,0.44609 -1.6166,0 l -0.98822,-0.98795 -0.98795,-0.98822 c -0.44609,-0.44609 -0.44609,-1.17052 0,-1.61661 l 0.98795,-0.98795 0.98822,-0.98795 c 0.44609,-0.44636 1.17052,-0.44636 1.6166,0 z m -4.91913,4.34763 0.99192,0.99192 0.99166,0.99166 c 0.44424,0.44424 0.44424,1.16496 0,1.6092 l -0.99166,0.99165 -0.99192,0.99193 c -0.44397,0.44397 -1.16496,0.44397 -1.60893,0 l -0.99192,-0.99193 -0.99193,-0.99165 c -0.44397,-0.44424 -0.44397,-1.16496 0,-1.6092 l 0.99193,-0.99166 0.99192,-0.99192 c 0.44397,-0.44397 1.16496,-0.44397 1.60893,0 z" />
    </g>
  </g>
</svg>
