<?xml version="1.0" encoding="UTF-8" standalone="no"?>
<!-- Created with Inkscape (http://www.inkscape.org/) -->

<svg
   xmlns:dc="http://purl.org/dc/elements/1.1/"
   xmlns:cc="http://creativecommons.org/ns#"
   xmlns:rdf="http://www.w3.org/1999/02/22-rdf-syntax-ns#"
   xmlns:svg="http://www.w3.org/2000/svg"
   xmlns="http://www.w3.org/2000/svg"
   xmlns:sodipodi="http://sodipodi.sourceforge.net/DTD/sodipodi-0.dtd"
   xmlns:inkscape="http://www.inkscape.org/namespaces/inkscape"
   width="100"
   height="100"
   viewBox="0 0 26.458334 26.458333"
   version="1.1"
   id="svg8"
   inkscape:version="0.92.3 (2405546, 2018-03-11)"
   sodipodi:docname="rdp protocol.svg">
  <defs
     id="defs2" />
  <sodipodi:namedview
     id="base"
     pagecolor="#ffffff"
     bordercolor="#666666"
     borderopacity="1.0"
     inkscape:pageopacity="0"
     inkscape:pageshadow="2"
     inkscape:zoom="2.0986883"
     inkscape:cx="-24.33155"
     inkscape:cy="44.523615"
     inkscape:document-units="px"
     inkscape:current-layer="layer1"
     inkscape:document-rotation="0"
     showgrid="false"
     borderlayer="true"
     inkscape:showpageshadow="true"
     units="px"
     inkscape:pagecheckerboard="false"
     showguides="true"
     inkscape:window-width="1366"
     inkscape:window-height="715"
     inkscape:window-x="0"
     inkscape:window-y="0"
     inkscape:window-maximized="1"
     objecttolerance="10"
     guidetolerance="10"
     inkscape:snap-tangential="true"
     inkscape:snap-perpendicular="true"
     fit-margin-top="0"
     fit-margin-left="0"
     fit-margin-right="0"
     fit-margin-bottom="0">
    <inkscape:grid
       type="xygrid"
       id="grid10"
       dotted="false"
       originx="-190.61239"
       originy="-78.157086" />
  </sodipodi:namedview>
  <metadata
     id="metadata5">
    <rdf:RDF>
      <cc:Work
         rdf:about="">
        <dc:format>image/svg+xml</dc:format>
        <dc:type
           rdf:resource="http://purl.org/dc/dcmitype/StillImage" />
        <dc:title></dc:title>
        <cc:license
           rdf:resource="" />
      </cc:Work>
    </rdf:RDF>
  </metadata>
  <g
     inkscape:label="Layer 1"
     inkscape:groupmode="layer"
     id="layer1"
     transform="translate(-190.61238,-192.38458)">
    <g
       transform="matrix(0.26458333,0,0,0.26458333,153.78079,124.26165)"
       style="isolation:isolate"
       id="RDP Icons">
      <g
         id="Group" />
      <g
         id="g50">
        <path
           d="m 139.626,307.472 c 0,-27.364 22.216,-49.58 49.58,-49.58 27.364,0 49.58,22.216 49.58,49.58 0,27.364 -22.216,49.581 -49.58,49.581 -27.364,0 -49.58,-22.217 -49.58,-49.581 z"
           id="path48"
           inkscape:connector-curvature="0"
           style="fill:#000000" />
      </g>
      <g
         id="g62">
        <g
           id="g52" />
        <g
           id="g54" />
        <g
           id="g56" />
        <g
           id="g60">
          <g
             id="g58" />
        </g>
      </g>
    </g>
    <g
       id="g831"
       transform="translate(0.20117925,-0.3392995)">
      <path
         style="isolation:isolate;fill:#ffffff;stroke-width:0.26458332"
         inkscape:connector-curvature="0"
         id="path71"
         d="m 198.46707,202.16094 1.37716,1.37742 1.37742,1.37742 c 0.44661,0.44635 0.44661,1.17131 0,1.61793 l -1.37742,1.37742 -1.37716,1.37742 c -0.44662,0.44635 -1.17157,0.44635 -1.61793,0 l -1.37742,-1.37742 -1.37742,-1.37742 c -0.44662,-0.44662 -0.44662,-1.17158 0,-1.61793 l 1.37742,-1.37742 1.37742,-1.37742 c 0.44636,-0.44635 1.17131,-0.44635 1.61793,0 z" />
      <path
         style="isolation:isolate;fill:#ffffff;stroke-width:0.26458332"
         inkscape:connector-curvature="0"
         id="path73"
         d="m 204.53926,197.21164 1.37742,1.37743 1.37742,1.37742 c 0.44662,0.44661 0.44662,1.17131 0,1.61792 l -1.37742,1.37742 -1.37742,1.37742 c -0.44635,0.44636 -1.17131,0.44636 -1.61793,0 l -1.37716,-1.37742 -1.37742,-1.37742 c -0.44661,-0.44661 -0.44661,-1.17131 0,-1.61792 l 1.37742,-1.37742 1.37716,-1.37743 c 0.44662,-0.44635 1.17158,-0.44635 1.61793,0 z" />
      <path
         style="isolation:isolate;fill:#ffffff;stroke-width:0.26458332"
         inkscape:connector-curvature="0"
         id="path75"
         d="m 210.43179,202.16094 1.37742,1.37742 1.37742,1.37742 c 0.44636,0.44635 0.44636,1.17131 0,1.61793 l -1.37742,1.37742 -1.37742,1.37742 c -0.44635,0.44635 -1.17131,0.44635 -1.61792,0 l -1.37743,-1.37742 -1.37742,-1.37742 c -0.44635,-0.44662 -0.44635,-1.17158 0,-1.61793 l 1.37742,-1.37742 1.37743,-1.37742 c 0.44661,-0.44635 1.17157,-0.44635 1.61792,0 z" />
      <path
         style="isolation:isolate;fill:#ffffff;stroke-width:0.26458332"
         inkscape:connector-curvature="0"
         id="path77"
         d="m 204.53926,207.56691 1.37742,1.37742 1.37742,1.37742 c 0.44662,0.44635 0.44662,1.17131 0,1.61766 l -1.37742,1.37742 -1.37742,1.37742 c -0.44635,0.44662 -1.17131,0.44662 -1.61793,0 l -1.37716,-1.37742 -1.37742,-1.37742 c -0.44661,-0.44635 -0.44661,-1.17131 0,-1.61766 l 1.37742,-1.37742 1.37716,-1.37742 c 0.44662,-0.44662 1.17158,-0.44662 1.61793,0 z" />
    </g>
  </g>
</svg>
