<?xml version="1.0" encoding="UTF-8" standalone="no"?>
<!-- Created with Inkscape (http://www.inkscape.org/) -->

<svg
   width="24"
   height="24"
   viewBox="0 0 24 24"
   version="1.1"
   id="svg5605"
   inkscape:version="1.2.2 (b0a8486541, 2022-12-01)"
   sodipodi:docname="org.remmina.Remmina-password-conceal-symbolic.svg"
   xmlns:inkscape="http://www.inkscape.org/namespaces/inkscape"
   xmlns:sodipodi="http://sodipodi.sourceforge.net/DTD/sodipodi-0.dtd"
   xmlns="http://www.w3.org/2000/svg"
   xmlns:svg="http://www.w3.org/2000/svg"
   xmlns:rdf="http://www.w3.org/1999/02/22-rdf-syntax-ns#"
   xmlns:cc="http://creativecommons.org/ns#"
   xmlns:dc="http://purl.org/dc/elements/1.1/">
  <title
     id="title1662">org.remmina.Remmina-password-conceal-symbolic</title>
  <sodipodi:namedview
     id="namedview5607"
     pagecolor="#ffffff"
     bordercolor="#000000"
     borderopacity="0.25"
     inkscape:showpageshadow="2"
     inkscape:pageopacity="0.0"
     inkscape:pagecheckerboard="0"
     inkscape:deskcolor="#d1d1d1"
     inkscape:document-units="px"
     showgrid="true"
     showguides="true"
     inkscape:lockguides="false"
     inkscape:zoom="32"
     inkscape:cx="8.734375"
     inkscape:cy="13.453125"
     inkscape:window-width="1920"
     inkscape:window-height="1024"
     inkscape:window-x="1920"
     inkscape:window-y="24"
     inkscape:window-maximized="1"
     inkscape:current-layer="layer1">
    <sodipodi:guide
       position="12,12"
       orientation="0,24"
       id="guide8269"
       inkscape:locked="false" />
    <sodipodi:guide
       position="12,12"
       orientation="24,0"
       id="guide8271"
       inkscape:locked="false" />
    <inkscape:grid
       type="xygrid"
       id="grid13722" />
    <sodipodi:guide
       position="1,32"
       orientation="0,24"
       id="guide19220"
       inkscape:locked="false" />
  </sodipodi:namedview>
  <defs
     id="defs5602">
    <inkscape:path-effect
       effect="spiro"
       id="path-effect9695"
       is_visible="true"
       lpeversion="1" />
    <inkscape:path-effect
       effect="bspline"
       id="path-effect67426"
       is_visible="true"
       lpeversion="1"
       weight="33.333333"
       steps="2"
       helper_size="0"
       apply_no_weight="true"
       apply_with_weight="true"
       only_selected="false" />
    <inkscape:path-effect
       effect="spiro"
       id="path-effect20049"
       is_visible="true"
       lpeversion="1" />
    <inkscape:path-effect
       effect="spiro"
       id="path-effect20049-7"
       is_visible="true"
       lpeversion="1" />
    <inkscape:path-effect
       effect="spiro"
       id="path-effect20049-7-2"
       is_visible="true"
       lpeversion="1" />
  </defs>
  <g
     inkscape:label="Layer 1"
     inkscape:groupmode="layer"
     id="layer1">
    <path
       id="path42927"
       style="color:#000000;fill:#333333;stroke-width:1.05138;-inkscape-stroke:none;fill-opacity:1"
       d="M 11.974609 2 C 11.815172 2 11.655229 2.0048478 11.496094 2.0117188 C 11.374127 2.0169887 11.252542 2.0258923 11.130859 2.0351562 C 11.089179 2.0383262 11.045539 2.0393288 11.003906 2.0429688 C 10.909686 2.0511987 10.816638 2.0636078 10.722656 2.0742188 C 10.651416 2.0822587 10.580852 2.0882553 10.509766 2.0976562 C 10.433896 2.1076892 10.358869 2.1212415 10.283203 2.1328125 C 10.194283 2.1464135 10.104231 2.1581171 10.015625 2.1738281 C 9.9495031 2.1855491 9.88429 2.1999996 9.8183594 2.2128906 C 9.7197435 2.2321746 9.6215808 2.2515535 9.5234375 2.2734375 C 9.4652156 2.2864195 9.4076508 2.3005611 9.3496094 2.3144531 C 9.2503565 2.3382091 9.149465 2.3622719 9.0507812 2.3886719 C 8.9588453 2.4132669 8.8687418 2.4399239 8.7773438 2.4667969 C 8.7284488 2.4811689 8.6795907 2.4947456 8.6308594 2.5097656 C 8.526755 2.5418676 8.4216712 2.5762838 8.3183594 2.6113281 C 8.2527844 2.6335671 8.1882809 2.6582256 8.1230469 2.6816406 C 8.043865 2.7100616 7.9653729 2.7374312 7.8867188 2.7675781 C 7.8023318 2.7999281 7.7185088 2.8328645 7.6347656 2.8671875 C 7.5797119 2.8897477 7.523513 2.9140922 7.46875 2.9375 C 7.3574582 2.9850722 7.2467451 3.0309817 7.1367188 3.0820312 C 7.0973668 3.1002935 7.0587143 3.1199686 7.0195312 3.1386719 C 6.9185002 3.1868885 6.8186088 3.2379244 6.71875 3.2890625 C 6.6584813 3.3199292 6.5969312 3.3508894 6.5371094 3.3828125 C 6.4464867 3.4311703 6.3571322 3.480483 6.2675781 3.53125 C 6.2159264 3.5605289 6.1645643 3.5890653 6.1132812 3.6191406 C 6.0251425 3.6708339 5.9385723 3.7252662 5.8515625 3.7792969 C 5.7926508 3.8158823 5.732203 3.852975 5.6738281 3.890625 C 5.5940395 3.9420777 5.5162508 3.9953998 5.4375 4.0488281 C 5.3709065 4.0940177 5.3041061 4.1389547 5.2382812 4.1855469 C 5.1134891 4.2738561 4.9890932 4.3637264 4.8671875 4.4570312 C 4.8572375 4.4646412 4.8478206 4.4728198 4.8378906 4.4804688 C 4.8301606 4.4864287 4.8221651 4.4920759 4.8144531 4.4980469 C 4.6942983 4.5910509 4.5761289 4.6873338 4.4589844 4.7851562 C 4.2779667 4.9363166 4.1025132 5.0940666 3.9296875 5.2558594 C 3.8126065 5.3654658 3.697171 5.4775289 3.5839844 5.5917969 C 3.470241 5.7066269 3.3597004 5.8239999 3.25 5.9433594 C 2.9212747 6.3010287 2.6107513 6.6771311 2.3203125 7.0722656 C 2.2237299 7.2036641 2.1272863 7.3355159 2.0351562 7.4707031 C 1.9497023 7.5960943 1.8666887 7.7250114 1.7851562 7.8535156 C 1.7765463 7.8670676 1.7683306 7.8809443 1.7597656 7.8945312 C 1.6894177 8.0062565 1.6220172 8.1184653 1.5546875 8.2324219 C 1.5338495 8.2676388 1.5127335 8.3005128 1.4921875 8.3359375 C 1.4156136 8.4681674 1.3400324 8.6032519 1.2675781 8.7382812 C 1.1921412 8.8788701 1.1197018 9.0225484 1.0488281 9.1660156 C 1.0421281 9.1795626 1.0359579 9.1915061 1.0292969 9.2050781 C 0.97447783 9.3169378 0.92113689 9.4294608 0.86914062 9.5429688 C 0.83691356 9.6132207 0.80456647 9.6849966 0.7734375 9.7558594 C 0.73520724 9.8430053 0.69866386 9.9314972 0.66210938 10.019531 C 0.63028391 10.096071 0.59890014 10.170848 0.56835938 10.248047 C 0.53521301 10.331947 0.50231939 10.415364 0.47070312 10.5 C 0.43969786 10.58289 0.40842342 10.666427 0.37890625 10.75 C 0.35135358 10.8281 0.32311787 10.905696 0.296875 10.984375 C 0.24961795 11.125921 0.20700636 11.270741 0.1640625 11.414062 C 0.15779651 11.434992 0.15070454 11.455593 0.14453125 11.476562 C 0.09436579 11.646791 0.045952681 11.815822 0.001953125 11.988281 C 0.0010424759 11.991081 0.00090722909 11.995247 0 11.998047 L 0 12 L 0 12.001953 C 0.0008999994 12.004722 0.0010424259 12.008951 0.001953125 12.011719 C 0.045953201 12.184178 0.09436632 12.353209 0.14453125 12.523438 C 0.15070424 12.544417 0.15779251 12.564998 0.1640625 12.585938 C 0.20700601 12.729259 0.24961805 12.87408 0.296875 13.015625 C 0.32311797 13.094304 0.35135328 13.1719 0.37890625 13.25 C 0.40842322 13.333574 0.43969806 13.41711 0.47070312 13.5 C 0.50231919 13.584637 0.53521341 13.668053 0.56835938 13.751953 C 0.59890024 13.829151 0.63028341 13.903929 0.66210938 13.980469 C 0.69866347 14.068503 0.73520744 14.157001 0.7734375 14.244141 C 0.80456647 14.315003 0.83691366 14.386771 0.86914062 14.457031 C 0.92113689 14.570538 0.97447783 14.683062 1.0292969 14.794922 C 1.0359569 14.808492 1.0421281 14.820444 1.0488281 14.833984 C 1.1197019 14.977451 1.1921412 15.12113 1.2675781 15.261719 C 1.3400325 15.396748 1.4156146 15.531839 1.4921875 15.664062 C 1.5127335 15.699482 1.5338495 15.732368 1.5546875 15.767578 C 1.6220172 15.881534 1.6894187 15.993744 1.7597656 16.105469 C 1.7683316 16.119059 1.7765463 16.132934 1.7851562 16.146484 C 1.8666887 16.274987 1.9497024 16.403906 2.0351562 16.529297 C 2.1272863 16.664484 2.2237295 16.796336 2.3203125 16.927734 C 2.6107513 17.322866 2.9212746 17.698973 3.25 18.056641 C 3.3597005 18.176 3.470241 18.293373 3.5839844 18.408203 C 3.6971711 18.52247 3.8126065 18.634534 3.9296875 18.744141 C 4.1025133 18.905932 4.2779666 19.063683 4.4589844 19.214844 C 4.5761289 19.312665 4.6942982 19.408935 4.8144531 19.501953 C 4.8221651 19.507923 4.8301606 19.513531 4.8378906 19.519531 C 4.8478206 19.527181 4.8572375 19.535369 4.8671875 19.542969 C 4.9890932 19.636273 5.113489 19.726153 5.2382812 19.814453 C 5.3041061 19.861051 5.3709071 19.905982 5.4375 19.951172 C 5.5162508 20.004601 5.5940392 20.057925 5.6738281 20.109375 C 5.732203 20.147037 5.7926506 20.184123 5.8515625 20.220703 C 5.9385723 20.274741 6.0251423 20.329169 6.1132812 20.380859 C 6.1645643 20.410929 6.2159262 20.43947 6.2675781 20.46875 C 6.3571322 20.51951 6.4464865 20.568838 6.5371094 20.617188 C 6.5969312 20.649107 6.6584811 20.680068 6.71875 20.710938 C 6.8186089 20.762076 6.9185001 20.813108 7.0195312 20.861328 C 7.0587138 20.880028 7.0973668 20.899699 7.1367188 20.917969 C 7.2467452 20.969008 7.3574582 21.01492 7.46875 21.0625 C 7.523513 21.0859 7.5797117 21.110193 7.6347656 21.132812 C 7.7185088 21.167142 7.8023318 21.200082 7.8867188 21.232422 C 7.965373 21.262562 8.043865 21.289939 8.1230469 21.318359 C 8.1882809 21.341779 8.2527844 21.366422 8.3183594 21.388672 C 8.4216712 21.423713 8.526755 21.458134 8.6308594 21.490234 C 8.6795908 21.505244 8.7284488 21.518823 8.7773438 21.533203 C 8.8687418 21.560063 8.9588453 21.586728 9.0507812 21.611328 C 9.1494651 21.637728 9.2503565 21.661797 9.3496094 21.685547 C 9.4076509 21.699447 9.4652156 21.713583 9.5234375 21.726562 C 9.6215809 21.748452 9.7197435 21.767819 9.8183594 21.787109 C 9.88429 21.800019 9.9495031 21.814442 10.015625 21.826172 C 10.104232 21.841882 10.194283 21.853588 10.283203 21.867188 C 10.358869 21.878757 10.433896 21.892344 10.509766 21.902344 C 10.580851 21.911744 10.651416 21.917781 10.722656 21.925781 C 10.816637 21.936401 10.909686 21.948831 11.003906 21.957031 C 11.045539 21.960631 11.089179 21.961644 11.130859 21.964844 C 11.252543 21.974084 11.374127 21.983081 11.496094 21.988281 C 11.655229 21.995131 11.815172 22 11.974609 22 C 12.134003 22 12.292083 21.995181 12.451172 21.988281 C 12.573138 21.983021 12.694723 21.974044 12.816406 21.964844 C 12.858059 21.961744 12.901759 21.960731 12.943359 21.957031 C 13.037579 21.948811 13.130629 21.936301 13.224609 21.925781 C 13.295854 21.917751 13.36641 21.911744 13.4375 21.902344 C 13.513368 21.892314 13.588393 21.878757 13.664062 21.867188 C 13.75298 21.853598 13.843031 21.841882 13.931641 21.826172 C 13.997763 21.814452 14.062976 21.799999 14.128906 21.787109 C 14.227521 21.767819 14.325698 21.748452 14.423828 21.726562 C 14.482051 21.713583 14.539616 21.699427 14.597656 21.685547 C 14.696909 21.661797 14.797804 21.637728 14.896484 21.611328 C 14.988422 21.586748 15.078522 21.560073 15.169922 21.533203 C 15.218926 21.518803 15.267556 21.505304 15.316406 21.490234 C 15.420511 21.458133 15.525595 21.423722 15.628906 21.388672 C 15.694482 21.366432 15.758969 21.341769 15.824219 21.318359 C 15.903401 21.289939 15.981897 21.262562 16.060547 21.232422 C 16.144934 21.200082 16.22876 21.167132 16.3125 21.132812 C 16.367554 21.110253 16.423756 21.08591 16.478516 21.0625 C 16.589809 21.014931 16.70052 20.969029 16.810547 20.917969 C 16.849874 20.899729 16.888594 20.880008 16.927734 20.861328 C 17.028766 20.813114 17.128666 20.762087 17.228516 20.710938 C 17.288785 20.680078 17.350336 20.649107 17.410156 20.617188 C 17.500779 20.56883 17.590138 20.51952 17.679688 20.46875 C 17.731339 20.43946 17.782704 20.410929 17.833984 20.380859 C 17.922123 20.329169 18.008683 20.274733 18.095703 20.220703 C 18.154616 20.184111 18.215068 20.147025 18.273438 20.109375 C 18.353224 20.057918 18.431016 20.004612 18.509766 19.951172 C 18.576361 19.905992 18.643164 19.861043 18.708984 19.814453 C 18.767046 19.773346 18.823419 19.731633 18.880859 19.689453 C 18.964689 19.627908 19.050343 19.565803 19.132812 19.501953 C 19.252967 19.408948 19.371136 19.312674 19.488281 19.214844 C 19.669299 19.063684 19.844752 18.905933 20.017578 18.744141 C 20.134658 18.634536 20.250094 18.52247 20.363281 18.408203 C 20.477024 18.293373 20.587566 18.176 20.697266 18.056641 C 21.025988 17.698972 21.336514 17.322867 21.626953 16.927734 C 21.723537 16.796336 21.820009 16.66448 21.912109 16.529297 C 21.997563 16.403908 22.080569 16.274987 22.162109 16.146484 C 22.168539 16.136364 22.175241 16.127267 22.181641 16.117188 C 22.183841 16.113738 22.1853 16.108869 22.1875 16.105469 C 22.257848 15.993743 22.325248 15.881535 22.392578 15.767578 C 22.407188 15.742868 22.42303 15.718149 22.4375 15.693359 C 22.44368 15.682759 22.448978 15.674692 22.455078 15.664062 C 22.531654 15.531834 22.607248 15.396747 22.679688 15.261719 C 22.755121 15.121129 22.827568 14.977451 22.898438 14.833984 C 22.900937 14.828874 22.90375 14.823459 22.90625 14.818359 C 22.91037 14.809899 22.913869 14.803322 22.917969 14.794922 C 22.972787 14.683063 23.026125 14.570539 23.078125 14.457031 C 23.110345 14.386778 23.142698 14.315001 23.173828 14.244141 C 23.212066 14.156997 23.248606 14.068509 23.285156 13.980469 C 23.316986 13.903922 23.348366 13.829153 23.378906 13.751953 C 23.412056 13.668056 23.444943 13.58464 23.476562 13.5 C 23.507562 13.417112 23.538839 13.33358 23.568359 13.25 C 23.595909 13.171896 23.624151 13.094305 23.650391 13.015625 C 23.695997 12.878994 23.737847 12.739936 23.779297 12.601562 C 23.797907 12.554064 23.817658 12.504551 23.835938 12.457031 C 23.841387 12.442901 23.848216 12.430166 23.853516 12.416016 C 23.858086 12.404226 23.862788 12.394612 23.867188 12.382812 C 23.914339 12.256909 23.9584 12.12943 24 12.001953 L 23.990234 12 L 24 11.998047 C 23.9584 11.870569 23.914339 11.74309 23.867188 11.617188 C 23.862788 11.605388 23.858086 11.595774 23.853516 11.583984 C 23.848216 11.569834 23.841387 11.557099 23.835938 11.542969 C 23.817658 11.495449 23.797907 11.445927 23.779297 11.398438 C 23.737847 11.260064 23.696007 11.121006 23.650391 10.984375 C 23.624151 10.905695 23.595909 10.828104 23.568359 10.75 C 23.538839 10.66642 23.507562 10.582888 23.476562 10.5 C 23.444943 10.41537 23.412056 10.331945 23.378906 10.248047 C 23.348366 10.170847 23.316986 10.096078 23.285156 10.019531 C 23.248606 9.9314983 23.212066 9.843004 23.173828 9.7558594 C 23.142698 9.6849964 23.110345 9.6132212 23.078125 9.5429688 C 23.026125 9.4294608 22.972787 9.3169378 22.917969 9.2050781 C 22.913869 9.1966081 22.91037 9.1900976 22.90625 9.1816406 C 22.90375 9.1765506 22.900937 9.1711066 22.898438 9.1660156 C 22.827568 9.0225484 22.755122 8.8788701 22.679688 8.7382812 C 22.607238 8.6032519 22.531654 8.4681676 22.455078 8.3359375 C 22.448978 8.3253155 22.44368 8.3172406 22.4375 8.3066406 C 22.42303 8.2818476 22.407188 8.2571129 22.392578 8.2324219 C 22.325248 8.1184653 22.257848 8.0062565 22.1875 7.8945312 C 22.1853 7.8911013 22.183841 7.8862335 22.181641 7.8828125 C 22.175241 7.8726675 22.168539 7.8636426 22.162109 7.8535156 C 22.080569 7.7250122 21.997563 7.5960943 21.912109 7.4707031 C 21.820007 7.3355122 21.723537 7.2036641 21.626953 7.0722656 C 21.336514 6.6771311 21.025988 6.3010287 20.697266 5.9433594 C 20.587565 5.8239999 20.477024 5.7066269 20.363281 5.5917969 C 20.250093 5.4775289 20.134658 5.3654658 20.017578 5.2558594 C 19.844751 5.0940666 19.669299 4.9363166 19.488281 4.7851562 C 19.371136 4.6873338 19.252967 4.5910517 19.132812 4.4980469 C 19.05034 4.4342068 18.964689 4.3720927 18.880859 4.3105469 C 18.823414 4.2683651 18.767046 4.2266438 18.708984 4.1855469 C 18.643159 4.1389547 18.576361 4.0940177 18.509766 4.0488281 C 18.431016 3.9953993 18.353224 3.9420777 18.273438 3.890625 C 18.215068 3.852975 18.154616 3.8158823 18.095703 3.7792969 C 18.008693 3.7252658 17.922124 3.6708334 17.833984 3.6191406 C 17.782704 3.5890653 17.731338 3.56053 17.679688 3.53125 C 17.590138 3.4804837 17.500779 3.431171 17.410156 3.3828125 C 17.350336 3.3508894 17.288785 3.3199292 17.228516 3.2890625 C 17.128656 3.237924 17.028766 3.1868891 16.927734 3.1386719 C 16.888594 3.1199908 16.849863 3.1002712 16.810547 3.0820312 C 16.70052 3.0309813 16.589808 2.985073 16.478516 2.9375 C 16.423756 2.9140922 16.367554 2.8897475 16.3125 2.8671875 C 16.22876 2.8328645 16.144934 2.7999281 16.060547 2.7675781 C 15.981897 2.7374322 15.903401 2.7100636 15.824219 2.6816406 C 15.758979 2.6582236 15.694482 2.6335651 15.628906 2.6113281 C 15.525595 2.5762842 15.42051 2.541868 15.316406 2.5097656 C 15.267556 2.4947026 15.218926 2.4812079 15.169922 2.4667969 C 15.078522 2.4399239 14.988421 2.4132669 14.896484 2.3886719 C 14.797804 2.3622729 14.696909 2.3382091 14.597656 2.3144531 C 14.539616 2.3005621 14.48205 2.2864185 14.423828 2.2734375 C 14.325688 2.2515535 14.227521 2.2321746 14.128906 2.2128906 C 14.062976 2.2000006 13.997764 2.1855501 13.931641 2.1738281 C 13.843031 2.1581161 13.752981 2.1464125 13.664062 2.1328125 C 13.588393 2.1212415 13.513368 2.1076892 13.4375 2.0976562 C 13.36641 2.0882563 13.295854 2.0822617 13.224609 2.0742188 C 13.130629 2.0636078 13.037579 2.0512037 12.943359 2.0429688 C 12.901759 2.0393388 12.858049 2.0383362 12.816406 2.0351562 C 12.694723 2.0258863 12.573138 2.0169857 12.451172 2.0117188 C 12.292083 2.0048559 12.134003 2 11.974609 2 z M 12 5.9179688 C 12.140878 5.9179688 12.281015 5.9207013 12.421875 5.9257812 C 12.436855 5.9263224 12.451807 5.9251813 12.466797 5.9257812 C 12.586773 5.9306012 12.708336 5.9368925 12.828125 5.9453125 C 12.849065 5.9467725 12.869695 5.9475988 12.890625 5.9492188 C 13.016117 5.9587087 13.140532 5.970948 13.265625 5.984375 C 13.396581 5.998421 13.527874 6.0168483 13.658203 6.0351562 C 13.678503 6.0379962 13.69846 6.0399588 13.71875 6.0429688 C 13.831972 6.0594587 13.946005 6.0780003 14.058594 6.0976562 C 14.084614 6.1022162 14.110719 6.1085623 14.136719 6.1132812 C 14.227539 6.1297542 14.315925 6.1455425 14.40625 6.1640625 C 14.46614 6.1763615 14.526294 6.1879859 14.585938 6.2011719 C 14.652827 6.2159399 14.718601 6.234111 14.785156 6.25 C 14.838416 6.262729 14.894242 6.2717223 14.947266 6.2851562 C 15.033126 6.3068882 15.117921 6.3318958 15.203125 6.3554688 C 15.284035 6.3778807 15.365042 6.4017163 15.445312 6.4257812 C 15.537382 6.4533492 15.627604 6.4800537 15.71875 6.5097656 C 15.831667 6.5466016 15.943316 6.5868668 16.054688 6.6269531 C 16.162038 6.6655961 16.269215 6.7044681 16.375 6.7460938 C 16.38725 6.7509137 16.399879 6.7568778 16.412109 6.7617188 C 16.496479 6.7952497 16.580779 6.8298228 16.664062 6.8652344 C 16.710742 6.8850724 16.756412 6.9053673 16.802734 6.9257812 C 16.868794 6.9549142 16.932744 6.985307 16.998047 7.015625 C 17.044197 7.037039 17.090967 7.0580811 17.136719 7.0800781 C 17.217779 7.1190671 17.299137 7.1584041 17.378906 7.1992188 C 17.401006 7.2105277 17.423303 7.2209769 17.445312 7.2324219 C 17.539272 7.2813068 17.632583 7.3314171 17.724609 7.3828125 L 17.726562 7.3847656 C 17.928113 7.4973965 18.124985 7.6138239 18.316406 7.7382812 C 18.424571 7.8086062 18.531878 7.8809973 18.636719 7.9550781 C 18.639219 7.9568881 18.642031 7.9591375 18.644531 7.9609375 C 18.658091 7.9705275 18.670104 7.9825305 18.683594 7.9921875 C 18.779734 8.0609804 18.875549 8.127385 18.96875 8.1992188 C 19.0637 8.2724007 19.156257 8.347623 19.248047 8.4238281 C 19.318807 8.4825511 19.388214 8.5430641 19.457031 8.6035156 C 19.479361 8.6231296 19.501318 8.6423214 19.523438 8.6621094 C 19.585217 8.7173733 19.644938 8.7754108 19.705078 8.8320312 C 19.739478 8.8644272 19.776698 8.8968595 19.810547 8.9296875 C 19.858547 8.9762315 19.904287 9.0229215 19.951172 9.0703125 C 20.004472 9.1241644 20.05559 9.1775108 20.107422 9.2324219 C 20.124372 9.2503759 20.141413 9.2690544 20.158203 9.2871094 C 20.230353 9.3647583 20.301908 9.4418498 20.371094 9.5214844 C 20.392914 9.5465883 20.414037 9.5723613 20.435547 9.5976562 C 20.480227 9.6502002 20.524977 9.7025094 20.568359 9.7558594 C 20.610309 9.8074623 20.652659 9.8597771 20.693359 9.9121094 C 20.740749 9.9730313 20.786359 10.035778 20.832031 10.097656 C 20.854281 10.127796 20.876598 10.15713 20.898438 10.1875 C 20.944707 10.25184 20.988808 10.317518 21.033203 10.382812 C 21.062453 10.425842 21.092664 10.470235 21.121094 10.513672 C 21.163084 10.577842 21.203994 10.642034 21.244141 10.707031 C 21.265461 10.741531 21.285851 10.775811 21.306641 10.810547 C 21.341981 10.869587 21.376361 10.928611 21.410156 10.988281 C 21.444746 11.049321 21.478766 11.110202 21.511719 11.171875 C 21.525669 11.197995 21.539074 11.225723 21.552734 11.251953 C 21.589994 11.323513 21.627074 11.394462 21.662109 11.466797 C 21.670809 11.484857 21.67885 11.501401 21.6875 11.519531 C 21.6945 11.539151 21.702104 11.558505 21.708984 11.578125 C 21.726604 11.628345 21.746712 11.679986 21.763672 11.730469 C 21.793592 11.819479 21.821909 11.909923 21.849609 12 C 21.821909 12.090077 21.793592 12.180521 21.763672 12.269531 C 21.746702 12.320014 21.726604 12.371645 21.708984 12.421875 C 21.702104 12.441515 21.6945 12.460849 21.6875 12.480469 C 21.67885 12.498609 21.670809 12.515143 21.662109 12.533203 C 21.627074 12.605537 21.589994 12.676497 21.552734 12.748047 C 21.539074 12.774267 21.525669 12.802005 21.511719 12.828125 C 21.478766 12.889797 21.444746 12.950679 21.410156 13.011719 C 21.376362 13.071388 21.341981 13.130413 21.306641 13.189453 C 21.285851 13.224185 21.265461 13.258469 21.244141 13.292969 C 21.203994 13.357965 21.163084 13.422158 21.121094 13.486328 C 21.092664 13.529775 21.062453 13.574158 21.033203 13.617188 C 20.988807 13.682481 20.944707 13.74816 20.898438 13.8125 C 20.876598 13.84286 20.854281 13.872204 20.832031 13.902344 C 20.786359 13.964223 20.740749 14.026971 20.693359 14.087891 C 20.652659 14.140224 20.610309 14.192541 20.568359 14.244141 C 20.524977 14.297492 20.480227 14.349794 20.435547 14.402344 C 20.414037 14.427644 20.392914 14.453416 20.371094 14.478516 C 20.301907 14.558152 20.230353 14.635251 20.158203 14.712891 C 20.141413 14.730951 20.124372 14.749618 20.107422 14.767578 C 20.05559 14.82249 20.004472 14.875828 19.951172 14.929688 C 19.904287 14.977086 19.858547 15.023763 19.810547 15.070312 C 19.776698 15.103142 19.739478 15.135569 19.705078 15.167969 C 19.644938 15.22459 19.585217 15.282631 19.523438 15.337891 C 19.501318 15.357681 19.479361 15.376874 19.457031 15.396484 C 19.388214 15.456935 19.318807 15.517452 19.248047 15.576172 C 19.156256 15.652377 19.0637 15.727601 18.96875 15.800781 C 18.875549 15.872615 18.779734 15.939033 18.683594 16.007812 C 18.670104 16.017462 18.658091 16.029563 18.644531 16.039062 C 18.642031 16.040862 18.639219 16.043122 18.636719 16.044922 C 18.531878 16.119003 18.424571 16.191399 18.316406 16.261719 C 18.124985 16.386177 17.928113 16.502604 17.726562 16.615234 L 17.724609 16.617188 C 17.632583 16.668577 17.539272 16.718688 17.445312 16.767578 C 17.423303 16.779018 17.401006 16.789471 17.378906 16.800781 C 17.299137 16.841589 17.217779 16.880932 17.136719 16.919922 C 17.090968 16.941912 17.044197 16.962955 16.998047 16.984375 C 16.932744 17.014705 16.868794 17.045089 16.802734 17.074219 C 16.756413 17.094629 16.710732 17.114936 16.664062 17.134766 C 16.580779 17.170187 16.496479 17.204751 16.412109 17.238281 C 16.399879 17.243171 16.38725 17.249106 16.375 17.253906 C 16.269214 17.295533 16.162039 17.334407 16.054688 17.373047 C 15.943316 17.413133 15.831667 17.453394 15.71875 17.490234 C 15.627604 17.519944 15.537382 17.546649 15.445312 17.574219 C 15.365041 17.598289 15.284035 17.622121 15.203125 17.644531 C 15.117921 17.668121 15.033126 17.693114 14.947266 17.714844 C 14.894242 17.728284 14.838416 17.73727 14.785156 17.75 C 14.718601 17.76589 14.652827 17.784058 14.585938 17.798828 C 14.526293 17.812008 14.46614 17.823638 14.40625 17.835938 C 14.315924 17.854437 14.227539 17.870239 14.136719 17.886719 C 14.110719 17.891499 14.084614 17.897844 14.058594 17.902344 C 13.946005 17.922004 13.831973 17.940541 13.71875 17.957031 C 13.69846 17.960031 13.678503 17.961944 13.658203 17.964844 C 13.527874 17.983154 13.396582 18.001585 13.265625 18.015625 C 13.140532 18.029045 13.016117 18.041381 12.890625 18.050781 C 12.869695 18.052381 12.849065 18.053288 12.828125 18.054688 C 12.708336 18.063097 12.586773 18.069419 12.466797 18.074219 C 12.451817 18.074819 12.436855 18.073677 12.421875 18.074219 C 12.281015 18.079319 12.140878 18.082031 12 18.082031 C 11.859149 18.082031 11.718953 18.079319 11.578125 18.074219 C 11.563145 18.073619 11.548183 18.074817 11.533203 18.074219 C 11.413227 18.069449 11.291666 18.063087 11.171875 18.054688 C 11.150915 18.053188 11.130335 18.052381 11.109375 18.050781 C 10.983884 18.041291 10.859469 18.029035 10.734375 18.015625 C 10.60342 18.001565 10.472128 17.983154 10.341797 17.964844 C 10.321577 17.962144 10.30146 17.959931 10.28125 17.957031 C 10.168029 17.940541 10.053997 17.921994 9.9414062 17.902344 C 9.9152373 17.897784 9.8894002 17.891519 9.8632812 17.886719 C 9.772448 17.870249 9.6840779 17.854467 9.59375 17.835938 C 9.5338578 17.823648 9.4737074 17.812018 9.4140625 17.798828 C 9.3472795 17.784058 9.2812897 17.76588 9.2148438 17.75 C 9.1614394 17.73726 9.1059053 17.728314 9.0527344 17.714844 C 8.9668726 17.693104 8.8820789 17.668101 8.796875 17.644531 C 8.7544759 17.632791 8.7121418 17.621565 8.6699219 17.609375 C 8.6646299 17.607875 8.6576337 17.605016 8.6523438 17.603516 C 8.6193208 17.593936 8.5875985 17.584119 8.5546875 17.574219 C 8.4628814 17.546699 8.3721399 17.519874 8.28125 17.490234 C 8.27795 17.489234 8.2747744 17.487428 8.2714844 17.486328 C 8.161907 17.450472 8.0534317 17.411967 7.9453125 17.373047 C 7.8379582 17.33441 7.7307802 17.295526 7.625 17.253906 C 7.612766 17.249016 7.6001066 17.243081 7.5878906 17.238281 C 7.503519 17.20474 7.4211745 17.170176 7.3378906 17.134766 C 7.2912126 17.114936 7.2435856 17.094639 7.1972656 17.074219 C 7.1312056 17.045079 7.0672571 17.014695 7.0019531 16.984375 C 6.9558043 16.962965 6.9090382 16.941932 6.8632812 16.919922 C 6.7822266 16.880934 6.7008627 16.841591 6.6210938 16.800781 C 6.5989578 16.789461 6.5767225 16.779048 6.5546875 16.767578 C 6.4607341 16.718688 6.3674165 16.668587 6.2753906 16.617188 L 6.2734375 16.615234 C 6.0718869 16.502603 5.8750147 16.386177 5.6835938 16.261719 C 5.5754293 16.191392 5.4681184 16.118982 5.3632812 16.044922 C 5.3607713 16.043022 5.3579887 16.040862 5.3554688 16.039062 C 5.3419078 16.029463 5.3299092 16.017412 5.3164062 16.007812 C 5.2202623 15.939019 5.1244509 15.872611 5.03125 15.800781 C 4.9364212 15.727702 4.84363 15.652262 4.7519531 15.576172 C 4.6812029 15.517448 4.6117897 15.456934 4.5429688 15.396484 C 4.5206718 15.376894 4.4986565 15.357651 4.4765625 15.337891 C 4.4147883 15.282625 4.3550608 15.224599 4.2949219 15.167969 C 4.2603081 15.135369 4.2235161 15.103332 4.1894531 15.070312 C 4.1414481 15.023753 4.0957241 14.977077 4.0488281 14.929688 C 3.9955362 14.87584 3.9444101 14.822488 3.8925781 14.767578 C 3.8755851 14.749558 3.8586319 14.731021 3.8417969 14.712891 C 3.7696399 14.635247 3.6980932 14.558146 3.6289062 14.478516 C 3.6070983 14.453416 3.5859601 14.427634 3.5644531 14.402344 C 3.5197726 14.3498 3.4750116 14.297501 3.4316406 14.244141 C 3.3896867 14.192539 3.3473446 14.140231 3.3066406 14.087891 C 3.2592518 14.026965 3.2136387 13.964214 3.1679688 13.902344 C 3.1456918 13.872174 3.1234255 13.84292 3.1015625 13.8125 C 3.0552938 13.748157 3.0111838 13.682477 2.9667969 13.617188 C 2.9375449 13.574141 2.9073292 13.529768 2.8789062 13.486328 C 2.8369125 13.422169 2.7960153 13.357969 2.7558594 13.292969 C 2.7344984 13.258367 2.7141934 13.224253 2.6933594 13.189453 C 2.6580167 13.130419 2.6236507 13.071409 2.5898438 13.011719 C 2.5552643 12.950678 2.5212292 12.889785 2.4882812 12.828125 C 2.4743623 12.802075 2.4628437 12.774207 2.4492188 12.748047 C 2.4118714 12.676352 2.3730026 12.605683 2.3378906 12.533203 C 2.3049277 12.465154 2.2731465 12.398768 2.2421875 12.330078 C 2.2245435 12.29093 2.2064381 12.252241 2.1894531 12.212891 C 2.1591922 12.142776 2.1315186 12.07104 2.1035156 12 C 2.1315186 11.92895 2.1591922 11.857224 2.1894531 11.787109 C 2.2064381 11.747749 2.2245425 11.70907 2.2421875 11.669922 C 2.2731465 11.601222 2.3049277 11.534845 2.3378906 11.466797 C 2.3730016 11.394317 2.4118716 11.323648 2.4492188 11.251953 C 2.4628437 11.225783 2.4743623 11.197925 2.4882812 11.171875 C 2.5212292 11.110205 2.5552642 11.049322 2.5898438 10.988281 C 2.6236507 10.928591 2.6580168 10.869583 2.6933594 10.810547 C 2.7141934 10.775747 2.7344984 10.741627 2.7558594 10.707031 C 2.7960153 10.642031 2.8369125 10.577832 2.8789062 10.513672 C 2.9073292 10.470242 2.9375449 10.425849 2.9667969 10.382812 C 3.0111838 10.317513 3.0552928 10.251844 3.1015625 10.1875 C 3.1234255 10.15709 3.1456918 10.127836 3.1679688 10.097656 C 3.2136387 10.035776 3.2592519 9.9730359 3.3066406 9.9121094 C 3.3473446 9.8597644 3.3896867 9.8074596 3.4316406 9.7558594 C 3.4750106 9.7025054 3.5197717 9.6502011 3.5644531 9.5976562 C 3.5859601 9.5723623 3.6070993 9.5465813 3.6289062 9.5214844 C 3.6980932 9.4418465 3.76964 9.3647543 3.8417969 9.2871094 C 3.8586319 9.2689924 3.8755851 9.2504259 3.8925781 9.2324219 C 3.9444101 9.1775119 3.9955361 9.1241629 4.0488281 9.0703125 C 4.0957241 9.0229235 4.1414482 8.9762325 4.1894531 8.9296875 C 4.2235161 8.8966635 4.2603081 8.8646192 4.2949219 8.8320312 C 4.3550608 8.7754063 4.4147883 8.7173752 4.4765625 8.6621094 C 4.4986555 8.6423394 4.5206708 8.6231046 4.5429688 8.6035156 C 4.6117877 8.5430647 4.681203 8.4825522 4.7519531 8.4238281 C 4.84363 8.3477372 4.9364212 8.2722987 5.03125 8.1992188 C 5.1244509 8.1273878 5.2202623 8.0609826 5.3164062 7.9921875 C 5.3299092 7.9825175 5.3419078 7.9705425 5.3554688 7.9609375 C 5.3579887 7.9591275 5.3607713 7.9568781 5.3632812 7.9550781 C 5.4681163 7.8810062 5.5754294 7.8086071 5.6835938 7.7382812 C 5.8750146 7.6138239 6.071887 7.4973966 6.2734375 7.3847656 L 6.2753906 7.3828125 C 6.3674165 7.3314146 6.4607342 7.2813062 6.5546875 7.2324219 C 6.5767225 7.2209559 6.5989578 7.2105437 6.6210938 7.1992188 C 6.7008627 7.1584058 6.7822267 7.1190688 6.8632812 7.0800781 C 6.9090382 7.0580691 6.9558033 7.037038 7.0019531 7.015625 C 7.0672571 6.985304 7.1312056 6.9549192 7.1972656 6.9257812 C 7.2435856 6.9053573 7.2912127 6.8850644 7.3378906 6.8652344 C 7.4211745 6.8298254 7.503519 6.7952533 7.5878906 6.7617188 C 7.6001036 6.7568988 7.612766 6.7509127 7.625 6.7460938 C 7.7307847 6.7044718 7.8379582 6.6655928 7.9453125 6.6269531 C 8.0534316 6.5880342 8.1619071 6.549528 8.2714844 6.5136719 C 8.2747744 6.5125519 8.27795 6.5107956 8.28125 6.5097656 C 8.3721399 6.4801157 8.4628815 6.4533062 8.5546875 6.4257812 C 8.5875995 6.4159213 8.6193218 6.4060634 8.6523438 6.3964844 C 8.6576337 6.3949444 8.6646299 6.392165 8.6699219 6.390625 C 8.7121418 6.378437 8.7544759 6.3672087 8.796875 6.3554688 C 8.8820789 6.3318958 8.9668727 6.3068882 9.0527344 6.2851562 C 9.1059053 6.2716943 9.1614394 6.262746 9.2148438 6.25 C 9.2812897 6.234121 9.3472795 6.2159409 9.4140625 6.2011719 C 9.4737074 6.1879849 9.5338579 6.1763605 9.59375 6.1640625 C 9.6840769 6.1455415 9.772448 6.1297622 9.8632812 6.1132812 C 9.8894002 6.1085513 9.9152373 6.1022192 9.9414062 6.0976562 C 10.053997 6.0779983 10.168029 6.0594577 10.28125 6.0429688 C 10.30146 6.0400388 10.321577 6.0379862 10.341797 6.0351562 C 10.472127 6.0168493 10.60342 5.99842 10.734375 5.984375 C 10.859469 5.970958 10.983883 5.9587117 11.109375 5.9492188 C 11.130325 5.9476788 11.150915 5.9468525 11.171875 5.9453125 C 11.291667 5.9368825 11.413227 5.9305582 11.533203 5.9257812 C 11.548183 5.9251839 11.563135 5.9263812 11.578125 5.9257812 C 11.718953 5.9207113 11.859149 5.9179688 12 5.9179688 z M 12.066406 7 A 4.9344543 5.0008573 0 0 0 7.1308594 12 A 4.9344543 5.0008573 0 0 0 12.066406 17 A 4.9344543 5.0008573 0 0 0 17 12 A 4.9344543 5.0008573 0 0 0 16.226562 9.3144531 A 2.1817053 2.3769731 0 0 1 16.248047 9.6230469 A 2.1817053 2.3769731 0 0 1 14.064453 12 A 2.1817053 2.3769731 0 0 1 11.884766 9.6230469 A 2.1817053 2.3769731 0 0 1 13.701172 7.2832031 A 4.9344543 5.0008573 0 0 0 12.066406 7 z " />
    <path
       style="fill:#333333;fill-opacity:1;fill-rule:evenodd;stroke:none;stroke-width:2;stroke-linecap:round;stroke-linejoin:bevel;stroke-dasharray:none;stroke-opacity:1"
       d="M 1,3 3,1 23,21 21,23 Z"
       id="path12355" />
  </g>
  <metadata
     id="metadata1660">
    <rdf:RDF>
      <cc:Work
         rdf:about="">
        <dc:title>org.remmina.Remmina-password-conceal-symbolic</dc:title>
        <dc:date>1/17/2023</dc:date>
        <dc:creator>
          <cc:Agent>
            <dc:title>Benoit Lagarde</dc:title>
          </cc:Agent>
        </dc:creator>
        <dc:description>Remmina's password conceal icon.</dc:description>
        <cc:license
           rdf:resource="https://www.gnu.org/licenses/old-licenses/gpl-2.0.html" />
      </cc:Work>
    </rdf:RDF>
  </metadata>
</svg>
