<?xml version="1.0" encoding="UTF-8" standalone="no"?>
<!-- Created with Inkscape (http://www.inkscape.org/) -->

<svg
   width="24"
   height="24"
   viewBox="0 0 24 24"
   version="1.1"
   id="svg5"
   inkscape:version="1.2.2 (b0a8486541, 2022-12-01)"
   sodipodi:docname="org.remmina.Remmina-password-conceal-symbolic.svg"
   xmlns:inkscape="http://www.inkscape.org/namespaces/inkscape"
   xmlns:sodipodi="http://sodipodi.sourceforge.net/DTD/sodipodi-0.dtd"
   xmlns="http://www.w3.org/2000/svg"
   xmlns:svg="http://www.w3.org/2000/svg">
  <sodipodi:namedview
     id="namedview7"
     pagecolor="#ffffff"
     bordercolor="#000000"
     borderopacity="0.25"
     inkscape:showpageshadow="2"
     inkscape:pageopacity="0.0"
     inkscape:pagecheckerboard="0"
     inkscape:deskcolor="#d1d1d1"
     inkscape:document-units="mm"
     showgrid="true"
     showguides="true"
     inkscape:lockguides="false"
     inkscape:zoom="24.145679"
     inkscape:cx="12.962982"
     inkscape:cy="11.741231"
     inkscape:window-width="1920"
     inkscape:window-height="1024"
     inkscape:window-x="1920"
     inkscape:window-y="24"
     inkscape:window-maximized="1"
     inkscape:current-layer="layer1">
    <inkscape:grid
       type="xygrid"
       id="grid9" />
  </sodipodi:namedview>
  <defs
     id="defs2" />
  <g
     inkscape:label="Layer 1"
     inkscape:groupmode="layer"
     id="layer1">
    <path
       style="fill:none;stroke:#454545;stroke-width:1.90916;stroke-dasharray:none;stroke-opacity:1"
       d="M 0.85075018,12.52308 C 12.001333,-6.7096432 23.174178,12.368714 23.174178,12.368714"
       id="path466" />
    <path
       style="color:#000000;fill:#454545;-inkscape-stroke:none"
       d="M 22.359375,10.998047 C 19.635824,15.69611 16.990138,17.915068 14.662109,18.730469 12.33408,19.54587 10.215356,19.046168 8.2773438,17.951172 4.4013191,15.761179 1.6386719,11.150391 1.6386719,11.150391 l -1.63476565,0.957031 c 0,0 2.83057165,4.9433 7.34179685,7.492187 2.2556126,1.274444 5.0301919,1.939586 7.9414059,0.919922 2.911215,-1.019663 5.850423,-3.635989 8.710938,-8.570312 z"
       id="path4265" />
    <path
       id="path5539"
       style="fill:#454545;stroke:#454545;stroke-width:2.22162"
       d="M 14.88919,12 A 2.8891885,2.8891885 0 0 1 12.000002,14.889189 2.8891885,2.8891885 0 0 1 9.1108134,12 2.8891885,2.8891885 0 0 1 12.000002,9.1108115 2.8891885,2.8891885 0 0 1 14.88919,12 Z" />
    <ellipse
       style="fill:#ffffff;fill-opacity:1;stroke:none;stroke-width:2.63996"
       id="path6021"
       cx="14"
       cy="10.335602"
       rx="1.5861788"
       ry="1.3356014" />
    <path
       style="fill:#454545;stroke:#454545;stroke-width:1.92829;stroke-dasharray:none"
       d="M 3.6811289,3.6823825 20.24789,20.355983"
       id="path1117" />
  </g>
</svg>
