<?xml version="1.0" encoding="UTF-8" standalone="no"?>
<!-- Created with Inkscape (http://www.inkscape.org/) -->

<svg
   width="24"
   height="24"
   viewBox="0 0 24 24"
   version="1.1"
   id="svg5605"
   inkscape:version="1.2.2 (b0a8486541, 2022-12-01)"
   sodipodi:docname="org.remmina.Remmina-password-conceal-symbolic.svg"
   xmlns:inkscape="http://www.inkscape.org/namespaces/inkscape"
   xmlns:sodipodi="http://sodipodi.sourceforge.net/DTD/sodipodi-0.dtd"
   xmlns="http://www.w3.org/2000/svg"
   xmlns:svg="http://www.w3.org/2000/svg">
  <sodipodi:namedview
     id="namedview5607"
     pagecolor="#ffffff"
     bordercolor="#000000"
     borderopacity="0.25"
     inkscape:showpageshadow="2"
     inkscape:pageopacity="0.0"
     inkscape:pagecheckerboard="0"
     inkscape:deskcolor="#d1d1d1"
     inkscape:document-units="px"
     showgrid="true"
     showguides="true"
     inkscape:lockguides="false"
     inkscape:zoom="24.145679"
     inkscape:cx="10.643726"
     inkscape:cy="9.7118826"
     inkscape:window-width="1920"
     inkscape:window-height="1024"
     inkscape:window-x="0"
     inkscape:window-y="24"
     inkscape:window-maximized="1"
     inkscape:current-layer="layer1">
    <sodipodi:guide
       position="12,12"
       orientation="0,24"
       id="guide8269"
       inkscape:locked="false" />
    <sodipodi:guide
       position="12,12"
       orientation="24,0"
       id="guide8271"
       inkscape:locked="false" />
    <inkscape:grid
       type="xygrid"
       id="grid13722" />
    <sodipodi:guide
       position="1,32"
       orientation="0,24"
       id="guide19220"
       inkscape:locked="false" />
  </sodipodi:namedview>
  <defs
     id="defs5602">
    <inkscape:path-effect
       effect="spiro"
       id="path-effect20049"
       is_visible="true"
       lpeversion="1" />
    <inkscape:path-effect
       effect="spiro"
       id="path-effect20049-7"
       is_visible="true"
       lpeversion="1" />
  </defs>
  <g
     inkscape:label="Layer 1"
     inkscape:groupmode="layer"
     id="layer1">
    <path
       id="path42927"
       style="color:#000000;fill:#454545;-inkscape-stroke:none"
       d="M 12 3.0234375 C 9.4553157 3.0234375 6.9366796 3.824696 4.8574219 5.2871094 L 6.2988281 6.7285156 C 7.9805139 5.6317943 9.9951075 5.0234375 12 5.0234375 C 14.244124 5.0234375 16.501317 5.7841388 18.289062 7.140625 C 20.07681 8.4971112 21.417248 10.467659 22.021484 12.628906 L 23.947266 12.089844 C 23.222595 9.4978283 21.642117 7.1737286 19.498047 5.546875 C 17.353977 3.9200212 14.69141 3.0234375 12 3.0234375 z M 3.9746094 5.9746094 C 2.1000154 7.5692012 0.71635695 9.7161839 0.052734375 12.089844 L 1.9785156 12.628906 C 2.5463548 10.597847 3.7641495 8.7354316 5.3925781 7.3925781 L 3.9746094 5.9746094 z " />
    <path
       id="path42924"
       style="color:#000000;fill:#454545;-inkscape-stroke:none"
       d="M 1.9785156 11.396484 L 0.052734375 11.935547 C 0.77740431 14.527562 2.3578832 16.849709 4.5019531 18.476562 C 6.6460232 20.103417 9.3085898 21 12 21 C 13.957814 21 15.899865 20.523517 17.638672 19.638672 L 16.136719 18.136719 C 14.833117 18.698836 13.413908 19 12 19 C 9.755876 19 7.4986838 18.241251 5.7109375 16.884766 C 3.9231911 15.528279 2.5827524 13.557732 1.9785156 11.396484 z M 22.021484 11.396484 C 21.417248 13.557732 20.07681 15.528279 18.289062 16.884766 C 17.937863 17.151245 17.567369 17.394158 17.183594 17.613281 L 18.640625 19.070312 C 18.933998 18.884807 19.220938 18.686824 19.498047 18.476562 C 21.642117 16.849709 23.222595 14.527561 23.947266 11.935547 L 22.021484 11.396484 z " />
    <path
       id="path46717"
       style="fill:#454545;fill-opacity:1;stroke:none;stroke-width:1.49955;stroke-opacity:1"
       d="M 12.066406 8 A 3.9344778 4.0006859 0 0 0 9.0332031 9.4628906 L 10.785156 11.214844 L 14.607422 15.037109 A 3.9344778 4.0006859 0 0 0 16 12 A 3.9344778 4.0006859 0 0 0 15.382812 9.8515625 A 1.7395786 1.9015785 0 0 1 15.400391 10.097656 A 1.7395786 1.9015785 0 0 1 13.660156 12 A 1.7395786 1.9015785 0 0 1 11.921875 10.097656 A 1.7395786 1.9015785 0 0 1 13.369141 8.2265625 A 3.9344778 4.0006859 0 0 0 12.066406 8 z M 8.4550781 10.455078 A 3.9344778 4.0006859 0 0 0 8.1308594 12 A 3.9344778 4.0006859 0 0 0 12.066406 16 A 3.9344778 4.0006859 0 0 0 13.648438 15.648438 L 10 12 L 8.4550781 10.455078 z " />
    <path
       style="fill:none;fill-opacity:1;stroke:#454545;stroke-width:1.5;stroke-dasharray:none;stroke-opacity:1"
       d="M 1,1 C 23,23 23,23 23,23"
       id="path46726" />
  </g>
</svg>
