<?xml version="1.0" encoding="UTF-8" standalone="no"?>
<!-- Created with Inkscape (http://www.inkscape.org/) -->

<svg
   width="24"
   height="24"
   viewBox="0 0 24 24"
   version="1.1"
   id="svg5605"
   inkscape:version="1.2.2 (b0a8486541, 2022-12-01)"
   sodipodi:docname="org.remmina.Remmina-password-reveal-symbolic.svg"
   xmlns:inkscape="http://www.inkscape.org/namespaces/inkscape"
   xmlns:sodipodi="http://sodipodi.sourceforge.net/DTD/sodipodi-0.dtd"
   xmlns="http://www.w3.org/2000/svg"
   xmlns:svg="http://www.w3.org/2000/svg">
  <sodipodi:namedview
     id="namedview5607"
     pagecolor="#ffffff"
     bordercolor="#000000"
     borderopacity="0.25"
     inkscape:showpageshadow="2"
     inkscape:pageopacity="0.0"
     inkscape:pagecheckerboard="0"
     inkscape:deskcolor="#d1d1d1"
     inkscape:document-units="px"
     showgrid="true"
     showguides="true"
     inkscape:lockguides="false"
     inkscape:zoom="24.145679"
     inkscape:cx="11.368494"
     inkscape:cy="9.6704674"
     inkscape:window-width="1920"
     inkscape:window-height="1024"
     inkscape:window-x="0"
     inkscape:window-y="24"
     inkscape:window-maximized="1"
     inkscape:current-layer="layer1">
    <sodipodi:guide
       position="12,12"
       orientation="0,24"
       id="guide8269"
       inkscape:locked="false" />
    <sodipodi:guide
       position="12,12"
       orientation="24,0"
       id="guide8271"
       inkscape:locked="false" />
    <inkscape:grid
       type="xygrid"
       id="grid13722" />
    <sodipodi:guide
       position="1,32"
       orientation="0,24"
       id="guide19220"
       inkscape:locked="false" />
  </sodipodi:namedview>
  <defs
     id="defs5602">
    <inkscape:path-effect
       effect="bspline"
       id="path-effect67426"
       is_visible="true"
       lpeversion="1"
       weight="33.333333"
       steps="2"
       helper_size="0"
       apply_no_weight="true"
       apply_with_weight="true"
       only_selected="false" />
    <inkscape:path-effect
       effect="spiro"
       id="path-effect20049"
       is_visible="true"
       lpeversion="1" />
    <inkscape:path-effect
       effect="spiro"
       id="path-effect20049-7"
       is_visible="true"
       lpeversion="1" />
    <inkscape:path-effect
       effect="spiro"
       id="path-effect20049-7-2"
       is_visible="true"
       lpeversion="1" />
  </defs>
  <g
     inkscape:label="Layer 1"
     inkscape:groupmode="layer"
     id="layer1">
    <path
       style="fill:#454545;stroke:none;stroke-width:2;stroke-dasharray:none;fill-opacity:0"
       d="M 1.0155254,12.358762 C 1.6799801,9.982126 3.1397872,7.8352829 5.1056994,6.34361 7.0716116,4.8519371 9.532228,4.0240849 12,4.0240849 c 2.467772,0 4.928389,0.827852 6.894301,2.319525 1.965912,1.4916729 3.425719,3.638516 4.090174,6.0151521"
       id="path20047"
       inkscape:original-d="M 22.984475,12.358762 C 26.644967,15.144016 15.660493,1.2448174 12,4.0240849 8.339507,6.8033524 4.6780169,9.5815363 1.0155254,12.358762 -2.6469661,15.135988 8.3395085,6.787254 12,4 c 3.660492,-2.787254 7.323983,5.573508 10.984475,8.358762 z"
       inkscape:path-effect="#path-effect20049" />
    <path
       id="path42927"
       style="color:#000000;fill:#454545;-inkscape-stroke:none"
       d="M 12,3 C 9.455316,3 6.93668,3.8012585 4.8574219,5.2636719 L 6.298828,6.7050781 C 7.980514,5.6083568 9.995108,5 12,5 c 2.244124,0 4.501317,0.7607013 6.289062,2.1171875 1.787748,1.3564862 3.128186,3.3270335 3.732422,5.4882815 l 1.925782,-0.539063 C 23.222595,9.4743908 21.642117,7.1502911 19.498047,5.5234375 17.353977,3.8965837 14.69141,3 12,3 Z M 3.9746094,5.9511719 C 2.1000154,7.5457637 0.7163569,9.6927464 0.0527344,12.066406 l 1.9257812,0.539063 C 2.5463548,10.57441 3.7641495,8.7119941 5.3925781,7.3691406 Z" />
    <path
       id="path42927-0"
       style="color:#000000;fill:#454545;-inkscape-stroke:none"
       d="m 12,3 c 2.544684,0 5.06332,0.8012585 7.142578,2.2636719 L 17.701172,6.7050781 C 16.019486,5.6083568 14.004892,5 12,5 9.755876,5 7.498683,5.7607013 5.710938,7.1171875 3.92319,8.4736737 2.582752,10.444221 1.978516,12.605469 L 0.052734,12.066406 C 0.777405,9.4743908 2.357883,7.1502911 4.501953,5.5234375 6.646023,3.8965837 9.30859,3 12,3 Z m 8.025391,2.9511719 c 1.874594,1.5945918 3.258252,3.7415745 3.921875,6.1152341 l -1.925781,0.539063 C 21.453646,10.57441 20.235851,8.7119941 18.607422,7.3691406 Z" />
    <path
       id="path46717"
       style="fill:#454545;fill-opacity:1;stroke:none;stroke-width:1.49955"
       d="M 12.06635,8.0000001 A 3.9344778,4.0006859 0 0 0 8.1308596,12 3.9344778,4.0006859 0 0 0 12.06635,16 3.9344778,4.0006859 0 0 0 16,12 3.9344778,4.0006859 0 0 0 15.383642,9.8514394 1.7395786,1.9015785 0 0 1 15.400202,10.098422 1.7395786,1.9015785 0 0 1 13.65968,12 1.7395786,1.9015785 0 0 1 11.921,10.098422 1.7395786,1.9015785 0 0 1 13.368981,8.2265554 3.9344778,4.0006859 0 0 0 12.06635,8.0000001 Z" />
    <path
       style="fill:#454545;fill-opacity:0;stroke:none;stroke-width:1;stroke-dasharray:none;stroke-opacity:1"
       d="M 1,12 C 4.6666252,8.0000453 8.3332918,4.0000453 12.000493,4.0005834 15.667695,4.0011215 19.334288,8.0010413 23,12"
       id="path67424"
       inkscape:path-effect="#path-effect67426"
       inkscape:original-d="M 1,12 C 4.6676667,8.001 8.3343333,4.001 12,0 c 3.66774,4.00108 7.334333,8.001 11,12" />
    <path
       id="path42927-3"
       style="color:#000000;fill:#454545;-inkscape-stroke:none"
       d="m 12,21 c 2.544684,0 5.06332,-0.801258 7.142578,-2.263671 L 17.701172,17.294922 C 16.019486,18.391644 14.004893,19 12,19 9.755876,19 7.498683,18.239299 5.710938,16.882813 3.92319,15.526327 2.5827521,13.555779 1.9785161,11.394532 l -1.925782,0.539062 c 0.724671,2.592016 2.305149,4.916115 4.4492189,6.542969 C 6.646023,20.103417 9.30859,21 12,21 Z m 8.025391,-2.951171 c 1.874594,-1.594592 3.258252,-3.741575 3.921875,-6.115235 l -1.925781,-0.539062 c -0.56784,2.031059 -1.785635,3.893474 -3.414063,5.236328 z" />
    <path
       id="path42927-3-6"
       style="color:#000000;fill:#454545;-inkscape-stroke:none"
       d="M 12,21 C 9.455316,21 6.93668,20.198742 4.857422,18.736329 L 6.298828,17.294922 C 7.980514,18.391644 9.995107,19 12,19 c 2.244124,0 4.501317,-0.760701 6.289062,-2.117187 1.787748,-1.356486 3.128186,-3.327034 3.732422,-5.488281 l 1.925782,0.539062 C 23.222595,14.52561 21.642117,16.849709 19.498047,18.476563 17.353977,20.103417 14.69141,21 12,21 Z M 3.974609,18.048829 C 2.100015,16.454237 0.716357,14.307254 0.052734,11.933594 l 1.925781,-0.539062 c 0.56784,2.031059 1.785635,3.893474 3.414063,5.236328 z" />
  </g>
</svg>
