<?xml version="1.0" encoding="UTF-8" standalone="no"?>
<!-- Created with Inkscape (http://www.inkscape.org/) -->

<svg
   width="24"
   height="24"
   viewBox="0 0 24 24"
   version="1.1"
   id="svg8"
   inkscape:version="1.2 (dc2aedaf03, 2022-05-15)"
   sodipodi:docname="org.remmina.Remmina-switch-page-symbolic.svg"
   xmlns:inkscape="http://www.inkscape.org/namespaces/inkscape"
   xmlns:sodipodi="http://sodipodi.sourceforge.net/DTD/sodipodi-0.dtd"
   xmlns="http://www.w3.org/2000/svg"
   xmlns:svg="http://www.w3.org/2000/svg"
   xmlns:rdf="http://www.w3.org/1999/02/22-rdf-syntax-ns#"
   xmlns:cc="http://creativecommons.org/ns#"
   xmlns:dc="http://purl.org/dc/elements/1.1/">
  <defs
     id="defs2" />
  <sodipodi:namedview
     id="base"
     pagecolor="#ffffff"
     inkscape:pageopacity="0"
     inkscape:pageshadow="2"
     inkscape:zoom="11.871974"
     inkscape:cx="40.59982"
     inkscape:cy="14.361555"
     inkscape:document-units="px"
     inkscape:current-layer="layer1"
     inkscape:document-rotation="0"
     showgrid="false"
     inkscape:showpageshadow="true"
     units="px"
     inkscape:pagecheckerboard="false"
     showguides="true"
     inkscape:window-width="1920"
     inkscape:window-height="995"
     inkscape:window-x="1080"
     inkscape:window-y="427"
     inkscape:window-maximized="1"
     objecttolerance="10"
     guidetolerance="10"
     inkscape:snap-tangential="true"
     inkscape:snap-perpendicular="true"
     fit-margin-top="0"
     fit-margin-left="0"
     fit-margin-right="0"
     fit-margin-bottom="0"
     inkscape:deskcolor="#d1d1d1">
    <inkscape:grid
       type="xygrid"
       id="grid10"
       dotted="false"
       originx="-186.74733"
       originy="-84.377739" />
  </sodipodi:namedview>
  <metadata
     id="metadata5">
    <rdf:RDF>
      <cc:Work
         rdf:about="">
        <dc:format>image/svg+xml</dc:format>
        <dc:type
           rdf:resource="http://purl.org/dc/dcmitype/StillImage" />
        <cc:license
           rdf:resource="" />
      </cc:Work>
    </rdf:RDF>
  </metadata>
  <g
     inkscape:label="Layer 1"
     inkscape:groupmode="layer"
     id="layer1"
     transform="translate(-186.7473,-190.75869)">
    <path
       d="m 188.35183,190.75869 c 0,0 -0.12233,0.007 -0.29127,0.0374 -0.32767,0.0484 -0.57554,0.16522 -0.75846,0.32436 -0.0356,0.0269 -0.0699,0.0562 -0.10337,0.0875 -0.0315,0.0333 -0.0606,0.0675 -0.0876,0.10287 -0.1602,0.18204 -0.27757,0.42872 -0.32593,0.75481 -0.0311,0.16813 -0.0379,0.28988 -0.0379,0.28988 v 19.16231 c 0,1.59688 1.6046,1.59688 1.6046,1.59688 h 9.6276 v -3.19377 h -8.023 v -11.1779 h 16.0457 v 3.19377 h 3.2092 v -9.58129 c 0,0 -0.007,-0.12175 -0.0375,-0.28988 -0.0498,-0.32609 -0.16544,-0.57277 -0.32593,-0.75481 -0.0274,-0.0354 -0.0574,-0.0696 -0.0876,-0.10287 -0.0338,-0.0313 -0.0681,-0.0606 -0.10337,-0.0875 -0.18321,-0.15914 -0.43108,-0.27596 -0.75846,-0.32436 -0.1701,-0.0308 -0.29156,-0.0374 -0.29156,-0.0374 z m 12.03435,12.77477 c 0,0 -0.0597,0.003 -0.14418,0.0189 -0.16369,0.0241 -0.28777,0.0826 -0.37923,0.16233 -0.0177,0.0134 -0.0364,0.0278 -0.0533,0.0435 -0.0161,0.0169 -0.0303,0.0354 -0.0437,0.053 -0.0801,0.091 -0.13894,0.2142 -0.16311,0.3774 -0.0161,0.084 -0.0186,0.14348 -0.0186,0.14348 v 9.58101 c 0,0.79859 0.80217,0.79859 0.80217,0.79859 h 9.6273 c 0,0 0.80245,0 0.80245,-0.79859 v -9.58101 c 0,0 -0.003,-0.0594 -0.0189,-0.14348 -0.0239,-0.1632 -0.0827,-0.28639 -0.16283,-0.3774 -0.0128,-0.0176 -0.028,-0.0363 -0.044,-0.053 -0.016,-0.0157 -0.0356,-0.0301 -0.0533,-0.0435 -0.0915,-0.0798 -0.21554,-0.13827 -0.37923,-0.16233 -0.0851,-0.0153 -0.14418,-0.0189 -0.14418,-0.0189 z m 0.80215,4.79066 h 8.023 v 4.79065 h -8.023 z"
       id="path17"
       inkscape:connector-curvature="0"
       style="isolation:isolate;fill:#171717;stroke-width:0.290567" />
  </g>
</svg>
