<?xml version="1.0" encoding="UTF-8" standalone="no"?>
<!-- Created with Inkscape (http://www.inkscape.org/) -->

<svg
   xmlns:dc="http://purl.org/dc/elements/1.1/"
   xmlns:cc="http://creativecommons.org/ns#"
   xmlns:rdf="http://www.w3.org/1999/02/22-rdf-syntax-ns#"
   xmlns:svg="http://www.w3.org/2000/svg"
   xmlns="http://www.w3.org/2000/svg"
   xmlns:sodipodi="http://sodipodi.sourceforge.net/DTD/sodipodi-0.dtd"
   xmlns:inkscape="http://www.inkscape.org/namespaces/inkscape"
   width="82.633926"
   height="82.633965"
   viewBox="0 0 21.863561 21.863569"
   version="1.1"
   id="svg8"
   inkscape:version="0.92.3 (2405546, 2018-03-11)"
   sodipodi:docname="switch tab.svg">
  <defs
     id="defs2" />
  <sodipodi:namedview
     id="base"
     pagecolor="#ffffff"
     bordercolor="#666666"
     borderopacity="1.0"
     inkscape:pageopacity="0"
     inkscape:pageshadow="2"
     inkscape:zoom="2.0986883"
     inkscape:cx="47.625489"
     inkscape:cy="5.9309673"
     inkscape:document-units="px"
     inkscape:current-layer="layer1"
     inkscape:document-rotation="0"
     showgrid="false"
     borderlayer="true"
     inkscape:showpageshadow="true"
     units="px"
     inkscape:pagecheckerboard="false"
     showguides="true"
     inkscape:window-width="1366"
     inkscape:window-height="715"
     inkscape:window-x="0"
     inkscape:window-y="0"
     inkscape:window-maximized="1"
     objecttolerance="10"
     guidetolerance="10"
     inkscape:snap-tangential="true"
     inkscape:snap-perpendicular="true"
     fit-margin-top="0"
     fit-margin-left="0"
     fit-margin-right="0"
     fit-margin-bottom="0">
    <inkscape:grid
       type="xygrid"
       id="grid10"
       dotted="false"
       originx="-186.74731"
       originy="-84.377747" />
  </sodipodi:namedview>
  <metadata
     id="metadata5">
    <rdf:RDF>
      <cc:Work
         rdf:about="">
        <dc:format>image/svg+xml</dc:format>
        <dc:type
           rdf:resource="http://purl.org/dc/dcmitype/StillImage" />
        <dc:title></dc:title>
        <cc:license
           rdf:resource="" />
      </cc:Work>
    </rdf:RDF>
  </metadata>
  <g
     inkscape:label="Layer 1"
     inkscape:groupmode="layer"
     id="layer1"
     transform="translate(-186.7473,-190.75869)">
    <path
       d="m 188.20483,190.75869 c 0,0 -0.11113,0.006 -0.26459,0.0341 -0.29765,0.0442 -0.52281,0.15081 -0.68897,0.29607 -0.0323,0.0246 -0.0635,0.0513 -0.0939,0.0799 -0.0286,0.0304 -0.055,0.0616 -0.0796,0.0939 -0.14552,0.16616 -0.25214,0.39132 -0.29607,0.68897 -0.0283,0.15346 -0.0344,0.26459 -0.0344,0.26459 v 17.49081 c 0,1.45759 1.45759,1.45759 1.45759,1.45759 h 8.74554 v -2.91518 h -7.28795 v -10.20287 h 14.57563 v 2.91518 h 2.91518 v -8.74553 c 0,0 -0.006,-0.11113 -0.0341,-0.26459 -0.0452,-0.29765 -0.15028,-0.52281 -0.29607,-0.68897 -0.0249,-0.0323 -0.0521,-0.0635 -0.0796,-0.0939 -0.0307,-0.0286 -0.0619,-0.0553 -0.0939,-0.0799 -0.16642,-0.14526 -0.39158,-0.25189 -0.68897,-0.29607 -0.15452,-0.0281 -0.26485,-0.0341 -0.26485,-0.0341 z m 10.93179,11.66045 c 0,0 -0.0542,0.003 -0.13097,0.0172 -0.1487,0.022 -0.26141,0.0754 -0.34449,0.14817 -0.0161,0.0122 -0.0331,0.0254 -0.0484,0.0397 -0.0146,0.0154 -0.0275,0.0323 -0.0397,0.0484 -0.0728,0.0831 -0.12621,0.19552 -0.14817,0.34448 -0.0146,0.0767 -0.0169,0.13097 -0.0169,0.13097 v 8.74527 c 0,0.72893 0.72867,0.72893 0.72867,0.72893 h 8.74527 c 0,0 0.72893,0 0.72893,-0.72893 v -8.74527 c 0,0 -0.003,-0.0542 -0.0172,-0.13097 -0.0217,-0.14896 -0.0751,-0.26141 -0.14791,-0.34448 -0.0116,-0.0161 -0.0254,-0.0331 -0.04,-0.0484 -0.0145,-0.0143 -0.0323,-0.0275 -0.0484,-0.0397 -0.0831,-0.0728 -0.19579,-0.12621 -0.34448,-0.14817 -0.0773,-0.014 -0.13097,-0.0172 -0.13097,-0.0172 z m 0.72866,4.37277 h 7.28795 v 4.37277 h -7.28795 z"
       id="path17"
       inkscape:connector-curvature="0"
       style="isolation:isolate;fill:#171717;stroke-width:0.26458332" />
  </g>
</svg>
