<svg xmlns="http://www.w3.org/2000/svg" width="24" height="24" viewBox="0 0 24 24"><path d="M21.921 2.081c2.771 2.772 2.771 7.269 0 10.042l-3.84 3.839-2.121-2.122 3.839-3.84c1.599-1.598 1.599-4.199-.001-5.797-1.598-1.599-4.199-1.599-5.797-.001l-3.84 3.839-2.121-2.121 3.84-3.839c2.771-2.773 7.267-2.773 10.041 0zm-8.082 13.879l-3.84 3.839c-1.598 1.6-4.199 1.599-5.799 0-1.598-1.598-1.598-4.2 0-5.797l3.84-3.84-2.121-2.121-3.84 3.84c-2.771 2.772-2.772 7.268 0 10.041 2.773 2.772 7.27 2.773 10.041 0l3.84-3.84-2.121-2.122z"/></svg>