<svg xmlns="http://www.w3.org/2000/svg" width="24" height="24" viewBox="0 0 24 24"><path d="M8 17h2v5l-2 2v-7zm4.462-6.412c.246.625.437 1.39.506 2.412h-7.936c.297-4.36 2.757-4.163 2.757-7.65 0-1.605-.522-2.35-1.272-3.35h4.512c.518-.807 1.207-1.489 2.019-2h-9.048c0 3.656 1.789 2.979 1.789 5.351 0 1.073-.364 1.59-.915 2.373-1.782 2.532-1.874 4.148-1.874 7.276h12c0-1.27-.021-2.287-.159-3.222-.88-.232-1.688-.64-2.379-1.19zm8.538-5.088c0 2.485-2.018 4.5-4.5 4.5-2.484 0-4.5-2.015-4.5-4.5s2.016-4.5 4.5-4.5c2.482 0 4.5 2.015 4.5 4.5zm-2-.5h-5v1h5v-1z"/></svg>